<svg width="211" height="166" viewBox="0 0 211 166" fill="none" xmlns="http://www.w3.org/2000/svg">
<path d="M58.7387 17.3895C58.9734 17.455 59.1894 17.5448 59.3901 17.7075C60.0611 18.2509 60.1064 19.6173 60.2266 20.4903C60.7343 20.5663 61.359 20.5951 61.8329 20.8052C62.2497 20.99 62.6018 21.2874 62.7853 21.7738C62.7896 22.0988 62.8089 22.2886 62.6264 22.5597C62.0998 23.3414 61.0775 23.382 60.3096 23.5083C59.9748 24.6549 59.939 25.6753 59.0655 26.4489C58.8757 26.4314 58.6854 26.4076 58.5075 26.3214C57.7918 25.9752 57.536 24.2685 57.2745 23.4809C56.7404 23.3944 56.0713 23.3514 55.5895 23.0489C55.2348 22.8261 55.011 22.556 54.8933 22.1021C54.8953 21.8486 54.9163 21.6391 55.0537 21.4334C55.5873 20.6346 56.5791 20.6257 57.3622 20.5038C57.4294 20.1305 57.4999 19.7581 57.5736 19.3866C57.769 18.4156 58.0058 17.9237 58.7387 17.3895Z" fill="#8E68DD"/>
<path d="M46.6464 30.6828C47.4056 30.7339 48.0108 30.8684 48.6392 31.409C48.6825 31.4466 48.725 31.4854 48.7668 31.5256C48.8085 31.5656 48.8493 31.6069 48.8893 31.6494C48.9291 31.6918 48.9682 31.7355 49.0064 31.7801C49.0445 31.825 49.0815 31.8709 49.1176 31.9177C49.1537 31.9648 49.1889 32.0127 49.2231 32.0618C49.2572 32.1109 49.2903 32.1609 49.3224 32.2119C49.3543 32.263 49.3852 32.3149 49.4151 32.3676C49.4448 32.4204 49.4735 32.4741 49.501 32.5287C49.5285 32.5832 49.555 32.6386 49.5801 32.6947C49.6053 32.7505 49.6294 32.8074 49.6522 32.8649C49.675 32.9225 49.6966 32.9806 49.7169 33.0394C49.7372 33.0981 49.7563 33.1575 49.7741 33.2172C49.7919 33.2772 49.8083 33.3375 49.8236 33.3983C49.8389 33.4592 49.853 33.5205 49.8657 33.5822C49.8783 33.644 49.8897 33.706 49.8997 33.7682C49.9098 33.8305 49.9185 33.8932 49.926 33.9561C49.9338 34.0198 49.9402 34.0836 49.9452 34.1478C49.9502 34.212 49.954 34.2762 49.9562 34.3403C49.9585 34.4045 49.9595 34.4689 49.959 34.5333C49.9585 34.5977 49.9566 34.6618 49.9535 34.726C49.9502 34.7904 49.9459 34.8544 49.9399 34.9184C49.934 34.9822 49.9266 35.0461 49.918 35.1095C49.9093 35.1731 49.8993 35.2362 49.888 35.2991C49.8766 35.3622 49.864 35.4247 49.85 35.4869C49.836 35.5491 49.8207 35.6109 49.8041 35.6723C49.7875 35.7335 49.7696 35.7942 49.7503 35.8543C49.7311 35.9147 49.7106 35.9742 49.6887 36.0331C49.667 36.0921 49.6439 36.1504 49.6197 36.2079C49.5954 36.2655 49.57 36.3225 49.5432 36.3786C49.5165 36.4346 49.4887 36.49 49.4598 36.5442C49.4307 36.5986 49.4004 36.6523 49.3691 36.7048C49.3379 36.7576 49.3054 36.8092 49.2719 36.86C48.6724 37.7677 47.9096 38.1213 46.9706 38.264C46.1424 38.2083 45.4569 38.0536 44.7875 37.438C44.7473 37.4012 44.7079 37.3632 44.6691 37.3239C44.6305 37.2848 44.5927 37.2446 44.5558 37.2031C44.5189 37.1617 44.4828 37.1193 44.4477 37.0758C44.4125 37.0323 44.3783 36.9878 44.3448 36.9424C44.3115 36.8969 44.2793 36.8504 44.2478 36.803C44.2165 36.7556 44.1862 36.7074 44.1568 36.6582C44.1274 36.6091 44.0991 36.5591 44.0719 36.5084C44.0446 36.4577 44.0185 36.406 43.9935 36.3538C43.9683 36.3014 43.9444 36.2485 43.9214 36.1948C43.8986 36.1412 43.8769 36.0867 43.8562 36.0318C43.8356 35.9768 43.8162 35.9213 43.7979 35.865C43.7797 35.809 43.7625 35.7523 43.7467 35.6952C43.7307 35.6382 43.716 35.5806 43.7026 35.5225C43.6892 35.4646 43.677 35.4063 43.6659 35.3476C43.6548 35.289 43.6449 35.23 43.6365 35.1708C43.6279 35.1114 43.6205 35.052 43.6144 34.9922C43.6079 34.9286 43.6026 34.8647 43.5985 34.8007C43.5946 34.7367 43.5919 34.6727 43.5907 34.6085C43.5894 34.5444 43.5896 34.4802 43.591 34.4162C43.5924 34.352 43.5952 34.288 43.5994 34.224C43.6035 34.16 43.609 34.0961 43.6159 34.0325C43.6226 33.9689 43.6309 33.9054 43.6402 33.8423C43.6496 33.7791 43.6604 33.7163 43.6726 33.6538C43.6848 33.5913 43.6982 33.5291 43.7129 33.4673C43.7276 33.4055 43.7437 33.3443 43.7611 33.2834C43.7784 33.2226 43.7968 33.1622 43.8167 33.1025C43.8365 33.0427 43.8576 32.9837 43.8798 32.925C43.9022 32.8666 43.9258 32.8088 43.9505 32.7517C43.9752 32.6945 44.0011 32.638 44.0282 32.5825C44.0552 32.5268 44.0835 32.472 44.1129 32.4182C44.1423 32.3643 44.1727 32.3112 44.2045 32.259C44.236 32.207 44.2687 32.1557 44.3025 32.1055C44.913 31.1888 45.6933 30.8212 46.6464 30.6828Z" fill="#E89839"/>
<path d="M46.5888 32.5737C46.7823 32.5851 46.9978 32.5929 47.1861 32.6487C47.5786 32.7653 47.9607 33.0509 48.1658 33.472C48.3612 33.8731 48.367 34.3688 48.2396 34.7987C48.0254 35.5218 47.6 35.7747 47.0525 36.0755C46.8324 36.0738 46.5735 36.0644 46.3592 35.9964C45.9845 35.877 45.6449 35.5616 45.4633 35.1562C45.2787 34.7438 45.266 34.2496 45.4053 33.816C45.6347 33.1018 46.0356 32.859 46.5888 32.5737Z" fill="#FCE16B"/>
<path d="M183.95 91.76C185.08 91.5718 186.14 91.5753 187.141 92.3008C188.065 92.9707 188.758 94.1293 188.989 95.3793C189.004 95.4581 189.017 95.537 189.028 95.6163C189.038 95.6958 189.048 95.7753 189.056 95.8554C189.064 95.9354 189.07 96.0155 189.074 96.0957C189.079 96.1759 189.081 96.2564 189.082 96.337C189.083 96.4174 189.083 96.4978 189.081 96.5782C189.079 96.6587 189.075 96.7389 189.069 96.8191C189.063 96.8994 189.056 96.9794 189.047 97.0593C189.038 97.139 189.028 97.2185 189.015 97.2976C189.003 97.3767 188.989 97.4555 188.974 97.5339C188.958 97.6123 188.941 97.6901 188.922 97.7674C188.902 97.8447 188.882 97.9214 188.86 97.9974C188.838 98.0736 188.814 98.149 188.79 98.2239C188.764 98.2986 188.737 98.3726 188.708 98.4456C188.68 98.5189 188.65 98.5912 188.619 98.6627C188.588 98.7341 188.555 98.8046 188.52 98.8741C188.486 98.9437 188.451 99.0121 188.413 99.0796C187.82 100.138 186.925 100.791 185.881 101.036C185.793 101.062 185.705 101.083 185.615 101.102C185.525 101.12 185.435 101.134 185.344 101.145C185.254 101.155 185.163 101.162 185.072 101.164C184.982 101.167 184.891 101.166 184.799 101.161C184.708 101.156 184.618 101.147 184.527 101.135C184.437 101.122 184.348 101.106 184.258 101.086C184.169 101.065 184.081 101.041 183.993 101.014C183.905 100.986 183.818 100.954 183.732 100.919C182.732 100.509 181.947 99.5929 181.506 98.4668C181.053 97.3055 180.958 95.9238 181.34 94.7173C181.814 93.2217 182.768 92.4078 183.95 91.76Z" fill="#2EC5F5"/>
<path d="M184.824 94.1924C185.287 94.1333 185.754 94.2311 186.137 94.5544C186.551 94.9023 186.795 95.4334 186.876 96.0171C186.963 96.6264 186.823 97.3031 186.501 97.7899C186.146 98.3304 185.699 98.5539 185.143 98.6419C184.982 98.6358 184.825 98.6043 184.672 98.5473C184.157 98.3604 183.681 97.9163 183.474 97.3247C183.271 96.7472 183.316 96.0913 183.517 95.5232C183.776 94.7872 184.242 94.489 184.824 94.1924Z" fill="#42D8F5"/>
<path d="M164.186 109.598C164.757 109.759 168.878 111.781 169.127 112.155C169.142 112.177 169.151 112.204 169.162 112.229C167.043 116.312 164.887 120.226 162.273 123.906C154.533 134.808 142.786 144.264 131.363 148.919L131.33 148.812C131.489 148.124 133.024 146.407 133.487 145.808C136.634 141.687 139.919 137.726 143.342 133.925C147.767 129.091 152.433 124.548 156.774 119.609C159.22 116.828 162.299 113.177 164.25 109.926L164.186 109.598Z" fill="#8E68DD"/>
<path d="M97.8985 15.103C102.257 12.2866 106.282 11.6822 111.1 13.3338C112.544 13.8288 113.924 14.5397 115.301 15.2451C124.324 20.7043 131.838 32.9306 136.246 43.5327C137.415 41.9247 147.132 30.3931 147.206 29.7218C147.776 29.3299 155.249 20.129 155.845 19.2453C156.702 18.2151 161.209 13.1537 161.371 12.4856C161.381 12.6854 161.367 12.885 161.291 13.0669C160.967 13.8462 160.451 14.6069 160.043 15.3373C159.33 16.6226 158.628 17.9159 157.937 19.2178C154.818 25.0222 151.654 30.8295 148.328 36.4724C148.244 36.6165 148.218 36.5641 148.306 36.7229L148.559 36.7327C153.985 35.6035 159.512 34.9219 164.976 34.0812C166.745 33.8089 169.755 33.5605 171.388 33.0378C171.359 33.1912 171.343 33.3024 171.267 33.436C170.742 34.3667 169.833 35.2587 169.194 36.1048C167.759 38.0082 166.338 39.9239 164.881 41.8061C164.311 42.5426 163.745 43.4171 163.085 44.035C162.536 45.1818 160.911 46.914 160.085 47.9687C158.319 50.2236 156.618 52.6123 154.743 54.7414C154.452 55.0732 154.175 55.3704 153.802 55.5712L163.624 55.1837C164.569 55.154 168.455 55.2271 169.033 54.9843C171.088 55.038 173.16 54.8526 175.214 54.7674L183.974 54.4833C183.921 54.6709 183.884 54.7737 183.759 54.912C182.652 56.1349 181.416 57.2485 180.251 58.3991C178.089 60.5463 175.918 62.6804 173.737 64.8014C172.767 65.7396 171.667 67.1514 170.571 67.8206C170.551 67.8324 170.531 67.842 170.511 67.8527C172.131 68.0886 187.202 72.5079 187.736 73.0384C186.924 73.7208 185.236 74.2307 184.25 74.6533C180.935 76.0745 177.429 77.307 174.27 79.1546L174.268 79.3138C175.108 84.9924 174.086 94.7355 172.939 100.295C172.774 101.096 172.643 102.266 172.257 102.955C172.245 102.977 172.231 102.998 172.219 103.019C173.926 104.411 176.227 107.454 177.828 109.246C181.137 112.952 184.785 116.709 187.922 120.58C188.078 120.774 188.176 120.941 188.221 121.21C188.052 121.03 187.897 120.922 187.688 120.82C183.377 118.696 178.964 116.767 174.608 114.77C173.039 114.051 170.7 112.687 169.162 112.229C169.151 112.205 169.142 112.178 169.127 112.156C168.878 111.782 164.757 109.759 164.186 109.598L164.25 109.926C162.3 113.178 159.22 116.828 156.775 119.61C152.434 124.549 147.767 129.092 143.342 133.926C139.919 137.727 136.634 141.688 133.487 145.809C133.024 146.408 131.489 148.124 131.33 148.813L131.363 148.92C129.513 149.764 127.545 150.314 125.63 150.922C125.002 151.121 124.371 151.311 123.738 151.49C123.106 151.67 122.471 151.84 121.835 152C121.198 152.16 120.56 152.31 119.92 152.45C119.28 152.59 118.639 152.72 117.996 152.84C117.353 152.96 116.709 153.07 116.064 153.17C115.419 153.27 114.773 153.36 114.126 153.44C113.478 153.52 112.83 153.59 112.182 153.65C111.533 153.71 110.884 153.76 110.234 153.8C109.584 153.839 108.934 153.869 108.283 153.888C107.632 153.908 106.982 153.917 106.331 153.917C105.68 153.916 105.03 153.905 104.379 153.884C103.729 153.863 103.078 153.832 102.429 153.791C101.779 153.75 101.129 153.698 100.481 153.637C99.8322 153.576 99.1844 153.504 98.5371 153.423C97.8901 153.341 97.2439 153.25 96.5989 153.148C95.9539 153.047 95.3101 152.935 94.6676 152.814C93.4716 152.586 92.312 152.219 91.1271 151.94C90.0729 151.567 88.9687 151.325 87.9037 150.973C86.4537 150.521 85.0732 149.83 83.6088 149.407C81.5663 150.27 79.516 151.105 77.4576 151.913C76.4636 152.301 75.4451 152.775 74.4183 153.01C73.6754 153.18 72.9038 153.242 72.1573 153.067C70.9129 152.774 69.6609 152.049 68.7697 150.973C67.6494 149.62 66.7857 147.852 65.905 146.277L61.7231 138.708C58.4973 132.871 55.1249 127.152 51.8679 121.342C47.9865 122.753 46.496 122.482 42.7928 120.551C39.804 121.368 36.8714 121.487 33.9168 120.398C29.7371 118.856 25.9624 115.268 23.9358 110.66C21.7996 105.801 21.3588 100.416 22.7719 95.2004C24.3858 89.2435 27.6994 85.713 32.2721 82.9202C32.3543 82.5323 32.4721 82.159 32.5982 81.7883C34.1721 77.159 36.8756 75.9966 40.4695 74.284C42.079 73.5128 43.6811 72.7204 45.2754 71.9066C49.4723 69.9137 53.6493 67.8641 57.8065 65.758C59.3374 64.9877 61.0163 64.3582 62.4749 63.4221C64.6157 62.0479 66.6222 59.9553 68.5633 58.2087C74.6782 52.706 80.8919 47.0267 86.2882 40.5424C86.4811 39.4182 86.681 38.2958 86.8879 37.175C88.4598 28.6799 91.4815 19.965 97.8985 15.103Z" fill="#2A0F90"/>
<path d="M85.5342 144.327C85.8762 144.157 86.2415 144.027 86.5925 143.882C86.1691 145.367 85.5677 146.545 84.3401 147.248C83.7146 147.606 83.0149 147.824 82.3488 148.055C82.7634 147.152 83.1163 146.285 83.3112 145.275C84.0491 144.949 84.7901 144.633 85.5342 144.327Z" fill="#3494E8"/>
<path d="M69.7863 118.951C71.7643 117.94 73.7209 116.896 75.5384 115.517C75.9243 116.237 76.3604 116.958 76.6828 117.719C74.7876 118.826 72.5913 119.442 70.5957 120.298C70.318 119.857 70.027 119.423 69.7863 118.951Z" fill="#6C749E"/>
<path d="M53.5083 120.818C54.6744 120.457 55.8387 120.087 57.0011 119.709C57.6237 120.638 58.6981 122.002 58.914 123.175C57.8415 123.661 56.7718 124.152 55.6793 124.573C54.9836 123.294 54.3229 121.999 53.5083 120.818Z" fill="#901776"/>
<path d="M68.1924 116.015C70.414 115.529 72.6345 114.732 74.8319 114.089L75.5385 115.517C73.7209 116.896 71.7644 117.94 69.7863 118.951C69.2194 118.006 68.7154 116.996 68.1924 116.015Z" fill="#2C3C97"/>
<path d="M57.001 119.709C59.8914 118.741 62.8044 117.793 65.7165 116.922C66.3275 117.807 67.1234 118.78 67.5196 119.831C64.6611 120.846 61.8344 122.05 59.0006 123.161L58.9139 123.175C58.698 122.002 57.6238 120.638 57.001 119.709Z" fill="#D8288A"/>
<path d="M35.2739 79.9723C35.8028 79.2502 36.3522 78.5111 37.0629 78.033C39.1401 76.635 42.4928 75.2952 44.8075 74.1814C50.1333 71.6635 55.4358 69.0795 60.7152 66.4294L59.4812 68.686C56.8076 69.8675 54.1867 71.2245 51.5519 72.521C47.4169 74.5939 43.2504 76.5736 39.0519 78.4604C38.098 78.8878 36.2597 79.9546 35.2739 79.9723Z" fill="white"/>
<path d="M71.3535 121.341C72.4396 120.787 73.6081 120.385 74.7306 119.948L75.9232 121.961C75.1637 122.253 74.3957 122.598 73.6164 122.803C76.4038 127.312 78.9378 132.066 81.5201 136.74C82.8593 139.164 84.5349 141.69 85.5344 144.327C84.7903 144.633 84.0491 144.949 83.3114 145.275C83.405 144.367 83.3372 143.42 83.0296 142.575C82.2725 140.495 80.8534 138.453 79.7982 136.556C76.9836 131.498 74.0129 126.511 71.3535 121.341Z" fill="#2EC5F5"/>
<path d="M24.0371 96.8248C24.0673 96.6826 24.0988 96.541 24.132 96.3999C24.1651 96.2588 24.1998 96.118 24.2358 95.9778C24.2719 95.8377 24.3094 95.698 24.3486 95.5591C24.3877 95.4201 24.4283 95.2815 24.4704 95.1437C24.5124 95.006 24.5559 94.8687 24.6009 94.732C24.6459 94.5955 24.6923 94.4596 24.74 94.3244C24.7878 94.1894 24.837 94.0549 24.8878 93.921C24.9385 93.7873 24.9905 93.6545 25.0441 93.5222C25.0976 93.39 25.1524 93.2586 25.2089 93.1282C25.2651 92.9976 25.323 92.868 25.3819 92.7392C25.441 92.6105 25.5014 92.4825 25.5632 92.3554C25.6249 92.2285 25.6881 92.1023 25.7525 91.9771C25.817 91.852 25.8827 91.7277 25.9499 91.6045C26.0171 91.4812 26.0854 91.3591 26.1551 91.238C26.2248 91.1166 26.2957 90.9965 26.368 90.8773C26.4402 90.7582 26.5138 90.6403 26.5885 90.5234C26.6632 90.4066 26.7392 90.2908 26.8164 90.1761C26.8937 90.0613 26.972 89.9479 27.0518 89.8356C27.1315 89.7232 27.2123 89.612 27.2942 89.5021C27.3762 89.3921 27.4594 89.2835 27.5436 89.176C27.628 89.0686 27.7134 88.9624 27.7999 88.8574C27.8865 88.7524 27.9742 88.6488 28.063 88.5462C28.1518 88.4439 28.2416 88.343 28.3324 88.2432C28.4234 88.1434 28.5153 88.0451 28.6085 87.9481C28.7015 87.851 28.7954 87.7555 28.8904 87.6612C28.9854 87.5672 29.0816 87.4744 29.1785 87.3831C29.2755 87.2916 29.3735 87.2018 29.4725 87.1134C29.5714 87.0251 29.6713 86.938 29.7721 86.8526C29.8729 86.767 29.9745 86.6831 30.077 86.6004C30.1796 86.518 30.283 86.437 30.3873 86.3577C30.4915 86.2782 30.5966 86.2004 30.7025 86.1242C30.8085 86.0478 30.9152 85.9731 31.0228 85.8999L31.7133 85.4251C30.8698 90.5114 30.796 97.1866 32.2625 102.125C31.8238 103.198 31.0231 103.732 30.1967 104.326C30.1789 102.644 30.3052 100.508 30.0798 98.8739C30.039 98.5777 30.0594 98.5266 29.8545 98.3538L29.6991 98.5314C29.6542 97.8864 29.6405 97.1024 29.7391 96.4666C29.9642 95.9009 29.9267 95.2079 29.7532 94.6262C29.5787 94.0413 29.2376 93.4409 28.7441 93.1832C28.2616 92.9312 27.6679 92.9808 27.189 93.2153C25.6016 93.9929 25.2226 95.8502 24.0371 96.8248Z" fill="#FABD5D"/>
<path d="M75.9229 121.961C78.2253 126.284 80.5546 130.587 82.9106 134.869C83.8298 136.542 86.0584 140.085 86.577 141.798C86.7747 142.451 86.6778 143.214 86.5923 143.882C86.2413 144.027 85.876 144.157 85.534 144.327C84.5345 141.69 82.8587 139.164 81.5197 136.74C78.9374 132.066 76.4034 127.312 73.616 122.803C74.3956 122.598 75.1636 122.253 75.9229 121.961Z" fill="#42D8F5"/>
<path d="M65.7167 116.922L67.367 116.318L69.0903 119.235C72.464 124.746 75.6073 130.483 78.7454 136.186C79.9104 138.303 81.3538 140.428 82.2785 142.703C82.5593 143.394 82.6411 144.097 82.6264 144.86C82.5241 144.85 82.5227 144.857 82.4097 144.807C81.7875 144.532 81.1244 143.622 80.7241 143.023C78.3587 139.487 76.427 135.488 74.2761 131.766C72.9573 129.484 71.6844 127.161 70.3576 124.887C69.4129 123.267 68.2663 121.654 67.5372 119.887L67.5196 119.831C67.1233 118.78 66.3275 117.807 65.7167 116.922Z" fill="#F792D1"/>
<path d="M84.3567 45.4773C84.8754 44.8584 85.3882 44.2305 85.9204 43.6277C85.2061 50.9232 85.421 61.1118 86.8919 68.2312C85.686 68.8024 84.3921 69.2827 83.2238 69.9409L83.1679 69.939C83.0689 68.4306 82.8601 66.926 82.7603 65.4127C82.5927 62.8697 82.5844 60.3161 82.6074 57.7666C82.9322 56.9545 83.1124 56.1473 82.9498 55.2564C83.111 53.1726 83.4703 51.1182 83.8223 49.0702C84.0125 47.9635 84.3965 46.6013 84.3567 45.4773Z" fill="#E89839"/>
<path d="M157.843 86.2229C158.909 85.9713 160.021 85.3198 161.054 84.8845L170.087 80.996C171.462 80.3919 172.844 79.5543 174.27 79.1544L174.269 79.3136C173.064 79.8063 164.47 91.9723 163.121 92.4367C163.102 92.4432 163.084 92.4505 163.065 92.4574C162.892 91.9206 158.298 86.5429 157.843 86.2229Z" fill="#DABFE8"/>
<path d="M75.6211 113.973C79.6792 113.616 83.8609 113.743 87.9199 114.076C86.4842 115.856 85.0274 117.612 83.5494 119.344C82.6618 120.371 80.9577 122.02 80.3269 123.138C79.8064 123.738 79.1881 124.688 78.5914 125.141C77.6638 123.277 76.5297 121.519 75.5417 119.692C75.7998 119.598 76.0667 119.506 76.3135 119.376C76.7063 119.168 77.0674 118.808 77.2068 118.314C77.5684 117.029 76.1385 115.086 75.6211 113.973Z" fill="#DABFE8"/>
<path d="M69.8538 109.997C71.3348 109.661 72.9178 109.578 74.4236 109.46C81.3037 108.92 88.1817 109.47 95.0114 110.454C97.5928 110.826 100.236 111.5 102.824 111.691C103.436 112.699 104.07 113.688 104.725 114.658C101.825 114.08 98.9575 113.349 96.0425 112.85C92.1671 112.185 88.1697 111.874 84.2551 111.766C82.2005 111.722 80.1468 111.752 78.0939 111.856C76.5831 111.949 74.8842 112.277 73.3884 112.063C71.9708 111.859 70.9431 111.01 69.8538 109.997Z" fill="#F04BA9"/>
<path d="M68.7891 110.955C69.7318 111.88 70.7316 112.556 71.8075 113.235C67.0708 114.595 62.3514 116.033 57.6491 117.551C55.7814 118.154 49.4945 120.475 47.8561 120.476C46.197 120.476 44.694 119.551 43.2896 118.605C43.9261 118.168 48.096 117.272 49.1158 116.971C53.1983 115.766 57.2543 114.416 61.3275 113.166C63.8064 112.405 66.3264 111.772 68.7891 110.955Z" fill="#3494E8"/>
<path d="M24.0371 96.8248C25.2226 95.8502 25.6016 93.9929 27.1893 93.2157C27.6682 92.9812 28.262 92.9316 28.7444 93.1836C29.2377 93.4412 29.5789 94.0416 29.7535 94.6265C29.927 95.2085 29.9645 95.9015 29.7394 96.467C29.641 97.1028 29.6546 97.8867 29.6994 98.5318L29.8548 98.3541C30.0597 98.5268 30.0394 98.5781 30.0802 98.8743C30.3054 100.509 30.1792 102.644 30.1971 104.326C31.0234 103.732 31.8241 103.198 32.2628 102.126C32.5368 103.196 32.8136 104.26 33.1411 105.31C30.0889 107.554 28.1602 108.54 24.4816 107.76C23.3836 104.131 23.2427 100.551 24.0371 96.8248Z" fill="#E89839"/>
<path d="M29.6995 98.5318C29.633 99.1842 29.515 99.8628 29.3688 100.497C29.0549 101.857 28.363 103.584 27.252 104.276C26.9296 104.477 26.5781 104.596 26.2233 104.435C25.6248 104.164 25.1431 103.463 24.9193 102.773C24.3695 101.076 24.7815 98.7052 25.3882 97.1036C25.7824 96.0629 26.4519 94.929 27.4025 94.5312C27.8427 94.3469 28.2994 94.3178 28.7211 94.5854C29.342 94.9796 29.5508 95.7257 29.7395 96.4672C29.641 97.1028 29.6546 97.8868 29.6995 98.5318Z" fill="white"/>
<path d="M33.1411 105.31C33.7554 107.11 34.4442 108.87 35.2077 110.589C36.4179 112.946 37.7328 115.152 39.3884 117.106C39.9795 117.814 40.6208 118.478 41.2352 119.159C38.3175 119.426 35.7728 119.353 33.028 118.007C32.9081 117.947 32.7888 117.885 32.6702 117.822C32.5516 117.758 32.4337 117.693 32.3165 117.627C32.1993 117.56 32.0827 117.491 31.9669 117.421C31.851 117.351 31.736 117.279 31.6216 117.205C31.5073 117.131 31.3937 117.056 31.281 116.979C31.1682 116.903 31.0563 116.824 30.9451 116.744C30.834 116.664 30.7237 116.582 30.6143 116.499C30.5049 116.416 30.3962 116.331 30.2887 116.244C30.181 116.158 30.0743 116.07 29.9683 115.98C29.8625 115.891 29.7575 115.8 29.6535 115.707C29.5496 115.615 29.4466 115.521 29.3445 115.425C29.2425 115.33 29.1415 115.233 29.0415 115.134C28.9414 115.036 28.8425 114.936 28.7447 114.835C28.6468 114.733 28.5499 114.63 28.4541 114.526C28.3583 114.422 28.2636 114.317 28.1699 114.21C28.0763 114.103 27.984 113.995 27.8927 113.885C27.8012 113.776 27.7111 113.665 27.622 113.553C27.5329 113.441 27.445 113.327 27.3583 113.212C27.2716 113.098 27.1861 112.982 27.1018 112.865C27.0174 112.748 26.9344 112.629 26.8527 112.51C26.7708 112.39 26.6903 112.269 26.6109 112.147C26.5317 112.025 26.4535 111.902 26.3768 111.778C26.2999 111.654 26.2244 111.529 26.1503 111.403C26.0762 111.276 26.0034 111.149 25.9318 111.021C25.8602 110.892 25.79 110.762 25.7213 110.632C25.6523 110.502 25.585 110.37 25.5187 110.238C25.4526 110.105 25.3879 109.972 25.3246 109.838C25.2611 109.703 25.1992 109.568 25.1387 109.432C25.0783 109.296 25.019 109.159 24.9613 109.021C24.9037 108.883 24.8474 108.745 24.7927 108.605C24.7378 108.466 24.6844 108.326 24.6325 108.185C24.5806 108.044 24.5303 107.902 24.4812 107.76C28.1603 108.54 30.089 107.554 33.1411 105.31Z" fill="#F04BA9"/>
<path d="M35.2078 110.589C36.418 112.946 37.7329 115.152 39.3886 117.106C35.1062 117.206 32.1506 116.515 28.5941 113.502C29.0905 113.553 29.5939 113.611 30.0925 113.592C32.2319 113.51 33.7844 112.397 35.2078 110.589Z" fill="#901776"/>
<path d="M58.9139 123.175L59.0006 123.161C59.6621 124.603 60.5356 125.973 61.3077 127.341L65.4025 134.683L69.4384 142.194C70.175 143.562 70.8626 145.064 71.77 146.283C72.3825 147.107 73.2922 147.695 74.1714 148.012C77.7529 149.304 79.1747 147.026 82.2106 146.56C81.9102 147.202 81.5523 147.842 81.0376 148.266C80.2916 148.882 74.9203 150.975 73.8622 151.254C73.4136 151.373 72.914 151.44 72.4607 151.318C71.4029 151.034 70.2558 150.149 69.5339 149.205C68.1615 147.411 66.6021 144.053 65.4177 141.929C62.2023 136.119 58.9562 130.334 55.6793 124.573C56.7717 124.152 57.8414 123.661 58.9139 123.175Z" fill="#D8288A"/>
<path d="M146.361 92.192C148.234 92.9744 150.297 94.61 152.041 95.762C157.363 99.2766 162.554 103.031 167.829 106.638L176.747 112.72C178.048 113.607 179.728 114.395 180.816 115.615L180.776 115.923C178.454 114.568 175.997 113.63 173.607 112.471L160.047 105.755L151.05 101.281C149.491 100.493 147.895 99.4487 146.255 98.9512C146.58 98.1149 146.62 93.1533 146.361 92.192Z" fill="#D96E31"/>
<path d="M163.065 92.4572C163.084 92.4504 163.102 92.4432 163.121 92.4366C164.47 91.9719 173.064 79.8062 174.268 79.3135C175.108 84.992 174.086 94.7352 172.939 100.295C172.774 101.096 172.643 102.265 172.257 102.955C172.245 102.977 172.231 102.997 172.219 103.018C172.208 102.996 163.655 92.951 163.065 92.4572Z" fill="#8E68DD"/>
<path d="M64.571 104.724C65.2942 105.971 65.9805 107.385 66.804 108.537C67.4145 109.392 68.1886 110.099 68.7891 110.955C66.3264 111.772 63.8062 112.405 61.3275 113.166C57.2543 114.416 53.1982 115.766 49.1158 116.971C48.096 117.272 43.9261 118.168 43.2895 118.605C41.1416 117.216 39.1505 114.731 37.8986 112.27C44.5751 110.194 51.3319 108.468 58.0491 106.579C59.8582 106.071 62.9924 105.604 64.571 104.724Z" fill="#3956B6"/>
<path d="M155.276 85.9691C156.515 86.9845 158.71 89.8619 159.962 91.3206L169.414 102.233C169.995 102.907 171.501 104.316 171.777 105.064C172.283 105.342 181.872 116.082 182.026 116.515C182.062 116.614 182.062 116.65 182.081 116.762C181.726 116.373 181.213 116.158 180.776 115.923L180.816 115.616C179.728 114.396 178.048 113.607 176.747 112.72L167.829 106.638C162.554 103.031 157.362 99.2768 152.041 95.7624C150.297 94.6103 148.234 92.9748 146.36 92.1923C146.455 91.8476 146.452 91.6712 146.352 91.3289C147.27 90.9991 148.211 90.3083 149.045 89.7516C150.214 89.3034 154.122 86.824 155.276 85.9691Z" fill="#E89839"/>
<path d="M155.276 85.9691C156.515 86.9845 158.71 89.8619 159.962 91.3206L169.414 102.233C169.995 102.907 171.501 104.316 171.777 105.064L171.734 105.096C171.138 104.987 170.373 104.38 169.843 104.035C165.623 101.287 161.499 98.2929 157.308 95.4767C155.391 94.1896 150.421 91.2409 149.045 89.7514C150.214 89.3034 154.122 86.824 155.276 85.9691Z" fill="#FABD5D"/>
<path d="M60.9319 95.717C61.9444 98.893 63.0091 101.857 64.571 104.724C62.9924 105.604 59.858 106.071 58.049 106.579C51.3319 108.468 44.5751 110.194 37.8985 112.27C36.9008 110.548 36.0391 108.838 35.3215 106.93C37.3834 106.212 39.4142 105.233 41.4288 104.35C44.7657 102.888 48.1153 101.476 51.4329 99.9521C54.5638 98.5141 57.7325 96.9127 60.9319 95.717Z" fill="#3494E8"/>
<path d="M59.4812 68.686C58.1488 72.3528 57.8432 76.5686 58.1502 80.5235C58.1166 80.8182 58.1402 81.1139 57.9298 81.3124C57.6681 81.559 52.1095 83.5155 51.198 83.8615C47.2199 85.3338 43.2525 86.8452 39.2958 88.3956C37.7479 88.9841 36.1904 89.4999 34.6366 90.0608C34.1793 90.2261 33.7126 90.5199 33.2542 90.6479C33.1387 90.6802 33.0471 90.6656 32.931 90.6522C32.7139 90.4386 32.7533 90.2779 32.7172 89.9549C32.921 86.7748 33.4224 82.4446 35.2737 79.9723C36.2595 79.9546 38.0977 78.8878 39.0517 78.4604C43.2501 76.5736 47.4167 74.5937 51.5516 72.521C54.1866 71.2245 56.8076 69.8675 59.4812 68.686Z" fill="#42D8F5"/>
<path d="M55.8091 71.6858C55.9733 71.7623 56.1417 71.8337 56.2758 71.9735C56.4393 72.1442 56.5136 72.2652 56.4984 72.5343C56.459 73.2287 56.0034 77.3697 55.8241 77.8849C55.7385 78.1311 55.5219 78.3311 55.3543 78.501C55.2104 78.451 55.0542 78.398 54.9356 78.285C54.631 77.9941 54.5983 77.4747 54.5891 77.0456C54.5541 75.4471 54.8582 72.8593 55.8091 71.6858Z" fill="white"/>
<path d="M50.165 75.5235C50.4704 75.4667 50.7611 75.5144 51.0467 75.6502C51.4895 75.861 51.8494 76.2666 52.0259 76.7934C52.1977 77.3059 52.1755 77.847 51.9712 78.3423C51.7789 78.8086 51.4596 79.1358 51.0864 79.3907C50.0614 80.0907 48.7785 80.5294 47.6743 81.0526C44.96 82.339 42.2444 83.6462 39.4936 84.8199C39.0323 84.997 38.5739 85.0975 38.1283 84.8053C37.8401 84.6165 37.6573 84.2868 37.5811 83.9133C37.3991 83.0195 37.6827 82.294 38.068 81.5534C39.2505 80.6874 40.7544 80.1285 42.0484 79.5067C44.7623 78.2025 47.4942 76.9478 50.165 75.5235Z" fill="white"/>
<path d="M59.0006 123.161C61.8346 122.05 64.661 120.846 67.5195 119.831L67.5372 119.887C68.2662 121.654 69.4129 123.267 70.3576 124.886C71.6842 127.161 72.9572 129.483 74.2761 131.766C76.427 135.488 78.3587 139.487 80.7241 143.023C81.1244 143.621 81.7877 144.532 82.4097 144.806C82.5227 144.856 82.5241 144.85 82.6264 144.86C82.5094 145.433 82.4093 146.017 82.2105 146.56C79.1744 147.025 77.7527 149.303 74.1712 148.011C73.292 147.694 72.3824 147.107 71.7699 146.283C70.8626 145.064 70.1749 143.562 69.4382 142.194L65.4023 134.683L61.3075 127.34C60.5356 125.973 59.6621 124.603 59.0006 123.161Z" fill="#F04BA9"/>
<path d="M69.6403 131.285C70.4107 130.905 71.0558 130.867 71.8456 131.223C72.2915 131.493 72.668 131.859 72.9625 132.337C73.397 133.044 73.6152 133.923 73.4936 134.793C73.3797 135.609 72.9791 136.298 72.4108 136.771C71.8134 137.268 71.0888 137.53 70.3595 137.378C69.6567 137.231 69.0424 136.692 68.6511 135.999C68.6248 135.952 68.5995 135.905 68.5753 135.857C68.551 135.809 68.5278 135.761 68.5056 135.712C68.4834 135.662 68.4623 135.612 68.4423 135.562C68.4223 135.511 68.4032 135.46 68.3854 135.409C68.3675 135.357 68.3508 135.305 68.3352 135.252C68.3196 135.199 68.305 135.146 68.2917 135.093C68.2783 135.039 68.2661 134.985 68.255 134.931C68.2439 134.877 68.2341 134.822 68.2253 134.767C68.2166 134.712 68.2091 134.657 68.2028 134.602C68.1964 134.547 68.1912 134.491 68.1873 134.436C68.1833 134.38 68.1805 134.324 68.1789 134.269C68.1772 134.213 68.1769 134.157 68.1777 134.101C68.1784 134.046 68.1803 133.99 68.1836 133.934C68.1867 133.878 68.1911 133.823 68.1966 133.767C68.202 133.712 68.2088 133.657 68.2167 133.602C68.2245 133.547 68.2336 133.492 68.2439 133.437C68.4302 132.432 68.9251 131.821 69.6403 131.285Z" fill="#2A0F90"/>
<path d="M69.3932 132.224C69.9972 131.679 70.4699 131.572 71.219 131.645C71.9213 131.998 72.4197 132.388 72.7118 133.252C72.835 133.617 72.9159 133.994 72.988 134.376C72.7731 135.241 72.5289 135.973 71.8289 136.439C71.7693 136.478 71.7082 136.514 71.6457 136.545C71.583 136.577 71.5193 136.605 71.4544 136.629C71.3894 136.653 71.3236 136.673 71.2568 136.689C71.1901 136.705 71.1229 136.717 71.0552 136.725C70.9874 136.733 70.9196 136.737 70.8516 136.737C70.7834 136.737 70.7154 136.733 70.6477 136.725C70.5801 136.717 70.5129 136.704 70.4463 136.688C70.3795 136.672 70.3137 136.652 70.2487 136.628C70.2123 136.614 70.1764 136.6 70.1407 136.584C70.1049 136.569 70.0698 136.552 70.0348 136.534C69.9997 136.516 69.9652 136.497 69.9311 136.477C69.8971 136.457 69.8635 136.436 69.8303 136.414C69.7972 136.392 69.7645 136.369 69.7322 136.345C69.7 136.321 69.6684 136.296 69.6375 136.27C69.6063 136.244 69.576 136.217 69.5462 136.189C69.5163 136.161 69.4871 136.132 69.4585 136.103C69.4299 136.073 69.4021 136.042 69.3749 136.011C69.3475 135.98 69.3211 135.947 69.2953 135.914C69.2695 135.881 69.2444 135.847 69.2201 135.813C69.1958 135.778 69.1723 135.743 69.1495 135.707C69.1268 135.671 69.1048 135.634 69.0837 135.597C69.0626 135.559 69.0423 135.521 69.0229 135.483C69.0035 135.444 68.9849 135.405 68.9673 135.365C68.9496 135.325 68.9327 135.285 68.9168 135.244C68.6586 134.595 68.6595 133.849 68.88 133.186C68.996 132.838 69.1909 132.508 69.3932 132.224Z" fill="#2EC5F5"/>
<path d="M71.1607 131.933C71.5115 131.997 71.8338 132.128 72.0503 132.478C72.2489 132.8 72.2883 133.156 72.2172 133.539C72.0481 134.45 71.593 134.875 70.9694 135.362C70.7974 135.387 70.6047 135.425 70.4331 135.389C70.2173 135.345 70.0006 135.158 69.8922 134.935C69.7395 134.621 69.7601 134.22 69.836 133.883C70.0495 132.935 70.4529 132.416 71.1607 131.933Z" fill="#42D8F5"/>
<path d="M92.83 24.2875C92.8361 24.3205 92.8431 24.3535 92.8486 24.3869C93.0477 25.6292 91.9501 27.4029 91.591 28.612C90.3516 32.7848 89.2966 36.9946 88.7885 41.3944C87.5781 51.8748 88.4489 63.0799 90.7481 73.2806C91.3672 76.0271 92.1793 78.6688 93.0204 81.3271C97.6475 95.9539 105.228 110.314 116.137 119.48C120.119 122.827 125.525 125.766 130.541 124.754C134.444 123.966 137.713 121.022 139.94 117.26C140.719 115.942 143.326 110.247 143.123 108.903C143.119 108.876 143.108 108.85 143.101 108.824C143.139 108.742 143.178 108.657 143.208 108.571C143.497 107.73 144.359 103.691 144.09 102.898C144.142 102.789 144.189 102.677 144.229 102.56C144.519 101.717 144.957 97.4057 144.682 96.6714C144.701 96.6358 144.721 96.6013 144.738 96.5648C145.146 95.705 145.207 89.857 144.954 88.888C145.046 89.0164 145.101 89.1492 145.13 89.3143C145.418 90.945 145.27 93.0024 145.231 94.6856C145.047 102.813 144.091 111.571 140.542 118.691C138.241 123.303 135.05 127.425 130.509 128.788C126.106 130.109 121.423 128.491 117.625 125.802C106.94 118.237 97.8476 99.7914 93.2969 86.368C91.612 81.3981 90.2644 76.1261 89.1728 70.9288C86.1366 56.4727 86.1588 37.3403 92.83 24.2875Z" fill="url(#paint0_linear_115_10)"/>
<path d="M175.637 56.3225C177.007 56.2862 178.386 56.2921 179.752 56.1905C179.689 56.3727 179.644 56.4686 179.519 56.604C176.524 59.8423 173.245 62.8007 170.108 65.8493C169.296 66.6384 168.005 68.2041 167.131 68.7559C168.741 68.9902 182.273 72.7318 182.813 73.2496C181.527 74.1274 178.114 75.2871 176.548 75.9465C172.969 77.4536 169.474 79.2332 165.929 80.8385C163.257 82.0485 160.567 83.1684 157.93 84.4837C157.065 84.9151 156.04 85.324 155.276 85.9691C154.122 86.824 150.214 89.3034 149.045 89.7513C148.211 90.308 147.27 90.9987 146.352 91.3285C146.608 90.4815 146.451 87.0788 146.178 86.2201C146.219 86.2063 146.262 86.1937 146.303 86.1788C146.972 85.9375 149.255 83.8661 149.956 83.3454C150.99 82.5755 152.085 81.8903 153.13 81.1294C155.707 79.2546 158.372 77.5483 161.016 75.8122C162.298 74.9714 163.695 74.1849 164.894 73.1948C165.036 73.0775 165.062 73.0323 165.14 72.8517L165.555 72.701C167.344 72.7433 169.16 72.6831 170.946 72.5553C171.685 72.5024 172.422 72.3574 173.163 72.3404C173.976 72.3541 175.063 72.5037 175.835 72.2404C173.843 71.7085 171.773 71.5878 169.773 71.0559C167.189 70.3684 164.712 69.1929 162.177 68.2943C162.948 67.8746 175.358 56.9054 175.547 56.5904C175.594 56.5121 175.607 56.4118 175.637 56.3225Z" fill="url(#paint1_linear_115_10)"/>
<path d="M90.2095 82.7371C93.0331 91.7664 95.9876 99.0721 100.366 107.187C101.172 108.681 101.945 110.259 102.824 111.691C100.236 111.5 97.5929 110.826 95.0117 110.454C88.182 109.47 81.3041 108.921 74.4239 109.46C72.9181 109.578 71.3352 109.661 69.8541 109.998C68.3063 108.85 66.959 106.245 65.9554 104.5C69.4918 104.136 73.0111 103.354 76.5437 102.906C81.9607 102.22 87.9046 102.2 93.3162 102.79C90.212 97.3386 87.6287 91.133 85.944 84.8793C87.3598 84.1489 88.7817 83.4351 90.2095 82.7371Z" fill="#901776"/>
<path d="M87.9201 114.076C93.5549 114.406 99.2861 115.587 104.785 117.027C103.452 119.08 101.854 120.823 100.305 122.643L94.6344 129.369C93.4126 130.817 92.1885 132.265 90.9855 133.734C89.9082 135.05 88.8089 136.481 87.5942 137.622C87.1833 138.158 86.7396 138.658 86.3027 139.165C83.8997 135.238 81.6834 131.031 79.5341 126.901L79.3153 126.461L78.5917 125.142C79.1884 124.688 79.8067 123.738 80.3272 123.138C80.958 122.021 82.6621 120.372 83.5497 119.345C85.0273 117.612 86.4843 115.856 87.9201 114.076Z" fill="url(#paint2_linear_115_10)"/>
<path d="M80.3269 123.138L80.3834 123.343C79.8887 124.075 79.1058 124.409 79.2596 125.503C79.2985 125.78 79.412 126.015 79.4331 126.298L79.3151 126.461L78.5914 125.141C79.1882 124.688 79.8065 123.738 80.3269 123.138Z" fill="#8E68DD"/>
<path d="M79.5338 126.901L79.5976 126.565L79.7637 126.53C79.7883 126.55 79.8128 126.571 79.8377 126.591C80.021 126.74 80.1509 126.836 80.3712 126.88C81.4972 127.108 83.0263 129.545 83.6674 130.63C84.7438 132.452 86.0225 133.985 87.3097 135.594C87.459 135.78 87.9422 136.304 87.9829 136.549C87.9985 136.643 87.9723 136.74 87.9669 136.836C87.8042 137.096 87.6276 137.295 87.594 137.622C87.1831 138.158 86.7394 138.658 86.3025 139.164C83.8995 135.238 81.6832 131.031 79.5338 126.901Z" fill="#8E68DD"/>
<path d="M85.9437 84.8789C87.6284 91.1326 90.2118 97.3382 93.3159 102.79C87.9043 102.2 81.9603 102.22 76.5434 102.906C73.0108 103.354 69.4915 104.136 65.9551 104.499C65.5966 103.868 65.2544 103.224 64.9287 102.567C64.603 101.911 64.2941 101.244 64.0025 100.566C63.7107 99.8881 63.4364 99.2004 63.1794 98.5028C62.9228 97.8052 62.684 97.0993 62.4631 96.3849C63.4448 95.7661 64.4962 95.3162 65.524 94.8169C67.4332 93.8771 69.3524 92.9666 71.2814 92.0851C76.1831 89.7811 81.1102 87.377 85.9437 84.8789Z" fill="#D8288A"/>
<path d="M104.785 117.026C105.424 117.201 106.062 117.385 106.702 117.546C108.272 119.486 109.786 121.465 111.493 123.243C112.175 123.951 112.847 124.702 113.568 125.355C111.778 127.555 109.974 129.738 108.153 131.902C107.041 133.223 105.848 134.512 104.8 135.902C103.914 136.719 103.218 138.11 102.277 138.785C98.6327 143.251 94.7559 147.456 91.1272 151.94C90.073 151.567 88.9688 151.325 87.9038 150.973C86.4538 150.521 85.0732 149.83 83.6089 149.407C84.3491 149.142 85.0307 148.881 85.6648 148.344C86.8184 147.367 87.6874 145.771 87.898 144.107C88.1662 141.986 87.3206 140.764 86.3027 139.164C86.7397 138.658 87.1834 138.158 87.5941 137.622C88.8089 136.481 89.9081 135.05 90.9854 133.734C92.1886 132.265 93.4126 130.817 94.6343 129.369L100.305 122.643C101.854 120.823 103.453 119.079 104.785 117.026Z" fill="url(#paint3_linear_115_10)"/>
<path d="M111.493 123.243C112.175 123.951 112.847 124.703 113.568 125.355C111.778 127.555 109.973 129.738 108.153 131.902C107.041 133.223 105.848 134.512 104.8 135.902C103.914 136.719 103.218 138.11 102.277 138.785C102.259 138.023 105.835 134.779 105.923 134.054C105.583 133.764 105.093 133.492 104.811 133.147C104.565 132.846 104.485 132.458 104.21 132.166C102.939 133.423 100.384 137.245 99.1814 137.867C99.1604 137.877 99.1387 137.886 99.1173 137.897C99.6656 137.091 100.366 136.366 100.984 135.633L104.547 131.415C106.824 128.711 109.022 125.681 111.493 123.243Z" fill="url(#paint4_linear_115_10)"/>
<path d="M99.1172 137.896C99.1386 137.886 99.1603 137.877 99.1813 137.866C100.384 137.245 102.939 133.422 104.21 132.166C104.485 132.458 104.565 132.846 104.811 133.147C105.093 133.492 105.583 133.764 105.923 134.054C105.835 134.779 102.258 138.023 102.277 138.785C98.6325 143.251 94.7557 147.456 91.127 151.94C90.0728 151.567 88.9686 151.324 87.9036 150.972C89.9468 148.398 92.1828 145.957 94.3017 143.461C95.8384 141.651 97.44 139.473 99.1172 137.896Z" fill="#8E68DD"/>
<path d="M84.3568 45.4772C84.3966 46.6013 84.0126 47.9637 83.8224 49.0704C83.4704 51.1184 83.1111 53.173 82.9499 55.2566C83.1125 56.1475 82.9323 56.9546 82.6075 57.7668C82.5845 60.3163 82.5928 62.8697 82.7603 65.4129C82.8602 66.9261 83.069 68.4307 83.168 69.9392C80.8282 70.7799 78.523 72.1041 76.249 73.1813C72.2205 75.1029 68.1662 76.9458 64.0861 78.7097C62.5791 79.3701 60.7124 80.5074 59.1585 80.84C59.1005 79.0814 59.0107 77.3278 59.1218 75.5692C59.2954 72.8213 59.8823 70.0357 61.288 67.7907C63.2746 64.6185 66.4585 62.4618 69.1066 60.1396C71.0567 58.4295 72.9562 56.6293 74.8678 54.8598C78.1241 51.846 81.2275 48.6703 84.3568 45.4772Z" fill="#FCE16B"/>
<path d="M82.6075 57.7668C82.1878 58.5481 81.6528 59.2813 80.9401 59.6995C80.2519 60.1034 79.3871 60.1715 78.6604 59.8712C78.0697 59.6272 77.6191 59.1325 77.3522 58.4662C76.9508 57.4646 76.9603 56.2373 77.2948 55.2132C77.6163 54.2286 78.2574 53.341 79.0842 52.9127C79.8085 52.5374 80.5878 52.5781 81.3122 52.9282C82.2645 53.3886 82.5674 54.2004 82.9499 55.2566C83.1125 56.1473 82.9322 56.9546 82.6075 57.7668Z" fill="white"/>
<path d="M76.0247 58.339C76.2684 58.5278 76.6127 60.177 77.7907 61.1976C76.3672 63.0903 74.4519 64.363 72.7185 65.8132C69.276 68.6928 65.7601 71.6753 62.1262 74.2058C61.6878 74.5548 61.2293 74.87 60.7771 75.1933C62.3455 72.5957 64.7036 70.3793 66.6964 68.238L76.0247 58.339Z" fill="white"/>
<path d="M58.1503 80.5235C58.1906 81.1716 58.2406 81.8187 58.3 82.4646C58.3595 83.1108 58.4285 83.7554 58.5071 84.3985C58.5857 85.0416 58.6737 85.683 58.7711 86.3227C58.8686 86.9623 58.9753 87.5996 59.0916 88.2349C59.2079 88.87 59.3336 89.5026 59.4686 90.1327C59.6037 90.7626 59.7478 91.3898 59.9014 92.0138C60.0549 92.638 60.2176 93.2586 60.3894 93.876C60.5613 94.4934 60.7421 95.107 60.9322 95.717C57.7326 96.9127 54.564 98.5143 51.4331 99.9521C48.1156 101.476 44.766 102.888 41.4291 104.35C39.4144 105.233 37.3835 106.212 35.3218 106.93C33.4212 101.238 32.1851 96.2012 32.7176 89.9551C32.7535 90.2781 32.7143 90.4387 32.9314 90.6523C33.0475 90.6658 33.1391 90.6804 33.2546 90.6481C33.713 90.5201 34.1797 90.2261 34.637 90.061C36.1906 89.5 37.7481 88.9843 39.2962 88.3957C43.2529 86.8454 47.2203 85.334 51.1984 83.8617C52.1099 83.5157 57.6684 81.5592 57.9302 81.3126C58.1403 81.1139 58.1166 80.8182 58.1503 80.5235Z" fill="#2EC5F5"/>
<path d="M49.0589 88.5367C49.1668 88.5269 49.2984 88.507 49.4047 88.53C49.6497 88.5833 49.7591 88.7991 49.8917 89.0214C49.9425 89.3837 49.9468 89.4687 49.8429 89.812C49.2534 90.4801 41.1224 93.9924 39.841 94.5985C39.4856 94.6225 39.3812 94.5554 39.1174 94.2971C39.0083 93.9708 38.9194 93.7283 39.0628 93.3813C39.2051 93.0377 39.5519 92.8206 39.8312 92.6557C40.6116 92.1949 41.4822 91.945 42.2955 91.5759L49.0589 88.5367Z" fill="white"/>
<path d="M50.6222 90.8335C50.8498 90.9157 50.9659 90.9703 51.103 91.2127C51.2499 91.4726 51.2459 91.7188 51.1833 92.0084C50.7445 92.735 41.0127 97.094 39.4844 97.6702C39.2932 97.6341 39.1309 97.5999 39.0061 97.4018C38.8444 97.1454 38.8603 96.9374 38.8827 96.6441C39.0127 96.3689 39.1273 96.2553 39.3644 96.1097C40.3451 95.5069 41.4922 95.1004 42.5272 94.6223C45.2245 93.3765 47.9736 92.2158 50.6222 90.8335Z" fill="#2A0F90"/>
<path d="M83.2239 69.9409C84.3924 69.2827 85.6862 68.8024 86.892 68.2312C87.6681 73.1004 88.7782 78.0771 90.2094 82.7371C88.7817 83.4349 87.3598 84.1489 85.9436 84.879C81.1102 87.377 76.1831 89.781 71.2812 92.0853C69.3522 92.9667 67.433 93.8773 65.5238 94.8171C64.496 95.3164 63.4448 95.7663 62.4629 96.3851C60.7988 91.3427 59.6904 86.2146 59.1582 80.84C60.7121 80.5074 62.5789 79.3701 64.0858 78.7098C68.1659 76.9458 72.2202 75.103 76.2487 73.1813C78.5227 72.1041 80.8279 70.7799 83.1677 69.9392L83.2239 69.9409Z" fill="#FABD5D"/>
<path d="M83.2239 69.9409C84.3923 69.2827 85.6862 68.8024 86.892 68.2312C87.668 73.1004 88.7782 78.0771 90.2094 82.7371C88.7816 83.4349 87.3598 84.1489 85.9436 84.879C85.5957 83.727 85.3731 82.4575 85.109 81.2725C84.2784 77.546 83.5369 73.7847 83.2239 69.9409Z" fill="#D96E31"/>
<path d="M155.845 19.2453C156.702 18.2151 161.209 13.1537 161.371 12.4857C161.381 12.6854 161.367 12.885 161.291 13.0669C160.967 13.8462 160.45 14.6069 160.043 15.3373C159.33 16.6226 158.628 17.9159 157.937 19.2178C154.818 25.0222 151.653 30.8295 148.328 36.4725C148.244 36.6165 148.218 36.5641 148.306 36.7229L148.558 36.7327L148.462 36.9876C148.164 37.0699 148.039 36.8963 147.79 36.7185C147.73 36.8866 147.735 36.8899 147.777 37.0673L147.937 36.881L147.902 37.0813C148.34 37.0633 148.94 36.9537 149.354 37.1007C150.542 37.0636 151.744 36.8478 152.925 36.6901C155.527 36.3428 158.121 35.9185 160.721 35.5515L165.817 34.852C166.745 34.7259 167.813 34.6853 168.704 34.364C168.673 34.6609 168.573 34.8373 168.414 35.0594C166.808 37.2909 165.029 39.3957 163.334 41.5349L155.96 50.914L152.642 55.1409C152.138 55.7843 151.611 56.6055 151.028 57.1393C150.984 57.1789 150.94 57.2173 150.895 57.2548C155.673 56.8467 160.503 56.8713 165.291 56.6796L172.242 56.4085C173.356 56.3694 174.527 56.2456 175.637 56.3223C175.607 56.4116 175.594 56.512 175.547 56.5902C175.358 56.9052 162.948 67.8744 162.177 68.2941C164.712 69.1927 167.189 70.3684 169.772 71.0557C171.773 71.5878 173.843 71.7083 175.835 72.2403C175.062 72.5035 173.976 72.3539 173.163 72.3402C172.422 72.357 171.685 72.5022 170.945 72.5551C169.16 72.6829 167.344 72.7433 165.555 72.7008L165.14 72.8515C165.062 73.0321 165.036 73.0771 164.894 73.1946C163.695 74.1846 162.298 74.9713 161.016 75.812C158.372 77.5481 155.707 79.2546 153.13 81.1292C152.085 81.8901 150.99 82.5753 149.955 83.3452C149.255 83.866 146.972 85.9375 146.303 86.1786C146.262 86.1936 146.219 86.2061 146.178 86.2199C146.186 86.1904 146.196 86.1615 146.203 86.1312C146.367 85.3299 146.109 84.0222 146.027 83.1724C145.761 80.2097 145.397 77.264 144.936 74.3349C144.474 71.4058 143.917 68.5025 143.263 65.6252C143.026 64.591 142.852 63.3539 142.425 62.4073C142.481 61.9524 142.333 61.6632 142.149 61.2834C142.235 60.2827 139.871 53.5283 139.471 52.3138C140.128 51.4034 143.23 47.7054 143.341 47.0567C142.68 47.7158 139.621 49.2486 138.646 49.8589C138.159 48.4532 137.567 47.1034 137.082 45.7036C136.987 45.4299 136.909 45.3103 137.008 45.0381C137.84 43.9524 144.245 36.2 144.332 35.5651C144.348 35.5223 144.376 35.4416 144.398 35.3973C144.828 34.5589 147.255 31.7163 147.975 30.7922C150.36 27.7296 152.671 24.6201 155.001 21.5004C155.54 20.7781 157.157 18.2756 157.79 18.0753L157.927 18.1963L157.872 18.7119C158.342 18.3822 159.773 15.348 160.161 14.5827L160.183 14.6569L159.952 14.7026L159.98 14.6808C159.268 15.5035 156.657 19.0326 155.907 19.2328C155.886 19.2381 155.865 19.2411 155.845 19.2453Z" fill="#FCE16B"/>
<path d="M166.467 71.8356C167.509 71.8453 172.447 71.9901 173.163 72.3404C172.422 72.3572 171.685 72.5024 170.946 72.5553C169.16 72.6831 167.344 72.7435 165.555 72.701C165.886 72.4843 166.276 72.2288 166.467 71.8356Z" fill="#E89839"/>
<path d="M155.845 19.2453C156.702 18.2151 161.209 13.1537 161.371 12.4857C161.381 12.6854 161.367 12.885 161.291 13.0669C160.967 13.8462 160.45 14.6069 160.043 15.3373C159.33 16.6226 158.628 17.9159 157.937 19.2178C154.818 25.0222 151.653 30.8295 148.328 36.4725C148.244 36.6165 148.218 36.5641 148.306 36.7229L148.558 36.7327L148.462 36.9876C148.164 37.0699 148.039 36.8963 147.79 36.7185C147.73 36.8866 147.735 36.8899 147.777 37.0673L147.937 36.881L147.902 37.0813C148.34 37.0633 148.94 36.9537 149.354 37.1007C148.936 37.4501 147.505 37.4078 146.963 37.4622C146.988 37.4401 147.014 37.4187 147.039 37.3958C147.32 37.1394 147.5 36.8369 147.695 36.4915C149.517 33.2656 151.178 29.9093 152.983 26.6675C153.888 25.0368 154.804 23.4154 155.733 21.8033C156.252 20.9069 156.836 20.0204 157.303 19.0883C157.416 18.8639 157.467 18.6338 157.49 18.3762C157.472 18.4376 157.447 18.542 157.42 18.6047C157.147 19.2387 145.655 34.4662 144.654 35.3851C144.548 35.4829 144.458 35.5153 144.331 35.5653C144.348 35.5225 144.375 35.4417 144.397 35.3975C144.827 34.5591 147.255 31.7165 147.974 30.7924C150.359 27.7298 152.671 24.6203 155.001 21.5006C155.539 20.7783 157.156 18.2758 157.79 18.0755L157.927 18.1965L157.872 18.712C158.342 18.3824 159.773 15.3482 160.161 14.5829L160.183 14.657L159.952 14.7028L159.979 14.681C159.268 15.5037 156.656 19.0328 155.906 19.2329C155.886 19.2381 155.865 19.2411 155.845 19.2453Z" fill="#2C3C97"/>
<path d="M137.008 45.0382C141.341 44.4054 145.693 43.2651 149.983 42.2862L153.994 41.3601C154.838 41.1749 155.75 41.0596 156.57 40.7729C156.548 40.9681 156.507 41.1262 156.406 41.287C155.526 42.6907 154.502 44.0206 153.568 45.38C151.686 48.1771 149.782 50.9527 147.855 53.7068C146.503 55.6391 143.945 59.6838 142.436 61.055C142.344 61.1384 142.248 61.2129 142.149 61.2837C142.235 60.2831 139.871 53.5286 139.471 52.3142C140.128 51.4037 143.23 47.7058 143.341 47.0571C142.68 47.7161 139.621 49.2489 138.646 49.8593C138.16 48.4536 137.567 47.1037 137.082 45.7039C136.987 45.43 136.909 45.3103 137.008 45.0382Z" fill="#FABD5D"/>
<path d="M142.425 62.4074C145.05 62.0575 147.766 62.0929 150.409 61.9518C153.277 61.7984 156.143 61.4848 159.01 61.3527C158.97 61.4903 158.942 61.5977 158.864 61.7128C158.1 62.8221 148.06 73.1046 147.225 73.6067C147.196 73.6234 147.167 73.6382 147.139 73.6546C147.115 73.669 147.09 73.6847 147.067 73.6994L158.103 73.0264C160.373 72.8897 162.88 72.5785 165.14 72.8515C165.062 73.0321 165.036 73.0771 164.894 73.1946C163.695 74.1846 162.298 74.9712 161.016 75.812C158.372 77.5481 155.707 79.2546 153.13 81.1292C152.085 81.8901 150.99 82.5753 149.955 83.3452C149.255 83.8659 146.972 85.9375 146.303 86.1786C146.261 86.1935 146.219 86.2061 146.178 86.2199C146.186 86.1904 146.196 86.1614 146.202 86.1312C146.367 85.3299 146.109 84.0222 146.027 83.1724C145.761 80.2097 145.397 77.264 144.936 74.3349C144.474 71.4058 143.917 68.5025 143.263 65.6252C143.027 64.591 142.852 63.354 142.425 62.4074Z" fill="#FABD5D"/>
<path d="M146.153 100.748C147.296 101.084 148.504 101.816 149.601 102.342C152.627 103.792 155.618 105.345 158.632 106.833C159.982 107.5 163.228 108.833 164.186 109.598L164.25 109.926C162.3 113.177 159.22 116.828 156.775 119.609C152.434 124.549 147.767 129.091 143.342 133.926C139.919 137.727 136.634 141.687 133.487 145.808C133.024 146.407 131.489 148.124 131.33 148.812L131.363 148.919C129.513 149.764 127.545 150.313 125.63 150.922C125.002 151.121 124.371 151.31 123.738 151.49C123.106 151.67 122.471 151.839 121.835 151.999C121.198 152.159 120.56 152.309 119.92 152.449C119.28 152.589 118.639 152.719 117.996 152.839C117.353 152.96 116.709 153.07 116.064 153.17C115.419 153.27 114.773 153.36 114.126 153.44C113.478 153.52 112.83 153.59 112.182 153.65C111.533 153.71 110.884 153.76 110.234 153.799C109.584 153.839 108.934 153.869 108.283 153.888C107.633 153.907 106.982 153.917 106.331 153.916C105.68 153.916 105.03 153.905 104.379 153.884C103.729 153.863 103.079 153.832 102.429 153.791C101.779 153.749 101.13 153.698 100.481 153.637C99.8323 153.575 99.1844 153.504 98.5372 153.423C97.8901 153.341 97.244 153.25 96.599 153.148C95.9539 153.046 95.3102 152.935 94.6676 152.813C93.4716 152.586 92.3121 152.219 91.1272 151.94C94.7559 147.456 98.6327 143.251 102.277 138.785C103.218 138.11 103.914 136.719 104.8 135.902C105.848 134.511 107.041 133.223 108.153 131.902C109.974 129.737 111.778 127.555 113.568 125.354C115.834 127.348 118.097 128.855 120.692 130.171C121.409 130.269 122.165 130.77 122.901 130.938C126.277 131.71 129.48 131.55 132.674 129.979C137.841 127.438 141.308 121.909 143.378 115.938C144.149 113.716 146.839 102.685 146.153 100.748Z" fill="#DABFE8"/>
<path d="M113.567 125.355C115.834 127.348 118.097 128.855 120.692 130.171C120.671 130.173 120.65 130.177 120.629 130.178C119.085 130.255 117.596 127.935 115.51 128.175C113.426 128.415 111.541 129.045 109.79 130.441C108.863 131.181 105.316 135.838 104.8 135.902C105.847 134.512 107.04 133.223 108.153 131.902C109.974 129.738 111.778 127.555 113.567 125.355Z" fill="white"/>
<path d="M92.83 24.2875C94.4082 20.7628 96.9179 17.6415 99.9899 15.9272C100.095 15.8683 100.2 15.811 100.306 15.7553C100.413 15.6994 100.519 15.6451 100.626 15.5924C100.734 15.5396 100.841 15.4885 100.95 15.4387C101.058 15.3891 101.166 15.341 101.276 15.2945C101.385 15.248 101.495 15.203 101.605 15.1597C101.715 15.1163 101.826 15.0744 101.937 15.0342C102.048 14.994 102.159 14.9555 102.271 14.9184C102.383 14.8813 102.495 14.8461 102.608 14.8123C102.72 14.7786 102.833 14.7465 102.946 14.7159C103.059 14.6854 103.173 14.6565 103.287 14.6292C103.401 14.6019 103.515 14.5762 103.629 14.5523C103.744 14.5283 103.858 14.506 103.973 14.4853C104.088 14.4646 104.203 14.4456 104.318 14.4281C104.433 14.4108 104.549 14.3949 104.664 14.3809C104.78 14.3669 104.895 14.3545 105.011 14.3436C105.127 14.3329 105.243 14.3239 105.359 14.3165C105.475 14.3091 105.591 14.3034 105.707 14.2994C105.823 14.2953 105.939 14.2929 106.055 14.2922C106.171 14.2914 106.288 14.2924 106.404 14.2949C106.52 14.2975 106.636 14.3018 106.752 14.3079C106.868 14.3138 106.984 14.3213 107.1 14.3307C107.216 14.34 107.331 14.351 107.447 14.3636C107.563 14.3761 107.678 14.3905 107.794 14.4064C107.909 14.4222 108.024 14.4399 108.139 14.4591C108.254 14.4783 108.369 14.4993 108.484 14.5218C108.598 14.5443 108.712 14.5685 108.827 14.5943C108.941 14.6201 109.054 14.6476 109.168 14.6768C109.281 14.7059 109.395 14.7365 109.508 14.769C109.62 14.8013 109.733 14.8354 109.845 14.8708C109.957 14.9064 110.069 14.9437 110.18 14.9824C110.292 15.0211 110.403 15.0615 110.513 15.1036C110.624 15.1456 110.734 15.1892 110.844 15.2344C118.613 18.1509 124.134 24.7615 128.816 32.361C129.92 34.1275 130.963 35.9423 131.945 37.8057C132.928 39.669 133.847 41.5748 134.703 43.5232C135.039 44.294 135.368 45.0694 135.689 45.8493C136.01 46.6292 136.324 47.4131 136.63 48.2014C136.936 48.9898 137.234 49.7822 137.525 50.5787C137.815 51.3751 138.097 52.1753 138.372 52.9795C138.648 53.7837 138.915 54.5916 139.173 55.403C139.432 56.2144 139.684 57.0292 139.927 57.8474C140.17 58.6656 140.405 59.4872 140.632 60.3117C140.859 61.1364 141.078 61.964 141.29 62.7946C141.501 63.6252 141.703 64.4586 141.898 65.2947C142.093 66.1308 142.279 66.9695 142.457 67.8108C142.636 68.6519 142.806 69.4956 142.967 70.3415C143.129 71.1872 143.283 72.0351 143.429 72.8853C143.573 73.7352 143.71 74.587 143.839 75.4409C143.968 76.2945 144.088 77.15 144.199 78.007C144.312 78.864 144.416 79.7224 144.511 80.5821C144.606 81.442 144.692 82.3031 144.771 83.1652C144.893 84.6536 145.313 87.5493 144.954 88.8886C145.206 89.8573 145.146 95.7056 144.738 96.5653C144.72 96.6019 144.701 96.6364 144.682 96.672C144.956 97.4063 144.518 101.717 144.228 102.561C144.188 102.678 144.142 102.789 144.09 102.899C144.359 103.692 143.496 107.731 143.208 108.571C143.177 108.658 143.139 108.743 143.1 108.824C143.107 108.851 143.118 108.876 143.122 108.904C143.326 110.248 140.718 115.943 139.94 117.26C137.713 121.023 134.444 123.967 130.541 124.755C125.524 125.767 120.119 122.827 116.137 119.481C105.227 110.314 97.647 95.9544 93.0199 81.3277C92.1788 78.6694 91.3667 76.0276 90.7476 73.2811C88.4485 63.0803 87.5776 51.8752 88.788 41.3949C89.2961 36.995 90.3511 32.7854 91.5905 28.6125C91.9495 27.4035 93.0474 25.6298 92.8481 24.3875C92.8431 24.3535 92.8361 24.3207 92.83 24.2875Z" fill="#2EC5F5"/>
<path d="M143.101 108.824C143.093 108.562 143.12 108.361 143.178 108.109C143.182 108.088 143.187 108.067 143.193 108.045C142.795 108.141 142.374 108.295 141.969 108.214C141.667 107.483 142.948 100.597 143.102 99.2725C143.274 97.8421 143.382 96.405 143.426 94.9613C143.961 96.4357 143.009 102.652 143.763 103.381L144.035 103.351C144.108 103.176 144.109 103.091 144.09 102.899C144.359 103.691 143.496 107.731 143.208 108.571C143.178 108.657 143.139 108.742 143.101 108.824Z" fill="#42D8F5"/>
<path d="M143.608 86.0724C144.925 87.873 143.628 96.0136 144.542 96.8142L144.558 96.1997C144.672 96.5343 144.535 96.9206 144.816 97.0693L144.675 96.9763L144.641 96.7086L144.691 96.9359L144.761 96.8367L144.686 96.7168L144.682 96.6714C144.957 97.4057 144.518 101.717 144.229 102.56C144.189 102.677 144.142 102.789 144.09 102.898C144.109 103.09 144.108 103.176 144.035 103.351L143.763 103.381C143.009 102.652 143.961 96.4355 143.426 94.9611C143.44 94.9318 143.455 94.9038 143.466 94.873C143.845 93.7985 143.882 87.1103 143.608 86.0724Z" fill="#6ADAD4"/>
<path d="M104.875 15.4907C106.85 15.1379 108.869 15.6431 110.79 16.1356C107.977 16.2595 105.469 16.0375 102.833 17.4838C97.7026 20.2985 94.499 26.3805 92.6267 32.4361C92.1419 34.0485 91.8424 35.7097 91.3304 37.315L91.2922 37.2422C91.6811 35.8497 91.7974 34.3101 92.0948 32.8811C92.9755 28.6518 94.523 24.4885 96.8234 21.059C98.9786 17.8458 101.372 15.9762 104.875 15.4907Z" fill="white"/>
<path d="M117.213 117.303C116.789 117.298 116.297 116.842 115.961 116.569C105.069 107.704 96.17 84.3055 93.8362 69.222C92.1357 58.2316 91.2342 46.3945 94.5358 35.6756C95.1932 33.5413 95.9329 31.4797 97.0365 29.6091C97.4316 28.9396 98.3016 27.4034 98.9623 27.2646C98.2181 28.5653 97.4959 29.8679 96.9101 31.2801C92.3722 42.2161 92.7584 56.5946 94.6788 68.2931C97.5875 86.0106 105.499 105.424 117.213 117.303Z" fill="white"/>
<path d="M110.844 15.2344C118.614 18.1509 124.135 24.7615 128.817 32.361C129.92 34.1275 130.963 35.9423 131.945 37.8057C132.928 39.669 133.847 41.5748 134.703 43.5232C135.039 44.294 135.368 45.0694 135.69 45.8493C136.011 46.6292 136.324 47.4131 136.63 48.2014C136.936 48.9898 137.235 49.7822 137.525 50.5787C137.815 51.3751 138.098 52.1753 138.373 52.9795C138.648 53.7837 138.915 54.5916 139.173 55.403C139.433 56.2144 139.684 57.0292 139.928 57.8474C140.17 58.6656 140.405 59.4872 140.632 60.3117C140.859 61.1364 141.079 61.964 141.29 62.7946C141.501 63.6252 141.704 64.4586 141.899 65.2947C142.093 66.1308 142.279 66.9695 142.458 67.8108C142.636 68.6519 142.806 69.4956 142.967 70.3415C143.13 71.1872 143.283 72.0351 143.429 72.8853C143.574 73.7352 143.711 74.587 143.84 75.4409C143.968 76.2945 144.088 77.15 144.2 78.007C144.312 78.864 144.416 79.7224 144.512 80.5821C144.606 81.4421 144.692 82.3031 144.771 83.1652C144.893 84.6536 145.314 87.5493 144.954 88.8886C145.207 89.8573 145.146 95.7056 144.738 96.5653C144.72 96.6019 144.701 96.6364 144.682 96.672L144.686 96.7173L144.761 96.8372L144.691 96.9365L144.641 96.7092L144.675 96.9769L144.816 97.0698C144.535 96.9212 144.672 96.5349 144.558 96.2003L144.542 96.8147C143.628 96.0142 144.925 87.8736 143.608 86.0729C143.632 85.9975 143.668 85.9054 143.682 85.8234C143.925 84.4652 142.992 78.0861 142.738 76.3124C142.515 74.7313 142.264 73.1562 141.985 71.5873C141.708 70.0183 141.403 68.4566 141.072 66.9022C140.74 65.3478 140.382 63.8021 139.996 62.2651C139.611 60.7278 139.2 59.2006 138.762 57.6832C135.351 46.1518 129.354 33.4362 121.992 24.823C119.733 22.1798 117.117 19.7306 114.419 17.7404C113.654 17.1739 112.853 16.6875 112.018 16.2813C111.717 16.1393 111.044 15.9731 110.812 15.7403C110.755 15.6833 110.729 15.593 110.688 15.5194L110.844 15.2344Z" fill="white"/>
<path d="M98.9624 27.2648C101.177 23.9313 103.555 21.2034 107.34 20.696C111.548 20.132 115.734 22.6326 118.918 25.6602C131.648 37.7651 140.226 63.2996 141.918 82.1671C142.892 93.0268 142.671 109.103 136.618 117.924C134.801 120.572 132.325 122.522 129.401 122.892C126.094 123.31 122.665 121.689 119.948 119.585C119.02 118.866 118.154 117.986 117.213 117.303C105.499 105.424 97.5876 86.0104 94.6791 68.2932C92.7587 56.5946 92.3725 42.2161 96.9104 31.2801C97.496 29.8681 98.2183 28.5655 98.9624 27.2648Z" fill="#2A0F90"/>
<path d="M121.798 63.0516C122.19 59.1207 123.833 54.9793 125.624 51.6823C125.659 52.8779 125.422 54.1829 125.289 55.3724L124.53 62.1715C123.348 62.0596 122.789 62.3329 121.798 63.0516Z" fill="#638E8E"/>
<path d="M140.212 82.0404C140.223 81.6058 140.242 81.1766 140.275 80.7435C140.324 80.8638 140.352 80.9627 140.37 81.0949C140.412 81.4092 140.452 81.6143 140.598 81.8862C140.61 81.9104 140.624 81.934 140.638 81.9578C140.906 83.1707 140.954 84.572 141.042 85.8291C141.103 86.648 141.151 87.4681 141.187 88.2893C141.223 89.1105 141.246 89.9322 141.256 90.7545C141.265 91.5766 141.261 92.3987 141.245 93.2208C141.229 94.0429 141.199 94.8643 141.157 95.6849C141.115 96.5058 141.06 97.3253 140.991 98.1435C140.922 98.9619 140.841 99.7783 140.746 100.593C140.652 101.408 140.544 102.22 140.424 103.03C140.304 103.84 140.171 104.647 140.025 105.451C139.68 107.397 139.268 109.525 138.537 111.325C138.535 111.298 138.529 111.271 138.528 111.244C138.432 110.244 139.441 109.115 139.059 108.21L138.851 108.073L138.781 108.254L138.702 108.058C138.445 108.112 138.245 108.157 138.084 108.417C137.557 109.278 136.704 113.33 135.863 113.541C135.843 113.546 135.822 113.546 135.801 113.548C137.999 109.177 139.256 104.077 139.691 99.0341C140.209 97.8676 140.334 96.3757 140.448 95.0862C140.844 90.6178 140.495 86.4815 140.212 82.0404Z" fill="#42D8F5"/>
<path d="M115.718 88.0019C118.542 87.5762 121.41 87.346 124.247 87.0339C124.248 88.4195 124.234 89.8085 124.271 91.1932C121.898 91.439 118.654 91.6331 116.396 92.203L116.334 92.1689C116.06 90.9338 115.901 89.6297 115.697 88.3731L115.718 88.0019Z" fill="#638E8E"/>
<path d="M101.603 89.5482C106.303 88.9795 111.016 88.6019 115.718 88.0017L115.697 88.373C115.901 89.6295 116.06 90.9336 116.334 92.1689C115.831 92.2613 115.328 92.3465 114.823 92.4247L114.794 92.5057C113.08 92.7684 104.935 94.4788 103.978 95.089C103.013 93.4912 102.33 91.3212 101.603 89.5482Z" fill="#2C3C97"/>
<path d="M114.823 92.4247C115.088 91.0638 115.349 89.7085 115.697 88.373C115.901 89.6295 116.06 90.9336 116.334 92.1689C115.831 92.2613 115.328 92.3465 114.823 92.4247Z" fill="#3956B6"/>
<path d="M126.625 81.1925C123.98 77.9179 122.197 73.4643 121.667 68.9887C121.489 67.4902 121.398 65.6337 122.237 64.3698C122.534 63.9242 123.009 63.4736 123.5 63.4212C124.093 63.3578 124.738 63.6001 125.203 64.0279C127.27 65.8121 128.049 68.6112 128.424 71.4868C128.476 71.8944 128.523 72.3028 128.564 72.7121C128.753 73.9699 128.743 75.3695 128.6 76.6365C128.394 78.4648 127.889 80.0476 126.625 81.1925Z" fill="#D8288A"/>
<path d="M125.204 64.0276C127.27 65.8119 128.049 68.6109 128.425 71.4866C128.477 71.8942 128.523 72.3026 128.564 72.7119C128.283 73.0336 127.964 73.3089 127.565 73.3711C127.007 73.4578 126.462 73.1535 126.029 72.763C124.708 71.5731 123.9 69.3901 123.694 67.4874C123.593 66.5517 123.56 65.3057 124.109 64.5353C124.414 64.106 124.764 64.0791 125.204 64.0276Z" fill="white"/>
<path d="M103.979 95.089C104.936 94.4788 113.08 92.7684 114.794 92.5057C113.872 98.3378 112.815 104.126 112.332 110.04C111.595 109.099 110.953 108.008 110.293 106.989C107.805 103.145 105.857 99.3873 103.979 95.089Z" fill="#3956B6"/>
<path d="M121.272 80.8741C121.502 80.8195 121.651 80.7181 121.859 80.8968C122.11 81.1137 122.259 81.5302 122.495 81.7888C123.022 82.3639 123.715 82.8795 124.324 83.3308C125.091 83.9002 126.544 84.5478 127.063 85.4164C118.514 86.8188 109.849 87.3006 101.282 88.5763C100.618 86.8727 100.039 85.1058 99.425 83.3751C104.662 82.9474 109.893 82.4337 115.119 81.8336C116.668 81.6562 119.914 81.5232 121.272 80.8741Z" fill="#DA9975"/>
<path d="M95.1427 64.6589L101.376 61.7867C101.259 62.3014 101.147 62.8186 101.005 63.3243C100.592 67.7532 100.886 71.5858 102.712 75.5593L102.98 76.215C104.108 77.9815 105.263 79.5143 106.632 81.0228C110.72 80.6295 114.772 79.8113 118.863 79.3745C120.042 79.2487 121.284 78.991 122.462 79.0366C123.716 80.785 126.828 84.6812 128.682 85.2521C128.136 85.1945 127.6 85.298 127.063 85.4163C126.544 84.5477 125.091 83.9001 124.324 83.3307C123.715 82.8793 123.022 82.3637 122.495 81.7886C122.259 81.53 122.11 81.1135 121.859 80.8966C121.651 80.7179 121.502 80.8193 121.272 80.8739C118.622 80.8297 115.958 81.0988 113.314 81.2897C108.592 81.6383 103.873 82.0432 99.157 82.5047C97.3208 76.668 95.9589 70.8076 95.1427 64.6589Z" fill="url(#paint5_linear_115_10)"/>
<path d="M103.408 78.3067C103.472 78.3358 103.536 78.3663 103.6 78.398C104.021 78.6098 104.177 78.7715 104.348 79.2769C104.236 79.1784 104.282 79.2116 104.171 79.1384C103.794 78.8905 103.571 78.7815 103.408 78.3067Z" fill="#DA9975"/>
<path d="M101.69 79.3679C101.87 79.3551 102.043 79.3876 102.221 79.4156L102.268 79.5863L101.967 80.0644C101.916 80.0712 101.782 80.0114 101.729 79.9937C101.585 79.7104 101.631 79.6787 101.69 79.3679Z" fill="#DA9975"/>
<path d="M97.1644 65.7355C97.2433 65.6114 97.3257 65.4913 97.408 65.3705C98.2142 64.1887 99.6665 63.9679 100.821 63.5158L100.902 63.2006L101.005 63.3245C100.592 67.7534 100.886 71.586 102.712 75.5595L102.98 76.2152C102.96 76.2074 102.938 76.2037 102.92 76.1918C102.806 76.1182 102.751 76.0501 102.622 75.9975C102.375 76.8825 102.126 76.6889 101.511 77.1446C101.299 77.302 101.179 77.4241 101.128 77.7109C101.305 77.9708 101.623 78.0199 101.884 78.1058C101.895 78.3405 101.849 78.5065 101.773 78.7217C101.62 79.1574 101.442 79.5162 101.057 79.7012C100.417 79.613 100.812 78.6631 100.581 78.1138C100.375 77.6231 99.7484 77.5849 99.4478 77.1705C98.916 76.4371 99.192 75.612 99.0137 74.7836C98.8352 73.954 98.2333 73.2743 97.9588 72.4769C97.6915 71.7009 97.7902 70.7742 97.6234 69.9585C97.4868 69.291 97.1258 68.6325 97.041 67.967C96.9555 67.2958 97.1086 66.4165 97.1644 65.7355Z" fill="#DA9975"/>
<path d="M116.334 92.1689L116.396 92.203C116.738 94.3548 117.352 96.4419 117.983 98.4947C120.117 105.43 123.338 112.861 128.645 117.139C130.507 118.64 132.328 119.178 134.563 118.897C134.411 119.073 134.256 119.246 134.099 119.415C132.432 121.202 130.357 122.181 128.097 122.041C121.843 121.654 116.232 115.211 112.332 110.04C112.815 104.126 113.871 98.3377 114.794 92.5059L114.823 92.4249C115.328 92.3465 115.831 92.2613 116.334 92.1689Z" fill="#3494E8"/>
<path d="M124.271 91.1931L124.325 91.2125C124.496 96.1372 126.234 102.112 129.369 105.496C130.734 106.968 132.276 107.959 134.109 108.289C134.573 108.373 135.134 108.319 135.549 108.574C135.4 109.611 134.696 113.581 135.022 114.287C135.328 114.236 135.592 113.804 135.801 113.549C135.822 113.546 135.843 113.547 135.863 113.542C136.704 113.33 137.557 109.278 138.084 108.418C138.245 108.157 138.446 108.113 138.702 108.058L138.781 108.254L138.851 108.073L139.06 108.211C139.441 109.116 138.432 110.244 138.528 111.244C138.529 111.272 138.535 111.299 138.538 111.326C137.895 114.051 136.338 117.001 134.563 118.897C132.328 119.178 130.507 118.64 128.645 117.139C123.338 112.861 120.118 105.43 117.984 98.4947C117.352 96.4417 116.738 94.3547 116.396 92.203C118.654 91.6331 121.898 91.439 124.271 91.1931Z" fill="#2EC5F5"/>
<path d="M131.738 111.287C131.853 111.279 131.968 111.276 132.083 111.279C132.705 111.292 133.243 111.573 133.661 112.119C133.894 112.424 134.03 112.806 134.002 113.221C133.964 113.764 133.699 114.055 133.373 114.385C133.265 114.405 133.159 114.415 133.05 114.417C132.533 114.424 132.07 114.087 131.711 113.667C131.401 113.304 131.178 112.79 131.2 112.264C131.221 111.799 131.458 111.568 131.738 111.287Z" fill="white"/>
<path d="M127.764 105.825C128.112 105.795 128.425 105.806 128.764 105.923C129.736 106.257 130.65 107.159 131.116 108.217C131.374 108.802 131.528 109.461 131.332 110.105C131.15 110.703 130.829 110.976 130.374 111.252C130.048 111.269 129.731 111.28 129.411 111.191C128.479 110.933 127.577 110.078 127.077 109.129C126.776 108.557 126.58 107.867 126.73 107.195C126.887 106.488 127.253 106.157 127.764 105.825Z" fill="white"/>
<path d="M124.688 51.3264C124.355 51.9633 124.044 52.62 123.724 53.2659C121.03 59.3193 119.554 65.9661 121.327 72.6908C122.526 77.2419 125.486 82.5019 128.936 85.0446C128.853 85.1149 128.771 85.1949 128.682 85.2523C126.828 84.6812 123.715 80.7852 122.462 79.0368C121.284 78.9914 120.042 79.2489 118.863 79.3747C114.772 79.8115 110.72 80.6297 106.632 81.023C105.263 79.5145 104.108 77.9819 102.98 76.2152L102.712 75.5595C100.886 71.586 100.592 67.7534 101.005 63.3245C101.147 62.8187 101.259 62.3015 101.376 61.7869C109.093 58.134 116.864 54.6473 124.688 51.3264Z" fill="#FCE16B"/>
<path d="M102.447 63.0287C103.45 62.624 104.424 62.0793 105.406 61.6056L111.457 58.6424C113.108 57.8245 114.812 57.1739 116.461 56.3609C118.531 55.3401 120.932 53.9663 123.08 53.2844C123.317 53.2091 123.485 53.1722 123.724 53.2658C121.03 59.3191 119.554 65.9659 121.327 72.6907C122.527 77.2417 125.486 82.5017 128.936 85.0444C128.854 85.1147 128.771 85.1947 128.682 85.2521C126.828 84.681 123.715 80.785 122.462 79.0366C120.795 76.1967 119.817 73.4823 119.294 70.0925C118.691 65.1504 119.215 60.6797 121.157 56.229C119.586 56.9404 118.068 57.8287 116.511 58.5863C111.766 60.8949 106.944 63.1688 102.044 64.9706L102.447 63.0287Z" fill="white"/>
<path d="M102.712 75.5595C105.481 74.6883 108.295 74.0672 111.061 73.1466C113.831 72.2247 116.526 71.0134 119.294 70.0925C119.817 73.4823 120.795 76.1967 122.462 79.0366C121.284 78.9912 120.042 79.2487 118.863 79.3745C114.772 79.8113 110.72 80.6295 106.632 81.0228C105.263 79.5143 104.108 77.9817 102.98 76.215L102.712 75.5595Z" fill="#FABD5D"/>
<path d="M94.9189 63.6158C94.8432 61.5333 94.526 59.4466 94.3992 57.3628C94.3412 56.3196 94.3043 55.2752 94.2887 54.2297C94.2731 53.1842 94.2785 52.1391 94.3054 51.094C94.3323 50.0489 94.3804 49.0053 94.4497 47.9629C94.5189 46.9206 94.6094 45.8806 94.721 44.8435C95.4894 37.4902 97.6905 28.9457 102.877 24.2235C104.972 22.3164 107.525 21.5604 110.142 21.9857C114.165 22.6398 119.287 26.7005 121.694 30.4753C123.949 33.3421 125.901 36.3542 127.741 39.6021C125.746 40.3017 123.884 39.444 121.917 39.1826C121.079 39.0712 120.293 39.1225 119.462 39.2479C116.779 40.1407 115.122 41.9796 113.775 44.811C112.523 47.4439 110.809 53.3755 110.628 56.2794C108.119 57.394 105.663 58.6606 103.159 59.7817L103.02 59.8557C100.357 61.1897 97.5952 62.2934 94.9189 63.6158Z" fill="#2C3C97"/>
<path d="M100.886 27.7036C101.639 27.2349 102.407 26.8927 103.244 26.6972C107.435 25.7188 112.386 28.2979 115.805 30.9654C110.201 34.3295 107.431 41.3265 105.569 48.0696C104.512 51.8973 103.647 55.792 103.159 59.7821L103.02 59.8561L102.791 59.7133C100.335 53.6705 99.4758 43.6757 99.7512 36.9729C99.8142 35.4102 99.9404 33.8545 100.13 32.3062C100.319 30.7575 100.571 29.2235 100.886 27.7036Z" fill="#3956B6"/>
<path d="M115.805 30.9652C117.781 30.0953 119.627 29.8244 121.694 30.4755C123.949 33.3423 125.901 36.3544 127.741 39.6022C125.746 40.3019 123.884 39.4442 121.917 39.1828C121.079 39.0714 120.293 39.1227 119.462 39.2481C116.78 40.1408 115.122 41.9798 113.775 44.8112C112.523 47.4441 110.81 53.3757 110.628 56.2795C108.119 57.3942 105.663 58.6608 103.159 59.7819C103.647 55.7917 104.512 51.8971 105.569 48.0694C107.431 41.3263 110.201 34.3295 115.805 30.9652Z" fill="#3494E8"/>
<path d="M119.463 39.2481C120.293 39.1227 121.079 39.0714 121.917 39.1828C123.884 39.4442 125.746 40.3017 127.741 39.6022C129.247 41.9835 130.469 44.6985 131.616 47.3435C135.541 56.4009 137.95 65.1648 139.69 75.1262C140.062 77.2583 140.712 79.7893 140.638 81.9581C140.624 81.9343 140.61 81.9105 140.598 81.8866C140.452 81.6147 140.413 81.4096 140.37 81.0953C140.352 80.963 140.325 80.8641 140.275 80.7439C140.242 81.177 140.223 81.6062 140.212 82.0408C140.495 86.4818 140.844 90.6182 140.448 95.0866C140.335 96.3761 140.21 97.8679 139.692 99.0344C139.256 104.078 137.999 109.177 135.801 113.549C135.592 113.804 135.328 114.236 135.022 114.287C134.696 113.581 135.4 109.611 135.549 108.574C135.134 108.319 134.573 108.372 134.109 108.289C132.276 107.959 130.734 106.968 129.369 105.496C126.234 102.112 124.496 96.1372 124.325 91.2125L124.271 91.1931C124.234 89.8083 124.248 88.4195 124.247 87.0339C125.755 86.8231 127.274 86.6069 128.789 86.4763C129.633 86.2797 130.5 86.3603 131.333 86.0689C131.516 85.8516 131.516 85.7606 131.575 85.4694C131.252 84.9651 130.034 84.4023 129.524 84.0552C128.755 83.5317 128.084 82.8952 127.411 82.2155C127.989 81.5962 128.422 80.8879 128.761 80.0597C130.163 76.6396 129.878 71.8501 128.855 68.3295C128.059 65.5889 126.748 63.4439 124.53 62.1717L125.289 55.3726C125.422 54.183 125.659 52.878 125.624 51.6824C125.818 51.2484 125.993 50.9105 125.959 50.4043C125.852 50.1369 125.805 50.0078 125.554 49.8923C125.312 49.7811 125.07 49.8971 124.834 49.9829C122.222 50.933 119.363 52.3577 116.78 53.5299C114.742 54.4547 112.633 55.2737 110.629 56.2799C110.81 53.3761 112.523 47.4446 113.776 44.8116C115.122 41.98 116.78 40.141 119.463 39.2481Z" fill="#6ADAD4"/>
<path d="M124.246 87.0339C125.755 86.8231 127.274 86.6069 128.789 86.4763C129.041 87.2425 132.634 89.4349 133.476 89.9837C131.234 90.4642 128.896 90.6143 126.63 90.9021C125.879 90.9974 125.063 91.0286 124.325 91.2125L124.271 91.1932C124.234 89.8083 124.248 88.4195 124.246 87.0339Z" fill="#74BC9E"/>
<path d="M119.463 39.2481C120.293 39.1227 121.079 39.0714 121.917 39.1828C123.884 39.4442 125.746 40.3017 127.741 39.6022C129.247 41.9835 130.469 44.6985 131.616 47.3435C135.541 56.4009 137.95 65.1648 139.69 75.1262C140.062 77.2583 140.712 79.7893 140.638 81.9581C140.624 81.9343 140.61 81.9106 140.598 81.8866C140.452 81.6147 140.412 81.4096 140.37 81.0953C140.352 80.963 140.325 80.8642 140.275 80.7439C140.242 81.177 140.223 81.6062 140.212 82.0408C138.998 72.6619 135.19 54.8576 130.452 47.3686C129.406 45.7165 124.599 40.1213 123.11 39.5899C121.958 39.1785 120.735 39.4833 119.561 39.2676L119.463 39.2481Z" fill="url(#paint6_linear_115_10)"/>
<path d="M135.549 108.573C137.358 95.4131 137.429 86.8972 135.625 73.6854C135.369 71.7771 135.06 69.8805 134.698 67.9962C134.393 66.4156 134.004 64.8188 133.844 63.2074C137.793 74.5273 139.57 86.8358 139.691 99.0342C139.256 104.078 137.999 109.177 135.801 113.548C135.592 113.804 135.328 114.236 135.021 114.286C134.695 113.581 135.4 109.611 135.549 108.573Z" fill="white"/>
<defs>
<linearGradient id="paint0_linear_115_10" x1="107.285" y1="124.563" x2="129.063" y2="34.0972" gradientUnits="userSpaceOnUse">
<stop stop-color="#117FE9"/>
<stop offset="1" stop-color="#02A8F6"/>
</linearGradient>
<linearGradient id="paint1_linear_115_10" x1="161.952" y1="58.617" x2="166.469" y2="87.8048" gradientUnits="userSpaceOnUse">
<stop stop-color="#F69312"/>
<stop offset="1" stop-color="#D36420"/>
</linearGradient>
<linearGradient id="paint2_linear_115_10" x1="82.9992" y1="131.012" x2="103.165" y2="115.548" gradientUnits="userSpaceOnUse">
<stop stop-color="#8568E2"/>
<stop offset="1" stop-color="#E6B2EC"/>
</linearGradient>
<linearGradient id="paint3_linear_115_10" x1="110.38" y1="122.232" x2="80.2746" y2="143.547" gradientUnits="userSpaceOnUse">
<stop stop-color="#FCFADB"/>
<stop offset="1" stop-color="#E2B2F3"/>
</linearGradient>
<linearGradient id="paint4_linear_115_10" x1="104.881" y1="133.182" x2="113.896" y2="126.273" gradientUnits="userSpaceOnUse">
<stop stop-color="#BD93EC"/>
<stop offset="1" stop-color="#EBC0EF"/>
</linearGradient>
<linearGradient id="paint5_linear_115_10" x1="124.257" y1="70.6796" x2="97.489" y2="76.5942" gradientUnits="userSpaceOnUse">
<stop stop-color="#FAB961"/>
<stop offset="1" stop-color="#D4947A"/>
</linearGradient>
<linearGradient id="paint6_linear_115_10" x1="136.2" y1="58.8275" x2="128.604" y2="60.4022" gradientUnits="userSpaceOnUse">
<stop stop-color="#4E97AC"/>
<stop offset="1" stop-color="#39BFE1"/>
</linearGradient>
</defs>
</svg>
