<svg width="204" height="204" viewBox="0 0 204 204" fill="none" xmlns="http://www.w3.org/2000/svg">
<path d="M83.9952 21.3962C83.9952 21.3962 29.7829 23.7522 26.7071 71.4309C23.6312 119.11 9.40524 164.474 44.0089 167.182C78.6124 169.89 159.739 175.15 171.273 146.745C182.808 118.34 188.575 11.394 83.9952 21.3962Z" fill="#F4F7FA"/>
<path d="M93.0571 163.394C92.1689 158.915 91.5162 151.898 94.9798 145.493C101.022 134.318 112.792 137.584 123.571 125.475C132.264 115.708 129.194 108.431 138.961 101.813C140.596 100.705 149.227 94.6205 155.895 97.906C159.653 99.7573 161.121 103.758 161.396 104.509C165.561 115.859 154.45 134.193 139.483 142.894C130.884 147.894 128.012 146.441 112.789 152.438C103.845 155.962 97.1841 160.344 93.0571 163.394Z" fill="url(#paint0_linear_117_165)"/>
<mask id="mask0_117_165" style="mask-type:luminance" maskUnits="userSpaceOnUse" x="92" y="96" width="71" height="68">
<path d="M93.0571 163.394C92.1689 158.915 91.5162 151.898 94.9798 145.493C101.022 134.318 112.792 137.584 123.571 125.475C132.264 115.708 129.194 108.431 138.961 101.813C140.596 100.705 149.227 94.6205 155.895 97.906C159.653 99.7573 161.121 103.758 161.396 104.509C165.561 115.859 154.45 134.193 139.483 142.894C130.884 147.894 128.012 146.441 112.789 152.438C103.845 155.962 97.1841 160.344 93.0571 163.394Z" fill="white"/>
</mask>
<g mask="url(#mask0_117_165)">
<path d="M91.9341 168.854L91.7331 168.819C93.6302 157.981 97.6515 150.61 103.685 146.913C106.64 145.102 109.026 144.754 111.553 144.386C114.266 143.991 117.071 143.582 120.715 141.217C124.255 138.918 125.483 136.774 127.037 134.059C128.437 131.614 130.179 128.572 134.176 124.465C137.679 120.865 140.259 119.151 142.535 117.638C144.998 116.001 146.944 114.708 149.145 111.624C152.741 106.585 154.501 100.215 154.377 92.6902L154.581 92.6866C154.706 100.256 152.934 106.667 149.311 111.742C147.088 114.857 145.129 116.16 142.648 117.808C140.381 119.315 137.81 121.023 134.322 124.607C130.343 128.695 128.608 131.726 127.214 134.16C125.647 136.899 124.408 139.062 120.826 141.388C117.145 143.778 114.317 144.19 111.582 144.588C109.077 144.953 106.711 145.298 103.792 147.087C97.8103 150.752 93.8209 158.076 91.9341 168.854Z" fill="white"/>
<path d="M141.465 118.487L141.504 118.356C141.549 118.204 145.898 103.124 140.207 97.1337L140.354 96.993C145.84 102.766 142.156 116.772 141.737 118.282C149.912 118.234 155.888 114.947 159.468 112.189C163.367 109.185 165.34 106.149 165.36 106.118L165.531 106.228C165.512 106.259 163.52 109.325 159.592 112.351C155.967 115.143 149.904 118.474 141.602 118.487L141.465 118.487Z" fill="white"/>
<path d="M142.382 131.197C141.556 131.197 140.774 131.169 140.043 131.122C134.298 130.754 130.358 129.166 130.319 129.15L130.238 129.117L130.258 129.032C132.159 121.179 129.908 110.162 129.885 110.052L130.085 110.01C130.108 110.121 132.352 121.102 130.478 128.993C131.068 129.22 134.804 130.583 140.064 130.919C145.334 131.256 153.255 130.601 161.069 125.57L161.179 125.742C154.401 130.107 147.542 131.197 142.382 131.197Z" fill="white"/>
<path d="M135.666 149.592C128.989 149.592 123.757 148.313 120.395 147.158C116.248 145.734 113.97 144.185 113.948 144.17L113.859 144.109L113.925 144.023C119.602 136.623 116.918 124.779 116.891 124.66L117.09 124.614C117.117 124.733 119.801 136.579 114.153 144.06C115.131 144.689 123.994 150.086 138.49 149.312L138.501 149.516C137.529 149.568 136.583 149.592 135.666 149.592Z" fill="white"/>
</g>
<path d="M94.0903 156.477C96.9161 154.306 101.554 151.146 107.849 148.685C119.046 144.308 124.312 146.511 128.953 141.57C133.758 136.455 130.387 131.676 136.152 125.952C136.637 125.47 142.832 119.477 148.672 121.449C152.758 122.827 154.477 127.364 155.283 129.492C158.413 137.753 157.156 150.533 148.446 157.095C140.188 163.317 129.402 160.822 125.976 160.006C119.967 158.575 118.481 156.298 112.378 155.023C104.956 153.473 98.3782 155.007 94.0903 156.477Z" fill="url(#paint1_linear_117_165)"/>
<path d="M94.4068 126.819C96.5409 120.955 98.8094 111.971 96.8135 101.853C94.5216 90.2347 88.7015 87.7388 83.8038 75.2413C76.8125 57.4014 85.7693 44.927 78.1212 39.2983C74.3916 36.5534 68.3948 36.3595 64.6134 38.8747C53.8249 46.0506 55.6703 78.8685 71.998 92.1739C79.3826 98.1916 86.0095 97.7176 91.4506 105.373C96.2584 112.137 95.5863 120.837 94.4068 126.819Z" fill="url(#paint2_linear_117_165)"/>
<mask id="mask1_117_165" style="mask-type:luminance" maskUnits="userSpaceOnUse" x="57" y="37" width="41" height="90">
<path d="M94.4068 126.819C96.5409 120.955 98.8094 111.971 96.8135 101.853C94.5216 90.2347 88.7015 87.7388 83.8038 75.2413C76.8125 57.4014 85.7693 44.927 78.1212 39.2983C74.3916 36.5534 68.3948 36.3595 64.6134 38.8747C53.8249 46.0506 55.6703 78.8685 71.998 92.1739C79.3826 98.1916 86.0095 97.7176 91.4506 105.373C96.2584 112.137 95.5863 120.837 94.4068 126.819Z" fill="white"/>
</mask>
<g mask="url(#mask1_117_165)">
<path d="M96.0655 111.947C95.5113 109.436 94.7371 106.96 93.7644 104.588C91.5295 99.1395 88.9677 96.0997 85.7242 92.251C83.607 89.7388 81.2074 86.8912 78.4587 82.8306C73.3161 75.2329 71.7297 72.5708 70.368 68.3176C67.6736 59.9014 68.3667 52.4549 69.0199 48.7652C69.9463 43.5312 71.8706 38.5837 74.7393 34.0599L74.9117 34.1693C72.0574 38.6705 70.1427 43.5931 69.2208 48.8009C68.5711 52.4719 67.8815 59.881 70.5626 68.2554C71.9164 72.484 73.498 75.1375 78.6279 82.716C81.3705 86.7678 83.7664 89.6109 85.8804 92.1194C89.1354 95.9817 91.7063 99.0325 93.9534 104.511C94.9304 106.893 95.7081 109.38 96.2649 111.903L96.0655 111.947Z" fill="white"/>
<path d="M69.1247 62.4045L68.9796 62.3197C68.9489 62.3017 65.8787 60.484 63.2136 56.8994C60.7532 53.5898 58.1414 48.0533 59.6731 40.4728L59.8733 40.5132C58.3565 48.02 60.9417 53.5013 63.3776 56.7777C65.6898 59.8877 68.3043 61.6519 68.9388 62.0543C69.3121 55.9777 73.3387 52.1599 76.6684 50.0218C80.3026 47.6882 83.9133 46.7988 83.9494 46.79L83.9973 46.9886C83.9616 46.9971 80.3794 47.8802 76.7738 50.1968C73.4552 52.3291 69.4357 56.1486 69.133 62.2367L69.1247 62.4045Z" fill="white"/>
<path d="M70.0067 82.0122C66.7145 82.0122 62.7548 81.191 59.1873 78.2262L59.3177 78.0692C66.8032 84.2895 76.0444 80.9567 76.9953 80.5886C75.6349 74.5298 77.1517 70.141 78.6683 67.5216C80.3204 64.668 82.3332 63.2379 82.3532 63.2238L82.4705 63.3911C82.3912 63.4466 74.5772 69.0838 77.2138 80.6284L77.233 80.7121L77.1539 80.7454C77.0992 80.7683 74.0583 82.0122 70.0067 82.0122Z" fill="white"/>
<path d="M76.6793 93.7005C74.1875 93.7005 71.1567 93.2091 67.6078 91.7824L67.6839 91.5929C78.3434 95.878 84.2514 91.667 84.8842 91.1774C82.4532 84.9345 86.4756 75.1005 86.5167 75.0016L86.7054 75.0796C86.6644 75.1783 82.6431 85.0106 85.1016 91.1723L85.1288 91.2402L85.0733 91.2878C85.0321 91.3229 82.1595 93.7005 76.6793 93.7005Z" fill="white"/>
</g>
<path d="M111.503 117.339C112.592 111.853 113.391 103.256 109.148 95.4095C101.746 81.7203 87.3273 85.7218 74.1231 70.8872C63.4734 58.9226 67.2351 50.0084 55.2698 41.9006C53.267 40.5435 42.6936 33.0896 34.5248 37.1145C29.9216 39.3824 28.1234 44.283 27.7858 45.203C22.6839 59.1073 36.2946 81.5669 54.6299 92.2265C65.1643 98.3508 68.6831 96.5719 87.3309 103.918C98.2884 108.235 106.448 113.603 111.503 117.339Z" fill="url(#paint3_linear_117_165)"/>
<mask id="mask2_117_165" style="mask-type:luminance" maskUnits="userSpaceOnUse" x="26" y="35" width="87" height="83">
<path d="M111.503 117.339C112.592 111.853 113.391 103.256 109.148 95.4095C101.746 81.7203 87.3273 85.7218 74.1231 70.8872C63.4734 58.9226 67.2351 50.0084 55.2698 41.9006C53.267 40.5435 42.6936 33.0896 34.5248 37.1145C29.9216 39.3824 28.1234 44.283 27.7858 45.203C22.6839 59.1073 36.2946 81.5669 54.6299 92.2265C65.1643 98.3508 68.6831 96.5719 87.3309 103.918C98.2884 108.235 106.448 113.603 111.503 117.339Z" fill="white"/>
</mask>
<g mask="url(#mask2_117_165)">
<path d="M112.902 124.025C110.589 110.814 105.698 101.837 98.3651 97.3428C94.7855 95.1493 91.8844 94.7265 88.8129 94.2792C85.4652 93.7915 82.0037 93.2873 77.4982 90.3621C73.1148 87.5163 71.599 84.8683 69.6796 81.516C67.9713 78.532 65.8454 74.8184 60.9691 69.8082C56.6943 65.4162 53.5446 63.3229 50.7657 61.476C47.7288 59.458 45.3301 57.8637 42.6092 54.0513C38.1746 47.8383 36.0041 39.9888 36.1581 30.7211L36.3623 30.7246C36.209 39.9476 38.3666 47.7561 42.7752 53.9327C45.4744 57.7144 47.8592 59.2993 50.8787 61.3059C53.666 63.1584 56.8255 65.258 61.1153 69.6658C66.0097 74.6945 68.1427 78.4206 69.8568 81.4145C71.7623 84.7427 73.2673 87.3718 77.6095 90.1908C82.0774 93.0916 85.5163 93.5924 88.8422 94.0771C91.9351 94.5276 94.8564 94.9532 98.4718 97.1687C105.857 101.695 110.78 110.718 113.103 123.989L112.902 124.025Z" fill="white"/>
<path d="M52.1711 62.3038L52.0343 62.3036C41.8704 62.2885 34.4474 58.2103 30.0098 54.7918C25.2016 51.0877 22.7631 47.3349 22.7391 47.2973L22.9107 47.1872C22.9347 47.2242 25.3581 50.9524 30.1408 54.6351C34.5327 58.0169 41.8655 62.0483 51.8991 62.099C51.6756 61.3006 50.5122 56.978 50.0781 51.9542C49.6353 46.828 49.8832 39.9012 53.5793 36.0117L53.7271 36.1525C46.7453 43.5001 52.0777 61.9868 52.1325 62.1727L52.1711 62.3038Z" fill="white"/>
<path d="M51.0789 77.874C44.7611 77.874 36.3641 76.5392 28.0638 71.1951L28.1745 71.0235C37.7526 77.1905 47.464 77.9924 53.922 77.5792C60.4262 77.1631 65.0286 75.4664 65.6889 75.2115C63.3854 65.5481 66.1371 52.0828 66.1652 51.9474L66.365 51.989C66.3369 52.1243 63.5783 65.6258 65.9083 75.2499L65.9289 75.3351L65.8477 75.3684C65.7997 75.3881 60.9764 77.3314 53.9428 77.7823C53.0476 77.8399 52.0892 77.874 51.0789 77.874Z" fill="white"/>
<path d="M59.3123 100.409C58.1837 100.409 57.0259 100.379 55.8348 100.315L55.8459 100.112C73.7142 101.067 84.6024 94.3662 85.6934 93.6607C78.7617 84.5052 82.0511 69.9837 82.0852 69.8376L82.2842 69.884C82.2501 70.0297 78.9618 84.5508 85.9219 93.6237L85.9873 93.7091L85.8988 93.7702C85.7954 93.8409 76.0309 100.409 59.3123 100.409Z" fill="white"/>
</g>
<path d="M101.676 111.528C98.2148 108.868 92.5334 104.997 84.8216 101.983C71.1047 96.6206 64.6538 99.319 58.968 93.2658C53.0825 87 57.2115 81.1459 50.1495 74.1331C49.5557 73.5435 41.9669 66.2019 34.812 68.6166C29.8066 70.3059 27.7011 75.863 26.7132 78.4703C22.8789 88.59 24.4196 104.246 35.0894 112.285C45.2052 119.906 58.4188 116.85 62.615 115.851C69.9764 114.097 71.7968 111.308 79.2735 109.746C88.3658 107.847 96.4235 109.727 101.676 111.528Z" fill="url(#paint4_linear_117_165)"/>
<path d="M133.322 163.204C133.322 165.643 131.591 167.729 129.457 167.853L47.1407 172.658C44.696 172.801 42.7001 170.783 42.7001 168.16V50.0767C42.7001 47.4534 44.696 45.4 47.1407 45.499L129.457 48.8349C131.591 48.9214 133.322 50.9759 133.322 53.415V163.204Z" fill="url(#paint5_linear_117_165)"/>
<path d="M135.738 163.204C135.738 165.643 134.008 167.729 131.874 167.853L49.5575 172.658C47.1128 172.801 45.1169 170.783 45.1169 168.16V50.0767C45.1169 47.4534 47.1128 45.4 49.5575 45.499L131.874 48.8349C134.008 48.9214 135.738 50.9759 135.738 53.415V163.204Z" fill="url(#paint6_linear_117_165)"/>
<path d="M47.1879 50.153V168.046C47.1879 169.448 48.2499 170.525 49.5576 170.451L114.661 166.763L131.874 165.788C133.017 165.723 133.943 164.61 133.943 163.303V53.3488C133.943 52.0411 133.017 50.9451 131.874 50.9007L114.04 50.2086L49.5576 47.7062C48.2499 47.6554 47.1879 48.7509 47.1879 50.153Z" fill="url(#paint7_linear_117_165)"/>
<path d="M132.802 158.218C132.802 158.704 132.412 159.12 131.932 159.145L49.4909 163.36C48.943 163.388 48.4969 162.988 48.4969 162.467V50.1553C48.4969 49.6348 48.9431 49.228 49.4909 49.2486L131.932 52.349C132.412 52.367 132.802 52.7775 132.802 53.2639V158.218Z" fill="#E7EBF2"/>
<path d="M100.391 165.527L83.6503 166.448C82.7553 166.497 82.0288 165.876 82.0288 165.062V165C82.0288 164.186 82.7553 163.487 83.6503 163.44L100.391 162.559C101.261 162.514 101.965 163.127 101.965 163.928V163.989C101.965 164.79 101.261 165.479 100.391 165.527Z" fill="url(#paint8_linear_117_165)"/>
<path d="M92.9336 49.3895C92.9336 49.823 92.5501 50.1598 92.0768 50.1417C91.6031 50.1236 91.2188 49.757 91.2188 49.323C91.2188 48.8889 91.6031 48.5522 92.0768 48.5709C92.5501 48.5895 92.9336 48.9561 92.9336 49.3895Z" fill="white"/>
<g opacity="0.3">
<path d="M113.95 155.476C113.615 148.281 121.615 144.061 120.846 133.911C120.777 132.995 120.062 125.14 113.74 119.816C108.063 115.035 103.292 116.834 92.7844 113.02C85.4203 110.347 77.1417 107.343 73.7933 101.314C67.1439 89.3419 86.1449 77.3838 82.2558 61.8848C81.1414 57.4437 77.995 51.9998 69.6847 46.3148L49.5576 45.4991C47.1129 45.4 45.1171 47.4534 45.1171 50.0767V168.16C45.1171 170.783 47.1129 172.801 49.5576 172.658L124.559 168.28C116.571 163.662 114.125 159.225 113.95 155.476Z" fill="white"/>
</g>
<path d="M37.8428 144.959C35.4501 145.041 33.038 144.376 31.0749 142.914C26.7267 139.678 26.2589 133.795 30.0364 129.817L85.244 71.2616C87.0503 69.36 89.6611 68.3132 92.3949 68.3878C95.1164 68.4621 97.6928 69.6405 99.4624 71.6139L117.947 92.2262L138.951 69.1322C142.092 65.6774 147.534 65.4674 151.1 68.6278C154.645 71.7689 155.023 77.0815 151.951 80.528L124.72 111.075C123.024 112.978 120.555 114.089 117.947 114.117C115.327 114.145 112.826 113.077 111.095 111.186L92.3949 90.7499L45.563 141.525C43.5521 143.687 40.7115 144.86 37.8428 144.959Z" fill="url(#paint9_linear_117_165)"/>
<path d="M157.827 84.9646L134.694 64.6676L164.38 54.7003H166.453L159.697 84.782L157.827 84.9646Z" fill="url(#paint10_linear_117_165)"/>
<path d="M39.9158 144.959C37.5231 145.041 35.1109 144.376 33.1479 142.914C28.7997 139.678 28.3319 133.795 32.1094 129.817L87.317 71.2616C89.1232 69.36 91.7341 68.3132 94.4678 68.3878C97.1893 68.4621 99.7658 69.6405 101.535 71.6139L120.02 92.2262L141.023 69.1322C144.165 65.6774 149.607 65.4674 153.173 68.6278C156.718 71.7689 157.096 77.0815 154.024 80.528L126.793 111.075C125.097 112.978 122.628 114.089 120.02 114.117C117.4 114.145 114.899 113.077 113.168 111.186L94.4679 90.7499L47.6359 141.525C45.625 143.687 42.7845 144.86 39.9158 144.959Z" fill="url(#paint11_linear_117_165)"/>
<path d="M159.697 84.782L136.767 64.6676L166.453 54.7003L159.697 84.782Z" fill="url(#paint12_linear_117_165)"/>
<path d="M112.015 170.144V174.832C112.015 176.346 121.476 177.574 133.147 177.574C144.818 177.574 154.28 176.346 154.28 174.832V170.144H112.015Z" fill="url(#paint13_linear_117_165)"/>
<path d="M133.147 172.887C144.818 172.887 154.279 171.659 154.279 170.144C154.279 168.63 144.818 167.402 133.147 167.402C121.476 167.402 112.015 168.63 112.015 170.144C112.015 171.659 121.476 172.887 133.147 172.887Z" fill="url(#paint14_linear_117_165)"/>
<path d="M133.147 173.076C122.811 173.076 112.003 172.089 112.003 170.184C112.003 170.08 112.04 169.896 112.144 169.896C112.249 169.896 112.204 170.04 112.204 170.144C112.204 171.352 120.805 172.697 133.147 172.697C145.489 172.697 154.09 171.352 154.09 170.144C154.09 170.04 154.108 169.942 154.213 169.942C154.317 169.942 154.292 170.081 154.292 170.186C154.292 172.09 143.483 173.076 133.147 173.076Z" fill="url(#paint15_linear_117_165)"/>
<path d="M131.15 170.297C131.358 170.154 131.578 170.012 131.815 169.872C132.048 169.733 132.353 169.607 132.722 169.494C133.094 169.381 133.558 169.289 134.115 169.218C134.673 169.147 135.37 169.11 136.202 169.106C137.019 169.102 137.785 169.128 138.502 169.184C139.217 169.239 139.849 169.323 140.394 169.434C140.936 169.545 141.38 169.683 141.721 169.846C142.061 170.01 142.263 170.197 142.328 170.409L144.708 170.433C144.88 170.434 145.033 170.448 145.164 170.475C145.297 170.502 145.361 170.536 145.361 170.578L145.362 170.774L142.303 170.744C142.196 170.984 141.923 171.204 141.483 171.403C141.046 171.602 140.487 171.774 139.806 171.92L138.692 171.765C138.592 171.75 138.51 171.731 138.446 171.707C138.382 171.684 138.35 171.658 138.35 171.631C138.35 171.593 138.436 171.55 138.609 171.502C138.781 171.453 138.976 171.393 139.192 171.322C139.409 171.251 139.621 171.167 139.83 171.07C140.038 170.973 140.177 170.857 140.249 170.722L133.029 170.65C132.839 170.79 132.625 170.927 132.391 171.062C132.155 171.196 131.844 171.318 131.455 171.425C131.066 171.533 130.581 171.621 130.002 171.688C129.42 171.755 128.692 171.791 127.811 171.795C127.149 171.798 126.505 171.773 125.874 171.72C125.243 171.667 124.683 171.587 124.193 171.48C123.703 171.374 123.302 171.242 122.987 171.086C122.674 170.929 122.498 170.749 122.462 170.545L120.503 170.525C120.33 170.524 120.178 170.51 120.04 170.484C119.905 170.458 119.836 170.423 119.836 170.38L119.835 170.184L122.513 170.209C122.632 170.003 122.875 169.823 123.246 169.67C123.617 169.516 124.07 169.38 124.605 169.261L125.502 169.384C125.774 169.422 125.91 169.467 125.91 169.519C125.91 169.546 125.855 169.581 125.742 169.622C125.627 169.663 125.495 169.712 125.34 169.769C125.188 169.826 125.037 169.893 124.894 169.97C124.748 170.047 124.64 170.134 124.568 170.232L131.15 170.297ZM124.543 170.564C124.596 170.693 124.716 170.803 124.898 170.896C125.08 170.99 125.306 171.066 125.579 171.126C125.852 171.186 126.157 171.23 126.496 171.258C126.837 171.286 127.193 171.299 127.565 171.298C127.999 171.295 128.377 171.277 128.7 171.241C129.021 171.206 129.304 171.158 129.55 171.098C129.793 171.037 130.007 170.967 130.188 170.887C130.369 170.807 130.53 170.72 130.676 170.626L124.543 170.564ZM140.261 170.389C140.207 170.259 140.076 170.145 139.872 170.047C139.668 169.949 139.406 169.866 139.089 169.8C138.773 169.733 138.403 169.683 137.98 169.651C137.559 169.618 137.094 169.603 136.585 169.606C136.134 169.608 135.742 169.628 135.417 169.666C135.092 169.705 134.809 169.756 134.568 169.82C134.329 169.885 134.123 169.96 133.958 170.046C133.79 170.132 133.633 170.224 133.49 170.321L140.261 170.389Z" fill="#FCB048"/>
<path d="M133.15 167.699C123.728 167.699 113.917 168.528 112.347 170.133C112.409 170.19 112.466 170.25 112.519 170.314C113.842 169.199 121.943 168.077 133.15 168.077C144.645 168.077 152.876 169.258 153.873 170.4C153.922 170.337 153.975 170.277 154.031 170.221C152.735 168.559 142.74 167.699 133.15 167.699Z" fill="url(#paint16_linear_117_165)"/>
<path d="M106.14 165.221V169.908C106.14 171.423 115.602 172.651 127.273 172.651C138.944 172.651 148.405 171.423 148.405 169.908V165.221H106.14Z" fill="url(#paint17_linear_117_165)"/>
<path d="M127.273 167.963C138.944 167.963 148.405 166.736 148.405 165.221C148.405 163.706 138.944 162.479 127.273 162.479C115.601 162.479 106.14 163.706 106.14 165.221C106.14 166.736 115.601 167.963 127.273 167.963Z" fill="url(#paint18_linear_117_165)"/>
<path d="M127.273 168.152C116.936 168.152 106.128 167.165 106.128 165.261C106.128 165.156 106.165 164.973 106.27 164.973C106.374 164.973 106.329 165.116 106.329 165.221C106.329 166.429 114.931 167.774 127.273 167.774C139.615 167.774 148.216 166.429 148.216 165.221C148.216 165.116 148.233 165.018 148.338 165.018C148.443 165.018 148.417 165.158 148.417 165.262C148.417 167.167 137.609 168.152 127.273 168.152Z" fill="url(#paint19_linear_117_165)"/>
<path d="M125.276 165.374C125.483 165.23 125.704 165.089 125.94 164.949C126.174 164.809 126.479 164.683 126.848 164.571C127.219 164.458 127.683 164.366 128.241 164.295C128.798 164.224 129.495 164.186 130.327 164.182C131.144 164.178 131.91 164.204 132.627 164.26C133.343 164.316 133.974 164.399 134.519 164.511C135.062 164.622 135.505 164.759 135.847 164.923C136.186 165.086 136.389 165.274 136.454 165.485L138.833 165.509C139.006 165.51 139.159 165.524 139.289 165.551C139.422 165.579 139.487 165.613 139.487 165.654L139.488 165.85L136.429 165.821C136.322 166.061 136.048 166.28 135.609 166.479C135.171 166.679 134.612 166.851 133.931 166.997L132.817 166.842C132.718 166.827 132.636 166.807 132.571 166.784C132.507 166.76 132.476 166.735 132.476 166.707C132.476 166.669 132.562 166.626 132.734 166.578C132.906 166.53 133.101 166.47 133.317 166.399C133.534 166.327 133.746 166.243 133.956 166.146C134.163 166.049 134.302 165.933 134.375 165.798L127.154 165.727C126.965 165.866 126.751 166.004 126.517 166.138C126.281 166.273 125.969 166.394 125.58 166.502C125.191 166.61 124.707 166.697 124.127 166.765C123.545 166.832 122.817 166.867 121.937 166.872C121.275 166.875 120.631 166.85 120 166.797C119.368 166.743 118.808 166.663 118.318 166.557C117.829 166.45 117.427 166.319 117.112 166.162C116.8 166.005 116.624 165.825 116.587 165.621L114.629 165.601C114.456 165.6 114.303 165.587 114.166 165.561C114.031 165.534 113.962 165.5 113.962 165.456L113.961 165.26L116.639 165.286C116.757 165.079 117 164.9 117.371 164.746C117.742 164.593 118.195 164.457 118.73 164.338L119.627 164.461C119.9 164.499 120.035 164.544 120.035 164.595C120.035 164.623 119.98 164.657 119.867 164.698C119.753 164.74 119.62 164.789 119.465 164.846C119.313 164.903 119.163 164.97 119.019 165.047C118.874 165.124 118.766 165.211 118.693 165.308L125.276 165.374ZM118.668 165.641C118.722 165.769 118.842 165.88 119.024 165.973C119.206 166.066 119.432 166.143 119.704 166.203C119.977 166.263 120.283 166.307 120.621 166.335C120.962 166.363 121.319 166.376 121.691 166.374C122.124 166.372 122.503 166.353 122.826 166.318C123.147 166.283 123.43 166.235 123.675 166.174C123.918 166.114 124.133 166.044 124.314 165.963C124.495 165.883 124.656 165.797 124.802 165.703L118.668 165.641ZM134.386 165.466C134.333 165.335 134.201 165.221 133.997 165.123C133.793 165.025 133.532 164.943 133.215 164.876C132.898 164.809 132.528 164.76 132.105 164.727C131.684 164.695 131.22 164.68 130.711 164.682C130.259 164.684 129.867 164.705 129.542 164.743C129.217 164.781 128.934 164.832 128.693 164.897C128.454 164.962 128.249 165.037 128.083 165.123C127.915 165.208 127.759 165.3 127.615 165.398L134.386 165.466Z" fill="#FCB048"/>
<path d="M127.275 162.775C117.853 162.775 108.042 163.604 106.473 165.21C106.534 165.266 106.591 165.327 106.644 165.39C107.967 164.276 116.068 163.154 127.275 163.154C138.771 163.154 147.002 164.334 147.999 165.476C148.048 165.413 148.1 165.354 148.157 165.297C146.861 163.635 136.865 162.775 127.275 162.775Z" fill="url(#paint20_linear_117_165)"/>
<path d="M111.209 160.312V164.999C111.209 166.514 120.671 167.742 132.342 167.742C144.013 167.742 153.474 166.514 153.474 164.999V160.312H111.209Z" fill="url(#paint21_linear_117_165)"/>
<path d="M153.474 160.312C153.474 161.827 144.013 163.054 132.342 163.054C120.67 163.054 111.209 161.827 111.209 160.312C111.209 158.797 120.67 157.57 132.342 157.57C144.013 157.57 153.474 158.797 153.474 160.312Z" fill="url(#paint22_linear_117_165)"/>
<path d="M132.342 163.244C122.005 163.244 111.197 162.256 111.197 160.352C111.197 160.247 111.234 160.064 111.339 160.064C111.443 160.064 111.398 160.207 111.398 160.312C111.398 161.52 120 162.865 132.342 162.865C144.684 162.865 153.285 161.52 153.285 160.312C153.285 160.207 153.302 160.109 153.407 160.109C153.512 160.109 153.486 160.249 153.486 160.354C153.486 162.258 142.678 163.244 132.342 163.244Z" fill="url(#paint23_linear_117_165)"/>
<path d="M130.345 160.465C130.552 160.321 130.773 160.18 131.009 160.04C131.243 159.9 131.548 159.774 131.917 159.662C132.288 159.549 132.752 159.457 133.31 159.386C133.867 159.315 134.564 159.277 135.396 159.273C136.213 159.269 136.979 159.295 137.696 159.351C138.412 159.407 139.043 159.491 139.588 159.602C140.131 159.713 140.574 159.85 140.916 160.014C141.255 160.177 141.457 160.365 141.523 160.576L143.902 160.6C144.075 160.601 144.228 160.615 144.358 160.642C144.491 160.67 144.556 160.704 144.556 160.745L144.557 160.941L141.498 160.912C141.391 161.152 141.117 161.371 140.678 161.57C140.24 161.77 139.681 161.942 139 162.088L137.886 161.933C137.786 161.918 137.705 161.898 137.64 161.875C137.576 161.851 137.545 161.826 137.545 161.798C137.545 161.76 137.631 161.717 137.803 161.669C137.975 161.621 138.17 161.561 138.386 161.49C138.603 161.418 138.815 161.334 139.025 161.237C139.232 161.14 139.371 161.024 139.444 160.889L132.223 160.818C132.034 160.957 131.82 161.094 131.586 161.229C131.349 161.364 131.038 161.485 130.649 161.593C130.26 161.701 129.776 161.788 129.196 161.855C128.614 161.923 127.886 161.958 127.005 161.963C126.344 161.966 125.699 161.941 125.068 161.888C124.437 161.834 123.877 161.754 123.387 161.648C122.898 161.541 122.496 161.41 122.181 161.253C121.868 161.096 121.693 160.916 121.656 160.712L119.697 160.692C119.525 160.691 119.372 160.678 119.235 160.651C119.099 160.625 119.031 160.591 119.03 160.547L119.03 160.351L121.708 160.377C121.826 160.17 122.069 159.99 122.44 159.837C122.811 159.684 123.264 159.548 123.799 159.428L124.696 159.551C124.969 159.59 125.104 159.635 125.104 159.686C125.104 159.714 125.049 159.748 124.936 159.789C124.821 159.83 124.689 159.88 124.534 159.937C124.382 159.994 124.232 160.061 124.088 160.138C123.942 160.215 123.834 160.302 123.762 160.399L130.345 160.465ZM123.737 160.732C123.791 160.86 123.911 160.971 124.093 161.064C124.275 161.157 124.501 161.234 124.773 161.294C125.046 161.354 125.352 161.398 125.69 161.426C126.031 161.454 126.388 161.467 126.76 161.465C127.193 161.463 127.572 161.444 127.895 161.409C128.215 161.374 128.499 161.326 128.744 161.265C128.987 161.205 129.202 161.135 129.383 161.054C129.564 160.974 129.725 160.887 129.87 160.794L123.737 160.732ZM139.455 160.557C139.402 160.426 139.27 160.312 139.066 160.214C138.862 160.116 138.601 160.034 138.284 159.967C137.967 159.901 137.597 159.851 137.174 159.818C136.754 159.786 136.289 159.771 135.78 159.773C135.328 159.776 134.936 159.796 134.611 159.834C134.286 159.872 134.003 159.923 133.762 159.988C133.523 160.053 133.318 160.128 133.152 160.214C132.985 160.3 132.828 160.391 132.684 160.489L139.455 160.557Z" fill="#FCB048"/>
<path d="M132.345 157.866C122.922 157.866 113.111 158.696 111.542 160.301C111.603 160.357 111.66 160.418 111.713 160.481C113.036 159.367 121.137 158.245 132.345 158.245C143.84 158.245 152.071 159.425 153.068 160.567C153.117 160.505 153.169 160.445 153.226 160.388C151.93 158.726 141.934 157.866 132.345 157.866Z" fill="url(#paint24_linear_117_165)"/>
<path d="M114.285 155.389V160.076C114.285 161.59 123.747 162.818 135.418 162.818C147.089 162.818 156.55 161.59 156.55 160.076V155.389H114.285Z" fill="url(#paint25_linear_117_165)"/>
<path d="M156.55 155.389C156.55 156.903 147.089 158.131 135.418 158.131C123.747 158.131 114.285 156.903 114.285 155.389C114.285 153.874 123.747 152.646 135.418 152.646C147.089 152.646 156.55 153.874 156.55 155.389Z" fill="url(#paint26_linear_117_165)"/>
<path d="M135.418 158.32C125.081 158.32 114.273 157.333 114.273 155.429C114.273 155.324 114.31 155.14 114.415 155.14C114.52 155.14 114.474 155.284 114.474 155.389C114.474 156.596 123.076 157.942 135.418 157.942C147.76 157.942 156.361 156.596 156.361 155.389C156.361 155.284 156.379 155.186 156.483 155.186C156.588 155.186 156.562 155.325 156.562 155.43C156.562 157.334 145.754 158.32 135.418 158.32Z" fill="url(#paint27_linear_117_165)"/>
<path d="M133.421 155.541C133.628 155.398 133.849 155.256 134.085 155.117C134.319 154.977 134.624 154.851 134.993 154.738C135.364 154.625 135.828 154.534 136.386 154.463C136.943 154.392 137.64 154.354 138.472 154.35C139.289 154.346 140.055 154.372 140.772 154.428C141.488 154.484 142.119 154.567 142.664 154.678C143.207 154.789 143.65 154.927 143.992 155.09C144.331 155.254 144.533 155.441 144.599 155.653L146.978 155.677C147.151 155.678 147.304 155.692 147.434 155.719C147.567 155.746 147.632 155.78 147.632 155.822L147.633 156.018L144.574 155.988C144.466 156.228 144.193 156.448 143.754 156.647C143.316 156.846 142.757 157.019 142.076 157.164L140.962 157.01C140.862 156.994 140.781 156.975 140.716 156.951C140.652 156.928 140.621 156.903 140.621 156.875C140.621 156.837 140.707 156.794 140.879 156.746C141.051 156.697 141.246 156.638 141.463 156.566C141.679 156.495 141.891 156.411 142.101 156.314C142.308 156.217 142.447 156.101 142.52 155.966L135.299 155.894C135.11 156.034 134.896 156.171 134.662 156.306C134.426 156.441 134.114 156.562 133.725 156.67C133.336 156.777 132.852 156.865 132.272 156.932C131.69 156.999 130.963 157.035 130.082 157.039C129.42 157.042 128.776 157.017 128.145 156.964C127.513 156.911 126.953 156.831 126.463 156.724C125.974 156.618 125.573 156.486 125.257 156.33C124.945 156.173 124.769 155.993 124.732 155.789L122.774 155.769C122.601 155.768 122.448 155.754 122.311 155.728C122.176 155.702 122.107 155.667 122.107 155.624L122.106 155.428L124.784 155.453C124.902 155.247 125.145 155.067 125.516 154.914C125.887 154.761 126.34 154.624 126.875 154.505L127.772 154.628C128.045 154.666 128.18 154.711 128.18 154.763C128.18 154.79 128.125 154.825 128.013 154.866C127.898 154.907 127.765 154.956 127.61 155.013C127.458 155.071 127.308 155.137 127.164 155.214C127.019 155.291 126.911 155.378 126.838 155.476L133.421 155.541ZM126.813 155.808C126.867 155.937 126.987 156.047 127.169 156.141C127.351 156.234 127.577 156.31 127.849 156.37C128.122 156.43 128.428 156.474 128.766 156.502C129.107 156.53 129.464 156.544 129.836 156.542C130.269 156.54 130.648 156.521 130.971 156.486C131.292 156.45 131.575 156.403 131.82 156.342C132.063 156.281 132.278 156.211 132.459 156.131C132.64 156.051 132.801 155.964 132.947 155.87L126.813 155.808ZM142.531 155.633C142.478 155.503 142.346 155.389 142.142 155.291C141.938 155.193 141.677 155.111 141.36 155.044C141.043 154.977 140.673 154.927 140.25 154.895C139.829 154.863 139.365 154.847 138.856 154.85C138.404 154.852 138.012 154.872 137.687 154.911C137.362 154.949 137.079 155 136.838 155.065C136.599 155.129 136.394 155.204 136.228 155.29C136.06 155.376 135.904 155.468 135.76 155.566L142.531 155.633Z" fill="#FCB048"/>
<path d="M135.421 152.943C125.998 152.943 116.187 153.772 114.618 155.377C114.679 155.434 114.736 155.494 114.789 155.558C116.112 154.444 124.213 153.321 135.421 153.321C146.916 153.321 155.147 154.502 156.144 155.644C156.193 155.581 156.245 155.521 156.302 155.465C155.006 153.803 145.01 152.943 135.421 152.943Z" fill="url(#paint28_linear_117_165)"/>
<path d="M112.015 150.077V154.764C112.015 156.279 121.476 157.506 133.147 157.506C144.818 157.506 154.28 156.279 154.28 154.764V150.077H112.015Z" fill="url(#paint29_linear_117_165)"/>
<path d="M154.28 150.077C154.28 151.591 144.818 152.819 133.147 152.819C121.476 152.819 112.015 151.591 112.015 150.077C112.015 148.562 121.476 147.334 133.147 147.334C144.818 147.334 154.28 148.562 154.28 150.077Z" fill="url(#paint30_linear_117_165)"/>
<path d="M133.147 153.008C122.811 153.008 112.003 152.021 112.003 150.117C112.003 150.012 112.04 149.829 112.144 149.829C112.249 149.829 112.204 149.972 112.204 150.077C112.204 151.284 120.805 152.63 133.147 152.63C145.489 152.63 154.09 151.284 154.09 150.077C154.09 149.972 154.108 149.874 154.213 149.874C154.317 149.874 154.292 150.014 154.292 150.118C154.292 152.023 143.483 153.008 133.147 153.008Z" fill="url(#paint31_linear_117_165)"/>
<path d="M131.15 150.23C131.358 150.086 131.578 149.945 131.815 149.805C132.048 149.665 132.353 149.539 132.722 149.426C133.094 149.314 133.558 149.222 134.115 149.151C134.673 149.08 135.37 149.042 136.202 149.038C137.019 149.034 137.785 149.06 138.502 149.116C139.217 149.172 139.849 149.255 140.394 149.367C140.936 149.478 141.38 149.615 141.721 149.778C142.061 149.942 142.263 150.13 142.328 150.341L144.708 150.365C144.88 150.366 145.033 150.38 145.164 150.407C145.297 150.434 145.361 150.469 145.361 150.51L145.362 150.706L142.303 150.677C142.196 150.917 141.923 151.136 141.483 151.335C141.046 151.534 140.487 151.707 139.806 151.853L138.692 151.698C138.592 151.682 138.51 151.663 138.446 151.64C138.382 151.616 138.35 151.591 138.35 151.563C138.35 151.525 138.436 151.482 138.609 151.434C138.781 151.386 138.976 151.326 139.192 151.254C139.409 151.183 139.621 151.099 139.83 151.002C140.038 150.905 140.177 150.789 140.249 150.654L133.029 150.583C132.839 150.722 132.625 150.859 132.391 150.994C132.155 151.129 131.844 151.25 131.455 151.358C131.066 151.465 130.581 151.553 130.002 151.62C129.42 151.687 128.692 151.723 127.811 151.727C127.149 151.731 126.505 151.706 125.874 151.652C125.243 151.599 124.683 151.519 124.193 151.413C123.703 151.306 123.302 151.175 122.987 151.018C122.674 150.861 122.498 150.681 122.462 150.477L120.503 150.457C120.33 150.456 120.178 150.442 120.04 150.416C119.905 150.39 119.836 150.355 119.836 150.312L119.835 150.116L122.513 150.142C122.632 149.935 122.875 149.755 123.246 149.602C123.617 149.449 124.07 149.313 124.605 149.193L125.502 149.316C125.774 149.355 125.91 149.399 125.91 149.451C125.91 149.479 125.855 149.513 125.742 149.554C125.627 149.595 125.495 149.644 125.34 149.701C125.188 149.759 125.037 149.826 124.894 149.903C124.748 149.98 124.64 150.067 124.568 150.164L131.15 150.23ZM124.543 150.497C124.596 150.625 124.716 150.736 124.898 150.829C125.08 150.922 125.306 150.999 125.579 151.059C125.852 151.119 126.157 151.163 126.496 151.191C126.837 151.219 127.193 151.232 127.565 151.23C127.999 151.228 128.377 151.209 128.7 151.174C129.021 151.139 129.304 151.091 129.55 151.03C129.793 150.97 130.007 150.899 130.188 150.819C130.369 150.739 130.53 150.652 130.676 150.559L124.543 150.497ZM140.261 150.322C140.207 150.191 140.076 150.077 139.872 149.979C139.668 149.881 139.406 149.799 139.089 149.732C138.773 149.665 138.403 149.616 137.98 149.583C137.559 149.551 137.094 149.536 136.585 149.538C136.134 149.54 135.742 149.561 135.417 149.599C135.092 149.637 134.809 149.688 134.568 149.753C134.329 149.817 134.123 149.893 133.958 149.978C133.79 150.064 133.633 150.156 133.49 150.254L140.261 150.322Z" fill="#FCB048"/>
<path d="M133.15 147.631C123.728 147.631 113.917 148.46 112.347 150.065C112.409 150.122 112.466 150.183 112.519 150.246C113.842 149.132 121.943 148.01 133.15 148.01C144.645 148.01 152.876 149.19 153.873 150.332C153.922 150.269 153.975 150.209 154.031 150.153C152.735 148.491 142.74 147.631 133.15 147.631Z" fill="url(#paint32_linear_117_165)"/>
<path d="M106.14 145.153V149.841C106.14 151.355 115.602 152.583 127.273 152.583C138.944 152.583 148.405 151.355 148.405 149.841V145.153H106.14Z" fill="url(#paint33_linear_117_165)"/>
<path d="M148.405 145.153C148.405 146.668 138.944 147.896 127.273 147.896C115.601 147.896 106.14 146.668 106.14 145.153C106.14 143.639 115.601 142.411 127.273 142.411C138.944 142.411 148.405 143.639 148.405 145.153Z" fill="url(#paint34_linear_117_165)"/>
<path d="M127.273 148.085C116.936 148.085 106.128 147.098 106.128 145.193C106.128 145.089 106.165 144.905 106.27 144.905C106.374 144.905 106.329 145.049 106.329 145.153C106.329 146.361 114.931 147.707 127.273 147.707C139.615 147.707 148.216 146.361 148.216 145.153C148.216 145.049 148.233 144.951 148.338 144.951C148.443 144.951 148.417 145.09 148.417 145.195C148.417 147.099 137.609 148.085 127.273 148.085Z" fill="url(#paint35_linear_117_165)"/>
<path d="M125.276 145.306C125.483 145.163 125.704 145.021 125.94 144.881C126.174 144.742 126.479 144.616 126.848 144.503C127.219 144.39 127.683 144.299 128.241 144.228C128.798 144.156 129.495 144.119 130.327 144.115C131.144 144.111 131.91 144.137 132.627 144.193C133.343 144.248 133.974 144.332 134.519 144.443C135.062 144.554 135.505 144.692 135.847 144.855C136.186 145.019 136.389 145.206 136.454 145.418L138.833 145.442C139.006 145.443 139.159 145.457 139.289 145.484C139.422 145.511 139.487 145.545 139.487 145.587L139.488 145.783L136.429 145.753C136.322 145.993 136.048 146.213 135.609 146.412C135.171 146.611 134.612 146.783 133.931 146.929L132.817 146.774C132.718 146.759 132.636 146.74 132.571 146.716C132.507 146.693 132.476 146.667 132.476 146.639C132.476 146.602 132.562 146.559 132.734 146.511C132.906 146.462 133.101 146.402 133.317 146.331C133.534 146.26 133.746 146.176 133.956 146.078C134.163 145.982 134.302 145.866 134.375 145.731L127.154 145.659C126.965 145.799 126.751 145.936 126.517 146.071C126.281 146.205 125.969 146.327 125.58 146.434C125.191 146.542 124.707 146.629 124.127 146.697C123.545 146.764 122.817 146.8 121.937 146.804C121.275 146.807 120.631 146.782 120 146.729C119.368 146.675 118.808 146.596 118.318 146.489C117.829 146.383 117.427 146.251 117.112 146.094C116.8 145.937 116.624 145.757 116.587 145.554L114.629 145.534C114.456 145.532 114.303 145.519 114.166 145.493C114.031 145.467 113.962 145.432 113.962 145.388L113.961 145.193L116.639 145.218C116.757 145.012 117 144.832 117.371 144.679C117.742 144.525 118.195 144.389 118.73 144.27L119.627 144.393C119.9 144.431 120.035 144.476 120.035 144.527C120.035 144.555 119.98 144.59 119.867 144.631C119.753 144.672 119.62 144.721 119.465 144.778C119.313 144.835 119.163 144.902 119.019 144.979C118.874 145.056 118.766 145.143 118.693 145.241L125.276 145.306ZM118.668 145.573C118.722 145.702 118.842 145.812 119.024 145.905C119.206 145.999 119.432 146.075 119.704 146.135C119.977 146.195 120.283 146.239 120.621 146.267C120.962 146.295 121.319 146.308 121.691 146.307C122.124 146.304 122.503 146.286 122.826 146.251C123.147 146.215 123.43 146.167 123.675 146.107C123.918 146.046 124.133 145.976 124.314 145.896C124.495 145.816 124.656 145.729 124.802 145.635L118.668 145.573ZM134.386 145.398C134.333 145.268 134.201 145.154 133.997 145.056C133.793 144.958 133.532 144.875 133.215 144.809C132.898 144.742 132.528 144.692 132.105 144.66C131.684 144.627 131.22 144.612 130.711 144.615C130.259 144.617 129.867 144.637 129.542 144.675C129.217 144.714 128.934 144.765 128.693 144.83C128.454 144.894 128.249 144.969 128.083 145.055C127.915 145.141 127.759 145.233 127.615 145.331L134.386 145.398Z" fill="#FCB048"/>
<path d="M127.275 142.708C117.853 142.708 108.042 143.537 106.473 145.142C106.534 145.199 106.591 145.259 106.644 145.323C107.967 144.208 116.068 143.086 127.275 143.086C138.771 143.086 147.002 144.267 147.999 145.409C148.048 145.346 148.1 145.286 148.157 145.23C146.861 143.568 136.865 142.708 127.275 142.708Z" fill="url(#paint36_linear_117_165)"/>
<path d="M111.209 140.244V144.932C111.209 146.446 120.671 147.674 132.342 147.674C144.013 147.674 153.474 146.446 153.474 144.932V140.244H111.209Z" fill="url(#paint37_linear_117_165)"/>
<path d="M153.474 140.244C153.474 141.759 144.013 142.987 132.342 142.987C120.67 142.987 111.209 141.759 111.209 140.244C111.209 138.73 120.67 137.502 132.342 137.502C144.013 137.502 153.474 138.73 153.474 140.244Z" fill="url(#paint38_linear_117_165)"/>
<path d="M132.342 143.176C122.005 143.176 111.197 142.189 111.197 140.285C111.197 140.18 111.234 139.996 111.339 139.996C111.443 139.996 111.398 140.14 111.398 140.244C111.398 141.452 120 142.798 132.342 142.798C144.684 142.798 153.285 141.452 153.285 140.244C153.285 140.14 153.302 140.042 153.407 140.042C153.512 140.042 153.486 140.181 153.486 140.286C153.486 142.19 142.678 143.176 132.342 143.176Z" fill="url(#paint39_linear_117_165)"/>
<path d="M130.345 140.397C130.552 140.254 130.773 140.112 131.009 139.972C131.243 139.833 131.548 139.707 131.917 139.594C132.288 139.481 132.752 139.39 133.31 139.319C133.867 139.247 134.564 139.21 135.396 139.206C136.213 139.202 136.979 139.228 137.696 139.284C138.412 139.339 139.043 139.423 139.588 139.534C140.131 139.645 140.574 139.783 140.916 139.946C141.255 140.11 141.457 140.297 141.523 140.509L143.902 140.533C144.075 140.534 144.228 140.548 144.358 140.575C144.491 140.602 144.556 140.636 144.556 140.678L144.557 140.874L141.498 140.844C141.391 141.084 141.117 141.304 140.678 141.503C140.24 141.702 139.681 141.875 139 142.02L137.886 141.865C137.786 141.85 137.705 141.831 137.64 141.807C137.576 141.784 137.545 141.758 137.545 141.731C137.545 141.693 137.631 141.65 137.803 141.602C137.975 141.553 138.17 141.493 138.386 141.422C138.603 141.351 138.815 141.267 139.025 141.17C139.232 141.073 139.371 140.957 139.444 140.822L132.223 140.75C132.034 140.89 131.82 141.027 131.586 141.162C131.349 141.296 131.038 141.418 130.649 141.525C130.26 141.633 129.776 141.721 129.196 141.788C128.614 141.855 127.886 141.891 127.005 141.895C126.344 141.898 125.699 141.873 125.068 141.82C124.437 141.767 123.877 141.687 123.387 141.581C122.898 141.474 122.496 141.342 122.181 141.186C121.868 141.029 121.693 140.849 121.656 140.645L119.697 140.625C119.525 140.624 119.372 140.61 119.235 140.584C119.099 140.558 119.031 140.523 119.03 140.48L119.03 140.284L121.708 140.309C121.826 140.103 122.069 139.923 122.44 139.77C122.811 139.617 123.264 139.48 123.799 139.361L124.696 139.484C124.969 139.522 125.104 139.567 125.104 139.618C125.104 139.646 125.049 139.681 124.936 139.722C124.821 139.763 124.689 139.812 124.534 139.869C124.382 139.926 124.232 139.993 124.088 140.07C123.942 140.147 123.834 140.234 123.762 140.332L130.345 140.397ZM123.737 140.664C123.791 140.793 123.911 140.903 124.093 140.996C124.275 141.09 124.501 141.166 124.773 141.226C125.046 141.286 125.352 141.33 125.69 141.358C126.031 141.386 126.388 141.399 126.76 141.398C127.193 141.396 127.572 141.377 127.895 141.342C128.215 141.306 128.499 141.258 128.744 141.198C128.987 141.137 129.202 141.067 129.383 140.987C129.564 140.907 129.725 140.82 129.87 140.726L123.737 140.664ZM139.455 140.489C139.402 140.359 139.27 140.245 139.066 140.147C138.862 140.049 138.601 139.966 138.284 139.9C137.967 139.833 137.597 139.783 137.174 139.751C136.754 139.718 136.289 139.703 135.78 139.706C135.328 139.708 134.936 139.728 134.611 139.766C134.286 139.805 134.003 139.856 133.762 139.921C133.523 139.985 133.318 140.06 133.152 140.146C132.985 140.232 132.828 140.324 132.684 140.422L139.455 140.489Z" fill="#FCB048"/>
<path d="M132.345 137.799C122.922 137.799 113.111 138.628 111.542 140.233C111.603 140.29 111.66 140.35 111.713 140.414C113.036 139.299 121.137 138.177 132.345 138.177C143.84 138.177 152.071 139.358 153.068 140.5C153.117 140.437 153.169 140.377 153.226 140.321C151.93 138.659 141.934 137.799 132.345 137.799Z" fill="url(#paint40_linear_117_165)"/>
<path d="M108.573 135.321V140.008C108.573 141.523 118.034 142.751 129.705 142.751C141.376 142.751 150.837 141.523 150.837 140.008V135.321H108.573Z" fill="url(#paint41_linear_117_165)"/>
<path d="M150.837 135.321C150.837 136.836 141.376 138.064 129.705 138.064C118.034 138.064 108.573 136.836 108.573 135.321C108.573 133.807 118.034 132.579 129.705 132.579C141.376 132.579 150.837 133.807 150.837 135.321Z" fill="url(#paint42_linear_117_165)"/>
<path d="M129.705 138.253C119.369 138.253 108.56 137.265 108.56 135.361C108.56 135.257 108.598 135.073 108.702 135.073C108.807 135.073 108.762 135.216 108.762 135.321C108.762 136.529 117.363 137.874 129.705 137.874C142.047 137.874 150.648 136.529 150.648 135.321C150.648 135.216 150.666 135.118 150.77 135.118C150.875 135.118 150.85 135.258 150.85 135.363C150.85 137.267 140.041 138.253 129.705 138.253Z" fill="url(#paint43_linear_117_165)"/>
<path d="M127.708 135.474C127.915 135.33 128.136 135.189 128.372 135.049C128.606 134.91 128.911 134.783 129.28 134.671C129.651 134.558 130.116 134.466 130.673 134.395C131.231 134.324 131.928 134.287 132.76 134.283C133.577 134.279 134.342 134.304 135.06 134.36C135.775 134.416 136.406 134.5 136.951 134.611C137.494 134.722 137.937 134.859 138.279 135.023C138.619 135.187 138.821 135.374 138.886 135.585L141.266 135.609C141.438 135.611 141.591 135.624 141.722 135.652C141.855 135.679 141.919 135.713 141.919 135.755L141.92 135.95L138.861 135.921C138.754 136.161 138.481 136.38 138.041 136.58C137.604 136.779 137.045 136.951 136.364 137.097L135.25 136.942C135.15 136.927 135.068 136.908 135.004 136.884C134.939 136.861 134.908 136.835 134.908 136.807C134.908 136.77 134.994 136.727 135.166 136.678C135.339 136.63 135.533 136.57 135.75 136.499C135.966 136.428 136.178 136.343 136.388 136.246C136.596 136.149 136.735 136.033 136.807 135.898L129.587 135.827C129.397 135.966 129.183 136.104 128.949 136.238C128.713 136.373 128.402 136.494 128.012 136.602C127.624 136.71 127.139 136.797 126.56 136.865C125.978 136.932 125.25 136.967 124.369 136.972C123.707 136.975 123.063 136.95 122.432 136.897C121.801 136.843 121.241 136.763 120.751 136.657C120.261 136.551 119.86 136.419 119.545 136.262C119.232 136.105 119.056 135.925 119.02 135.721L117.061 135.701C116.888 135.7 116.736 135.687 116.598 135.661C116.463 135.634 116.394 135.6 116.394 135.556L116.393 135.36L119.071 135.386C119.19 135.179 119.432 135 119.804 134.847C120.175 134.693 120.628 134.557 121.163 134.438L122.06 134.561C122.332 134.599 122.467 134.644 122.468 134.695C122.468 134.723 122.413 134.757 122.3 134.798C122.185 134.84 122.052 134.889 121.898 134.946C121.745 135.003 121.595 135.07 121.452 135.147C121.306 135.224 121.198 135.311 121.125 135.408L127.708 135.474ZM121.1 135.741C121.154 135.869 121.274 135.98 121.456 136.073C121.638 136.166 121.864 136.243 122.137 136.303C122.409 136.363 122.715 136.407 123.054 136.435C123.395 136.463 123.751 136.476 124.123 136.474C124.557 136.472 124.935 136.453 125.258 136.418C125.579 136.383 125.862 136.335 126.107 136.274C126.351 136.214 126.565 136.144 126.746 136.063C126.927 135.983 127.088 135.897 127.234 135.803L121.1 135.741ZM136.819 135.566C136.765 135.436 136.634 135.321 136.43 135.223C136.226 135.126 135.964 135.043 135.647 134.976C135.33 134.91 134.96 134.86 134.538 134.828C134.117 134.795 133.652 134.78 133.143 134.782C132.691 134.785 132.3 134.805 131.974 134.843C131.649 134.881 131.366 134.932 131.125 134.997C130.887 135.062 130.681 135.137 130.516 135.223C130.348 135.309 130.191 135.4 130.048 135.498L136.819 135.566Z" fill="#FCB048"/>
<path d="M129.708 132.876C120.285 132.876 110.474 133.705 108.905 135.31C108.967 135.366 109.024 135.427 109.077 135.49C110.399 134.376 118.501 133.254 129.708 133.254C141.203 133.254 149.434 134.434 150.431 135.576C150.48 135.514 150.532 135.454 150.589 135.397C149.293 133.735 139.298 132.876 129.708 132.876Z" fill="url(#paint44_linear_117_165)"/>
<path d="M156.848 138.625L153.029 141.342C151.795 142.22 156.278 150.642 163.043 160.152C169.808 169.663 176.292 176.661 177.527 175.783L181.346 173.066L156.848 138.625Z" fill="url(#paint45_linear_117_165)"/>
<path d="M181.346 173.066C180.112 173.944 173.627 166.946 166.863 157.435C160.098 147.925 155.614 139.503 156.848 138.625C158.083 137.748 164.567 144.746 171.332 154.256C178.097 163.767 182.58 172.188 181.346 173.066Z" fill="url(#paint46_linear_117_165)"/>
<path d="M166.708 157.545C160.717 149.122 155.257 139.742 156.809 138.639C156.894 138.578 157.065 138.502 157.126 138.587C157.187 138.672 157.043 138.719 156.958 138.78C155.974 139.48 159.863 147.268 167.017 157.326C174.171 167.383 180.252 173.612 181.237 172.912C181.322 172.851 181.412 172.809 181.473 172.894C181.533 172.979 181.405 173.04 181.32 173.1C179.768 174.204 172.7 165.968 166.708 157.545Z" fill="url(#paint47_linear_117_165)"/>
<path d="M167.815 154.307C168.052 154.393 168.296 154.491 168.546 154.602C168.796 154.712 169.075 154.887 169.381 155.122C169.688 155.36 170.032 155.685 170.413 156.098C170.794 156.511 171.229 157.057 171.714 157.733C172.191 158.396 172.614 159.035 172.984 159.652C173.353 160.267 173.651 160.83 173.876 161.339C174.1 161.846 174.245 162.286 174.31 162.66C174.373 163.031 174.338 163.305 174.204 163.48L175.563 165.433C175.662 165.575 175.74 165.707 175.793 165.829C175.848 165.954 175.857 166.026 175.824 166.05L175.665 166.164L173.916 163.655C173.658 163.706 173.32 163.611 172.904 163.368C172.488 163.127 172.023 162.772 171.51 162.301L170.99 161.303C170.945 161.213 170.913 161.135 170.895 161.069C170.877 161.003 170.879 160.963 170.902 160.947C170.933 160.925 171.017 160.97 171.157 161.083C171.296 161.195 171.458 161.319 171.641 161.454C171.825 161.589 172.016 161.713 172.217 161.828C172.416 161.941 172.591 161.987 172.743 161.968L168.617 156.043C168.393 155.969 168.157 155.874 167.912 155.761C167.665 155.647 167.386 155.464 167.072 155.209C166.759 154.954 166.407 154.611 166.016 154.177C165.624 153.742 165.173 153.17 164.659 152.454C164.273 151.917 163.92 151.377 163.597 150.832C163.275 150.287 163.016 149.784 162.818 149.323C162.621 148.863 162.496 148.459 162.441 148.112C162.388 147.766 162.433 147.518 162.577 147.371L161.458 145.763C161.359 145.621 161.282 145.489 161.223 145.362C161.166 145.237 161.155 145.16 161.19 145.135L161.349 145.021L162.881 147.218C163.118 147.195 163.405 147.288 163.745 147.502C164.085 147.715 164.458 148.006 164.866 148.373L165.285 149.175C165.412 149.419 165.454 149.555 165.412 149.585C165.39 149.601 165.33 149.576 165.231 149.508C165.131 149.439 165.014 149.359 164.878 149.266C164.743 149.175 164.601 149.092 164.455 149.019C164.308 148.945 164.174 148.908 164.053 148.905L167.815 154.307ZM163.768 149.077C163.694 149.196 163.674 149.358 163.703 149.56C163.733 149.762 163.801 149.991 163.91 150.248C164.02 150.504 164.161 150.779 164.334 151.071C164.509 151.365 164.705 151.664 164.922 151.965C165.175 152.318 165.41 152.615 165.626 152.858C165.841 153.099 166.044 153.302 166.235 153.467C166.426 153.63 166.607 153.764 166.777 153.865C166.947 153.966 167.112 154.047 167.272 154.111L163.768 149.077ZM173.021 161.784C173.096 161.665 173.113 161.492 173.075 161.269C173.036 161.046 172.952 160.785 172.822 160.488C172.693 160.191 172.519 159.861 172.3 159.498C172.083 159.136 171.826 158.748 171.529 158.335C171.265 157.968 171.022 157.661 170.802 157.418C170.583 157.175 170.377 156.974 170.184 156.815C169.994 156.658 169.813 156.534 169.647 156.449C169.48 156.362 169.314 156.288 169.152 156.228L173.021 161.784Z" fill="#FCB048"/>
<path d="M171.092 154.431C165.63 146.752 159.268 139.238 157.05 138.89C157.04 138.973 157.024 139.054 157.003 139.134C158.677 139.566 164.287 145.517 170.783 154.65C177.446 164.017 181.255 171.409 180.903 172.883C180.982 172.887 181.061 172.894 181.14 172.908C181.743 170.888 176.65 162.245 171.092 154.431Z" fill="url(#paint48_linear_117_165)"/>
<path d="M139.25 117.463C139.25 117.463 140.752 117.883 140.912 120.053C140.666 120.036 140.094 120.053 140.094 120.053C140.094 120.053 140.2 118.475 139.131 118.168C139.217 117.984 139.25 117.463 139.25 117.463Z" fill="url(#paint49_linear_117_165)"/>
<path d="M133.736 117.332C133.774 117.728 133.811 118.123 133.849 118.518C134.591 118.34 135.403 118.135 136.276 118.097C137.412 118.047 138.452 118.157 139.379 118.348C139.42 118.298 139.507 118.178 139.547 117.982C139.612 117.667 139.504 117.406 139.483 117.359C139.011 117.214 138.5 117.093 137.951 117.01C136.378 116.772 134.957 117.008 133.736 117.332Z" fill="url(#paint50_linear_117_165)"/>
<path d="M133.666 117.675C133.669 117.532 133.681 117.353 133.736 117.332C133.789 117.313 133.859 117.442 133.889 117.514C133.901 117.544 133.929 117.616 133.946 117.847C133.969 118.144 133.943 118.29 133.919 118.38C133.905 118.434 133.882 118.516 133.849 118.518C133.822 118.52 133.799 118.468 133.764 118.368C133.718 118.233 133.661 118.007 133.666 117.675Z" fill="url(#paint51_linear_117_165)"/>
<path d="M132.298 120.172C132.609 120.223 133.366 120.376 133.366 120.376C133.366 120.376 132.873 118.988 133.803 118.347C133.827 118.242 133.852 118.076 133.822 117.875C133.8 117.721 133.752 117.597 133.711 117.511C133.316 117.707 132.456 118.365 132.298 120.172Z" fill="url(#paint52_linear_117_165)"/>
<path d="M125.859 120.538C125.859 120.538 125.897 119.809 127.195 119.809C127.4 119.942 127.41 120.538 127.41 120.538H125.859Z" fill="url(#paint53_linear_117_165)"/>
<path d="M124.706 134.872L128.259 136.793L130.412 129.736L126.865 120.275L125.859 120.538L124.332 134.126C124.298 134.434 124.447 134.732 124.706 134.872Z" fill="url(#paint54_linear_117_165)"/>
<path opacity="0.3" d="M130.412 129.736L126.865 120.275L125.859 120.538C126.106 121.373 126.225 122.733 126.281 123.49C126.519 126.711 127.309 127.608 126.926 129.855C126.608 131.724 125.913 131.977 125.974 133.234C126.04 134.604 126.934 135.75 127.997 136.652L128.259 136.793L130.412 129.736Z" fill="url(#paint55_linear_117_165)"/>
<path d="M126.865 120.275H146.374L149.446 135.272L128.259 136.793L126.865 120.275Z" fill="url(#paint56_linear_117_165)"/>
<g opacity="0.2">
<path d="M146.374 120.275H139.802C139.681 120.582 139.496 121.007 139.226 121.488C136.287 126.723 129.558 127.383 129.679 128.243C129.861 129.529 144.845 127.704 145.227 129.471C145.412 130.324 142.248 132.263 138.942 132.997C134.983 133.876 132.074 132.768 130.139 134.743C129.484 135.412 129.194 136.195 129.054 136.725L149.446 135.272L146.374 120.275Z" fill="url(#paint57_linear_117_165)"/>
</g>
<path d="M127.195 119.809C126.975 119.809 126.668 119.784 126.334 119.96C126.262 119.997 126.199 120.038 126.144 120.08L126.298 120.031C126.546 119.966 126.887 120.053 127.014 120.275C127.171 120.547 127.227 121.178 127.262 121.491C127.359 122.38 127.958 127.911 127.958 127.911C128.003 128.377 128.399 128.73 128.867 128.721L147.015 127.878C147.153 127.875 147.289 127.837 147.403 127.759C147.64 127.597 147.748 127.315 147.693 127.047L146.773 120.459C146.696 120.081 146.362 119.809 145.976 119.809L127.195 119.809Z" fill="url(#paint58_linear_117_165)"/>
<path d="M127.389 119.809C127.17 119.809 126.909 119.782 126.618 119.852C126.54 119.871 126.415 119.905 126.359 119.947C126.359 119.947 126.975 119.815 127.209 120.275C127.351 120.555 127.422 121.178 127.456 121.491C127.553 122.38 128.152 127.911 128.152 127.911C128.197 128.377 128.593 128.73 129.062 128.721L147.414 128.369C147.552 128.366 147.688 128.328 147.802 128.25C148.039 128.087 148.146 127.805 148.091 127.538L146.968 120.459C146.89 120.081 146.557 119.809 146.17 119.809L127.389 119.809Z" fill="url(#paint59_linear_117_165)"/>
<path opacity="0.1" d="M148.091 127.538L146.968 120.459C146.89 120.081 146.557 119.809 146.17 119.809H127.389C127.17 119.809 126.909 119.782 126.618 119.852C126.54 119.871 126.415 119.905 126.359 119.947C126.359 119.947 126.975 119.815 127.209 120.275C127.231 120.319 127.251 120.372 127.27 120.431C129.054 120.494 130.838 120.448 132.621 120.551C136.147 120.749 139.712 120.749 143.04 122.017C144.104 122.423 144.834 123.879 144.545 124.552C144.337 125.038 143.626 124.999 143.378 125.636C143.118 126.306 143.743 126.761 143.481 127.231C143.206 127.724 142.371 127.489 141.019 127.841C140.275 128.034 139.704 128.32 139.347 128.524L147.414 128.369C147.552 128.366 147.688 128.328 147.802 128.25C148.039 128.087 148.146 127.805 148.091 127.538Z" fill="url(#paint60_linear_117_165)"/>
<path d="M139.308 129.687L137.01 130.179L136.768 130.196C136.523 130.214 136.313 130.026 136.302 129.778L136.201 127.436C136.19 127.188 136.384 126.983 136.629 126.979L136.873 126.976L139.183 127.238C139.404 127.235 139.59 127.13 139.6 127.363L139.694 129.559C139.704 129.792 139.529 129.671 139.308 129.687Z" fill="url(#paint61_linear_117_165)"/>
<path d="M139.483 130.011L136.937 130.196C136.692 130.214 136.482 130.026 136.471 129.778L136.371 127.436C136.36 127.188 136.553 126.983 136.799 126.979L139.351 126.945C139.572 126.942 139.759 127.13 139.769 127.362L139.864 129.559C139.874 129.792 139.703 129.995 139.483 130.011Z" fill="url(#paint62_linear_117_165)"/>
<path d="M102.556 95.8755C102.556 95.8755 102.556 94.1983 102.106 93.5846C101.657 92.971 100.797 92.6908 100.675 92.1968C100.552 91.7028 102.106 92.8074 102.679 93.0528C103.252 93.2983 106.359 91.6333 106.647 91.4574C107.384 91.0075 106.361 92.8074 105.297 93.3392C104.234 93.871 103.661 93.9119 103.661 93.9119L103.947 95.8755H102.802H102.556Z" fill="url(#paint63_linear_117_165)"/>
<path d="M75.6451 91.3998C77.0993 89.9666 79.8732 90.1858 81.543 90.7296C84.6835 91.7524 84.9333 94.2543 89.6168 97.9953C91.8613 99.7882 93.0155 100.685 94.5763 100.676C98.3978 100.656 100.996 95.2661 101.412 94.3762C102.662 94.5624 103.912 94.7485 105.162 94.9347C105.755 101.481 102.125 107.622 96.3189 110.059C87.3821 113.81 79.7268 106.085 79.3983 105.742C75.2671 101.429 73.0152 93.9916 75.6451 91.3998Z" fill="url(#paint64_linear_117_165)"/>
<path d="M63.206 176.793C62.9234 177.052 62.9057 177.659 62.8941 178.056C62.8888 178.233 62.8862 178.322 62.9097 178.383C63.0811 178.828 63.9645 178.822 65.3538 178.879C67.5493 178.968 68.2091 179.1 68.3601 178.765C68.5014 178.451 68.0838 177.976 68.0368 177.924C67.7843 177.643 67.49 177.553 66.9224 177.404C65.8723 177.128 65.1655 176.985 64.9514 176.942C63.615 176.671 63.3915 176.622 63.206 176.793Z" fill="url(#paint65_linear_117_165)"/>
<path d="M64.7454 174.603L64.8315 177.102C64.7631 177.219 64.0045 177.54 63.4337 177.2L63.0025 174.725L64.7454 174.603Z" fill="url(#paint66_linear_117_165)"/>
<path d="M81.6998 176.444C81.3225 176.819 81.2026 177.539 81.4936 177.913C81.7796 178.28 82.2518 178.041 83.5491 178.149C84.9387 178.265 85.2846 178.613 86.2444 178.402C86.6321 178.317 87.3207 178.097 87.3224 177.823C87.3235 177.631 86.9853 177.513 85.8581 177.068C84.2582 176.435 84.267 176.406 83.9242 176.33C83.063 176.14 82.1983 175.949 81.6998 176.444Z" fill="url(#paint67_linear_117_165)"/>
<path d="M82.7124 174.221L83.2869 176.581C83.2276 176.702 82.4957 177.08 81.9007 176.784L80.9839 174.475L82.7124 174.221Z" fill="url(#paint68_linear_117_165)"/>
<path d="M79.2162 123.032C78.9009 130.841 78.9664 139.645 79.737 149.246C80.4984 158.736 81.8152 167.344 83.3475 174.933C82.444 175.125 81.5406 175.317 80.6372 175.51C78.4896 173.282 75.8154 169.814 74.6894 165.053C73.9905 162.099 74.3546 160.619 74.0035 157.012C73.4445 151.268 71.8568 148.191 70.2963 143.5C68.894 139.285 67.2991 133.124 66.702 124.971C70.8734 124.324 75.0448 123.678 79.2162 123.032Z" fill="url(#paint69_linear_117_165)"/>
<path opacity="0.3" d="M77.975 159.53C76.9795 155.59 75.0627 154.548 74.9938 150.83C74.945 148.199 75.8903 147.984 75.8271 145.466C75.7312 141.647 73.4936 139.645 72.3692 137.243C71.1817 134.706 70.7261 130.631 73.9241 123.852C71.5167 124.225 69.1093 124.598 66.702 124.971C67.299 133.124 68.8939 139.285 70.2963 143.5C71.8569 148.191 73.4445 151.268 74.0035 157.012C74.3545 160.619 73.9905 162.099 74.6893 165.053C75.8154 169.814 78.4895 173.282 80.6371 175.51C80.8669 175.461 81.0967 175.412 81.3265 175.363C79.0048 172.593 78.1853 170.119 77.9766 168.111C77.637 164.845 78.9787 163.502 77.975 159.53Z" fill="url(#paint70_linear_117_165)"/>
<path d="M70.1858 122.545C69.1124 132.442 68.126 142.529 67.2387 152.8C66.5728 160.508 65.9798 168.121 65.455 175.637C64.5393 175.701 63.6234 175.765 62.7076 175.829C61.9156 174.146 60.8811 171.581 60.2518 168.331C59.4876 164.384 59.8357 162.083 59.6245 158.022C59.3875 153.469 58.7455 152.445 57.8194 146.668C55.9398 134.942 55 129.079 57.9768 125.621C58.9431 124.499 61.9335 121.713 70.1858 122.545Z" fill="url(#paint71_linear_117_165)"/>
<path d="M46.4622 91.7754C51.409 90.0972 58.957 88.2372 68.1888 88.6159C73.5368 88.8352 78.1347 89.7521 81.7779 90.7719C82.271 93.5265 82.764 96.2812 83.2571 99.0359C83.3708 101.798 83.408 105.539 83.0985 109.96C82.789 114.381 82.4851 114.447 81.7754 120.688C80.6183 130.861 81.1035 133.519 79.0591 134.742C77.7293 135.537 77.2481 134.577 70.4617 133.906C65.9111 133.456 63.5887 133.247 61.2845 134.027C58.1467 135.089 57.0969 136.872 55.8023 136.292C54.5609 135.736 54.4024 133.593 54.2518 129.857C54.0195 124.093 54.033 120.175 54.0114 118.772C53.9123 112.338 52.2821 107.425 50.1942 101.134C48.8882 97.1986 47.5129 94.0138 46.4622 91.7754Z" fill="url(#paint72_linear_117_165)"/>
<path d="M67.5764 82.2417C67.5039 83.8595 67.2552 85.1323 67.0378 86.0015C66.7888 86.9974 66.6341 87.2499 66.443 87.4512C66.1556 87.7544 65.7312 87.9989 63.3834 88.4502C62.1059 88.6957 61.944 88.6786 61.9095 88.8022C61.7412 89.4054 65.069 91.6689 68.6479 91.3565C70.8384 91.1654 72.8825 90.0303 72.7957 89.3725C72.7084 88.7104 70.518 88.9466 69.9339 87.7262C69.5275 86.8773 70.0946 85.733 70.7428 84.7948C70.2225 83.6813 68.0965 83.3551 67.5764 82.2417Z" fill="url(#paint73_linear_117_165)"/>
<path d="M71.5775 83.0957C72.1269 82.4415 72.2218 81.2533 71.6706 80.4696C71.1963 79.7953 70.4006 79.6605 69.9243 79.5795C68.5438 79.3453 66.7605 79.8318 66.0828 81.0777C65.6814 81.816 66.3789 83.4317 66.4862 83.7212C66.6078 84.0485 66.8531 84.1717 67.0727 84.426C67.3768 84.7787 67.8526 85.339 68.6281 86.2751C68.706 86.0152 68.8206 85.6945 68.9938 85.3494C69.0605 85.2166 69.3276 84.6982 69.7124 84.2771C70.4832 83.4327 71.0567 83.7158 71.5775 83.0957Z" fill="url(#paint74_linear_117_165)"/>
<path d="M67.4941 85.4622C67.4941 85.4622 68.3274 87.0088 70.1518 86.9873C71.785 86.9679 72.2177 83.3304 71.2193 82.5006C70.8862 82.2237 70.1972 82.0793 69.624 82.2076C69.2854 82.2834 69.165 82.416 68.6094 82.5289C68.0969 82.6332 67.9571 82.5696 67.7976 82.6898C67.5983 82.8403 67.4374 83.2267 67.6994 84.3107C67.4056 83.9799 67.0393 83.8393 66.7685 83.9499C66.7253 83.9677 66.6095 84.0377 66.5405 84.1495C66.2907 84.5543 66.6432 85.1071 67.4941 85.4622Z" fill="url(#paint75_linear_117_165)"/>
<path d="M67.7357 82.4676C67.8111 82.5303 67.5556 82.8103 67.5156 83.2239C67.4379 84.0266 68.201 85.0358 69.0274 85.1619C69.516 85.2364 69.6668 84.9476 70.4833 84.905C70.989 84.8787 71.404 84.9649 71.6642 85.0365C71.8724 85.9325 71.5855 86.7995 70.9739 87.1763C70.3155 87.5819 69.5186 87.2722 69.1853 87.1426C68.9625 87.056 68.2481 86.7799 67.9036 86.093C67.5447 85.3771 67.9555 84.979 67.5263 84.4849C67.3099 84.2357 67.0144 84.1171 66.7459 83.6426C66.673 83.5138 66.6258 83.4006 66.5973 83.3248C67.0409 82.902 67.6265 82.3767 67.7357 82.4676Z" fill="url(#paint76_linear_117_165)"/>
<path d="M71.056 85.332C71.056 85.332 70.6947 85.4971 70.0891 85.4305C70.0597 85.4272 70.0265 85.4341 70.022 85.4492C70.0049 85.5061 70.3809 85.7852 70.7454 85.7035C71.0042 85.6452 71.2154 85.4145 71.1843 85.3512C71.1711 85.3247 71.1133 85.3249 71.056 85.332Z" fill="white"/>
<path d="M66.8244 91.3086C67.1229 92.4369 67.4723 92.7334 67.7455 92.7839L68.4987 92.7705C68.6314 92.288 68.7642 91.8053 68.8968 91.3229C68.5911 91.3619 68.2393 91.3883 67.8497 91.3851C67.4686 91.3819 67.1243 91.3511 66.8244 91.3086Z" fill="url(#paint77_linear_117_165)"/>
<path d="M67.5262 92.6891C67.5262 92.6891 67.9999 103.508 64.8903 105.665C65.0216 105.996 65.3069 108.789 65.3069 108.789C65.3069 108.789 68.2935 107.437 68.4791 107.475C68.6648 107.513 71.4619 101.082 68.4987 92.7705L67.5262 92.6891Z" fill="url(#paint78_linear_117_165)"/>
<path opacity="0.3" d="M76.4204 131.402C73.0823 129.978 73.1012 127.031 69.9834 125.801C65.5346 124.047 60.6204 128.126 59.8529 126.995C59.0541 125.819 64.9235 122.21 64.1421 118.651C63.5209 115.824 59.4234 116.326 57.2281 112.455C55.1455 108.783 57.1633 105.388 55.3196 104.112C54.6584 103.655 53.4922 103.474 51.2813 104.448C52.824 109.263 53.9303 113.509 54.0113 118.772C54.0329 120.175 54.0194 124.093 54.2517 129.857C54.4023 133.593 54.5608 135.736 55.8022 136.292C57.0969 136.872 58.1467 135.089 61.2844 134.027C63.5887 133.247 65.911 133.456 70.4616 133.906C77.248 134.577 77.7293 135.537 79.059 134.742C79.9249 134.224 80.3365 133.445 80.6119 131.95C79.2514 132.097 77.8081 131.994 76.4204 131.402Z" fill="url(#paint79_linear_117_165)"/>
<path d="M70.6497 104.423L56.979 105.57C56.8348 105.582 56.7205 105.685 56.6898 105.831L52.8114 124.258C52.7559 124.522 53.1123 125.189 53.3668 125.164L66.5248 123.412C66.6645 123.398 66.7728 123.302 66.8054 123.164L71.3358 105.208C71.3986 104.941 70.9255 104.4 70.6497 104.423Z" fill="url(#paint80_linear_117_165)"/>
<path d="M70.937 104.878L57.241 106.008C57.0966 106.02 56.9821 106.123 56.9513 106.269L53.0683 124.713C53.0128 124.977 53.2442 125.255 53.4989 125.229L66.8068 123.886C66.9468 123.872 67.0553 123.775 67.088 123.637L71.3882 105.394C71.4513 105.127 71.2133 104.855 70.937 104.878Z" fill="url(#paint81_linear_117_165)"/>
<path d="M67.1561 105.742L67.492 104.221C67.5223 104.084 67.4049 103.945 67.2642 103.951L62.2337 104.181C62.1483 104.185 62.0803 104.246 62.0657 104.332L61.7834 105.983C61.7602 106.119 61.8767 106.251 62.0112 106.241L66.9912 105.884C67.0731 105.879 67.1384 105.822 67.1561 105.742Z" fill="white"/>
<path opacity="0.3" d="M60.6327 120.789C61.1241 117.759 59.4227 115.809 60.5946 113.455C62.2617 110.106 67.0446 111.394 68.1279 108.648C68.4208 107.906 68.4594 106.813 67.698 105.145L70.937 104.878C71.2133 104.855 71.4513 105.127 71.3883 105.394L67.088 123.637C67.0554 123.776 66.9468 123.871 66.8069 123.886L58.5956 124.715C59.8772 123.382 60.433 122.02 60.6327 120.789Z" fill="white"/>
<path d="M51.2813 118.978C51.2813 118.978 52.733 118.887 52.8056 118.718C52.8783 118.549 54.4649 117.066 54.4128 117.534C54.3608 118.003 54.083 118.815 54.1788 118.9C54.2745 118.984 57.0788 118.263 57.5469 117.886C58.0151 117.509 58.0021 119.524 57.2738 120.252C56.5455 120.981 55.076 121.072 54.1007 121.137C53.1253 121.202 51.2025 120.849 50.9545 120.96C51.3605 120.124 51.2813 118.978 51.2813 118.978Z" fill="url(#paint82_linear_117_165)"/>
<path d="M51.527 118.205C51.6419 119.549 51.3494 120.461 50.8611 121.087C48.6971 123.861 41.3406 122.728 36.9677 119.014C33.7309 116.265 32.0165 111.995 32.0791 108.169C32.2013 100.703 39.1188 93.3867 49.41 90.8575C50.9343 95.4112 52.4585 99.188 53.9828 103.742C47.6378 103.84 43.7838 109.401 44.3561 112.815C44.7824 115.359 47.7496 117.646 51.527 118.205Z" fill="url(#paint83_linear_117_165)"/>
<defs>
<linearGradient id="paint0_linear_117_165" x1="137.372" y1="102.899" x2="116.155" y2="166.202" gradientUnits="userSpaceOnUse">
<stop stop-color="#AA80F9"/>
<stop offset="0.9964" stop-color="#6165D7"/>
</linearGradient>
<linearGradient id="paint1_linear_117_165" x1="157.795" y1="134.736" x2="66.6339" y2="172.039" gradientUnits="userSpaceOnUse">
<stop stop-color="#FF9085"/>
<stop offset="1" stop-color="#FB6FBB"/>
</linearGradient>
<linearGradient id="paint2_linear_117_165" x1="95.1345" y1="56.8079" x2="74.7609" y2="89.6152" gradientUnits="userSpaceOnUse">
<stop stop-color="#FF9085"/>
<stop offset="1" stop-color="#FB6FBB"/>
</linearGradient>
<linearGradient id="paint3_linear_117_165" x1="78.2886" y1="55.4703" x2="64.0019" y2="98.0965" gradientUnits="userSpaceOnUse">
<stop stop-color="#AA80F9"/>
<stop offset="0.9964" stop-color="#6165D7"/>
</linearGradient>
<linearGradient id="paint4_linear_117_165" x1="23.6363" y1="84.8946" x2="135.311" y2="130.592" gradientUnits="userSpaceOnUse">
<stop stop-color="#FF9085"/>
<stop offset="1" stop-color="#FB6FBB"/>
</linearGradient>
<linearGradient id="paint5_linear_117_165" x1="47.9182" y1="66.5707" x2="127.722" y2="154.51" gradientUnits="userSpaceOnUse">
<stop offset="0.0036" stop-color="#26264F"/>
<stop offset="1" stop-color="#444B8C"/>
</linearGradient>
<linearGradient id="paint6_linear_117_165" x1="46.8801" y1="109.149" x2="147.172" y2="106.355" gradientUnits="userSpaceOnUse">
<stop stop-color="#444B8C"/>
<stop offset="0.9964" stop-color="#26264F"/>
</linearGradient>
<linearGradient id="paint7_linear_117_165" x1="117.858" y1="133.004" x2="57.1373" y2="83.3231" gradientUnits="userSpaceOnUse">
<stop stop-color="#444B8C"/>
<stop offset="0.9964" stop-color="#26264F"/>
</linearGradient>
<linearGradient id="paint8_linear_117_165" x1="92.8098" y1="158.304" x2="91.1514" y2="170.933" gradientUnits="userSpaceOnUse">
<stop stop-color="#444B8C"/>
<stop offset="0.9964" stop-color="#26264F"/>
</linearGradient>
<linearGradient id="paint9_linear_117_165" x1="72.7745" y1="127.18" x2="12.6761" y2="199.824" gradientUnits="userSpaceOnUse">
<stop offset="0.0036" stop-color="#F36F56"/>
<stop offset="1" stop-color="#FFC444"/>
</linearGradient>
<linearGradient id="paint10_linear_117_165" x1="91.1924" y1="142.418" x2="31.0941" y2="215.061" gradientUnits="userSpaceOnUse">
<stop offset="0.0036" stop-color="#F36F56"/>
<stop offset="1" stop-color="#FFC444"/>
</linearGradient>
<linearGradient id="paint11_linear_117_165" x1="53.8958" y1="144.336" x2="161.261" y2="36.9706" gradientUnits="userSpaceOnUse">
<stop stop-color="#FFC444"/>
<stop offset="0.9964" stop-color="#F36F56"/>
</linearGradient>
<linearGradient id="paint12_linear_117_165" x1="66.2583" y1="156.698" x2="173.624" y2="49.3331" gradientUnits="userSpaceOnUse">
<stop stop-color="#FFC444"/>
<stop offset="0.9964" stop-color="#F36F56"/>
</linearGradient>
<linearGradient id="paint13_linear_117_165" x1="108.402" y1="173.859" x2="157.025" y2="173.859" gradientUnits="userSpaceOnUse">
<stop stop-color="#F57E53"/>
<stop offset="0.0045" stop-color="#F58152"/>
<stop offset="0.042" stop-color="#F99A4D"/>
<stop offset="0.084" stop-color="#FCAD49"/>
<stop offset="0.1333" stop-color="#FEBA46"/>
<stop offset="0.1962" stop-color="#FFC244"/>
<stop offset="0.3183" stop-color="#FFC444"/>
<stop offset="0.455" stop-color="#FDB946"/>
<stop offset="0.6941" stop-color="#F99C4C"/>
<stop offset="0.9964" stop-color="#F36F56"/>
</linearGradient>
<linearGradient id="paint14_linear_117_165" x1="132.937" y1="168.382" x2="135.5" y2="189.841" gradientUnits="userSpaceOnUse">
<stop stop-color="#FFDB44"/>
<stop offset="1" stop-color="#FEEF06"/>
</linearGradient>
<linearGradient id="paint15_linear_117_165" x1="132.825" y1="167.425" x2="133.613" y2="174.015" gradientUnits="userSpaceOnUse">
<stop stop-color="#FFDB44"/>
<stop offset="1" stop-color="#FEEF06"/>
</linearGradient>
<linearGradient id="paint16_linear_117_165" x1="133.565" y1="173.324" x2="132.781" y2="166.757" gradientUnits="userSpaceOnUse">
<stop offset="0.0036" stop-color="#F36F56"/>
<stop offset="0.3059" stop-color="#F99C4C"/>
<stop offset="0.545" stop-color="#FDB946"/>
<stop offset="0.6817" stop-color="#FFC444"/>
<stop offset="0.8038" stop-color="#FFC244"/>
<stop offset="0.8667" stop-color="#FEBA46"/>
<stop offset="0.916" stop-color="#FCAD49"/>
<stop offset="0.958" stop-color="#F99A4D"/>
<stop offset="0.9955" stop-color="#F58152"/>
<stop offset="1" stop-color="#F57E53"/>
</linearGradient>
<linearGradient id="paint17_linear_117_165" x1="102.527" y1="168.936" x2="151.15" y2="168.936" gradientUnits="userSpaceOnUse">
<stop stop-color="#F57E53"/>
<stop offset="0.0045" stop-color="#F58152"/>
<stop offset="0.042" stop-color="#F99A4D"/>
<stop offset="0.084" stop-color="#FCAD49"/>
<stop offset="0.1333" stop-color="#FEBA46"/>
<stop offset="0.1962" stop-color="#FFC244"/>
<stop offset="0.3183" stop-color="#FFC444"/>
<stop offset="0.455" stop-color="#FDB946"/>
<stop offset="0.6941" stop-color="#F99C4C"/>
<stop offset="0.9964" stop-color="#F36F56"/>
</linearGradient>
<linearGradient id="paint18_linear_117_165" x1="127.062" y1="163.459" x2="129.625" y2="184.918" gradientUnits="userSpaceOnUse">
<stop stop-color="#FFDB44"/>
<stop offset="1" stop-color="#FEEF06"/>
</linearGradient>
<linearGradient id="paint19_linear_117_165" x1="126.951" y1="162.502" x2="127.738" y2="169.092" gradientUnits="userSpaceOnUse">
<stop stop-color="#FFDB44"/>
<stop offset="1" stop-color="#FEEF06"/>
</linearGradient>
<linearGradient id="paint20_linear_117_165" x1="127.691" y1="168.401" x2="126.906" y2="161.834" gradientUnits="userSpaceOnUse">
<stop offset="0.0036" stop-color="#F36F56"/>
<stop offset="0.3059" stop-color="#F99C4C"/>
<stop offset="0.545" stop-color="#FDB946"/>
<stop offset="0.6817" stop-color="#FFC444"/>
<stop offset="0.8038" stop-color="#FFC244"/>
<stop offset="0.8667" stop-color="#FEBA46"/>
<stop offset="0.916" stop-color="#FCAD49"/>
<stop offset="0.958" stop-color="#F99A4D"/>
<stop offset="0.9955" stop-color="#F58152"/>
<stop offset="1" stop-color="#F57E53"/>
</linearGradient>
<linearGradient id="paint21_linear_117_165" x1="107.596" y1="164.027" x2="156.219" y2="164.027" gradientUnits="userSpaceOnUse">
<stop stop-color="#F57E53"/>
<stop offset="0.0045" stop-color="#F58152"/>
<stop offset="0.042" stop-color="#F99A4D"/>
<stop offset="0.084" stop-color="#FCAD49"/>
<stop offset="0.1333" stop-color="#FEBA46"/>
<stop offset="0.1962" stop-color="#FFC244"/>
<stop offset="0.3183" stop-color="#FFC444"/>
<stop offset="0.455" stop-color="#FDB946"/>
<stop offset="0.6941" stop-color="#F99C4C"/>
<stop offset="0.9964" stop-color="#F36F56"/>
</linearGradient>
<linearGradient id="paint22_linear_117_165" x1="132.131" y1="158.55" x2="134.694" y2="180.009" gradientUnits="userSpaceOnUse">
<stop stop-color="#FFDB44"/>
<stop offset="1" stop-color="#FEEF06"/>
</linearGradient>
<linearGradient id="paint23_linear_117_165" x1="132.02" y1="157.593" x2="132.807" y2="164.183" gradientUnits="userSpaceOnUse">
<stop stop-color="#FFDB44"/>
<stop offset="1" stop-color="#FEEF06"/>
</linearGradient>
<linearGradient id="paint24_linear_117_165" x1="132.76" y1="163.492" x2="131.975" y2="156.925" gradientUnits="userSpaceOnUse">
<stop offset="0.0036" stop-color="#F36F56"/>
<stop offset="0.3059" stop-color="#F99C4C"/>
<stop offset="0.545" stop-color="#FDB946"/>
<stop offset="0.6817" stop-color="#FFC444"/>
<stop offset="0.8038" stop-color="#FFC244"/>
<stop offset="0.8667" stop-color="#FEBA46"/>
<stop offset="0.916" stop-color="#FCAD49"/>
<stop offset="0.958" stop-color="#F99A4D"/>
<stop offset="0.9955" stop-color="#F58152"/>
<stop offset="1" stop-color="#F57E53"/>
</linearGradient>
<linearGradient id="paint25_linear_117_165" x1="110.672" y1="159.103" x2="159.295" y2="159.103" gradientUnits="userSpaceOnUse">
<stop stop-color="#F57E53"/>
<stop offset="0.0045" stop-color="#F58152"/>
<stop offset="0.042" stop-color="#F99A4D"/>
<stop offset="0.084" stop-color="#FCAD49"/>
<stop offset="0.1333" stop-color="#FEBA46"/>
<stop offset="0.1962" stop-color="#FFC244"/>
<stop offset="0.3183" stop-color="#FFC444"/>
<stop offset="0.455" stop-color="#FDB946"/>
<stop offset="0.6941" stop-color="#F99C4C"/>
<stop offset="0.9964" stop-color="#F36F56"/>
</linearGradient>
<linearGradient id="paint26_linear_117_165" x1="135.207" y1="153.626" x2="137.77" y2="175.085" gradientUnits="userSpaceOnUse">
<stop stop-color="#FFDB44"/>
<stop offset="1" stop-color="#FEEF06"/>
</linearGradient>
<linearGradient id="paint27_linear_117_165" x1="135.096" y1="152.669" x2="135.883" y2="159.26" gradientUnits="userSpaceOnUse">
<stop stop-color="#FFDB44"/>
<stop offset="1" stop-color="#FEEF06"/>
</linearGradient>
<linearGradient id="paint28_linear_117_165" x1="135.836" y1="158.569" x2="135.051" y2="152.002" gradientUnits="userSpaceOnUse">
<stop offset="0.0036" stop-color="#F36F56"/>
<stop offset="0.3059" stop-color="#F99C4C"/>
<stop offset="0.545" stop-color="#FDB946"/>
<stop offset="0.6817" stop-color="#FFC444"/>
<stop offset="0.8038" stop-color="#FFC244"/>
<stop offset="0.8667" stop-color="#FEBA46"/>
<stop offset="0.916" stop-color="#FCAD49"/>
<stop offset="0.958" stop-color="#F99A4D"/>
<stop offset="0.9955" stop-color="#F58152"/>
<stop offset="1" stop-color="#F57E53"/>
</linearGradient>
<linearGradient id="paint29_linear_117_165" x1="108.402" y1="153.792" x2="157.025" y2="153.792" gradientUnits="userSpaceOnUse">
<stop stop-color="#F57E53"/>
<stop offset="0.0045" stop-color="#F58152"/>
<stop offset="0.042" stop-color="#F99A4D"/>
<stop offset="0.084" stop-color="#FCAD49"/>
<stop offset="0.1333" stop-color="#FEBA46"/>
<stop offset="0.1962" stop-color="#FFC244"/>
<stop offset="0.3183" stop-color="#FFC444"/>
<stop offset="0.455" stop-color="#FDB946"/>
<stop offset="0.6941" stop-color="#F99C4C"/>
<stop offset="0.9964" stop-color="#F36F56"/>
</linearGradient>
<linearGradient id="paint30_linear_117_165" x1="132.937" y1="148.314" x2="135.5" y2="169.773" gradientUnits="userSpaceOnUse">
<stop stop-color="#FFDB44"/>
<stop offset="1" stop-color="#FEEF06"/>
</linearGradient>
<linearGradient id="paint31_linear_117_165" x1="132.825" y1="147.357" x2="133.613" y2="153.948" gradientUnits="userSpaceOnUse">
<stop stop-color="#FFDB44"/>
<stop offset="1" stop-color="#FEEF06"/>
</linearGradient>
<linearGradient id="paint32_linear_117_165" x1="133.565" y1="153.257" x2="132.781" y2="146.69" gradientUnits="userSpaceOnUse">
<stop offset="0.0036" stop-color="#F36F56"/>
<stop offset="0.3059" stop-color="#F99C4C"/>
<stop offset="0.545" stop-color="#FDB946"/>
<stop offset="0.6817" stop-color="#FFC444"/>
<stop offset="0.8038" stop-color="#FFC244"/>
<stop offset="0.8667" stop-color="#FEBA46"/>
<stop offset="0.916" stop-color="#FCAD49"/>
<stop offset="0.958" stop-color="#F99A4D"/>
<stop offset="0.9955" stop-color="#F58152"/>
<stop offset="1" stop-color="#F57E53"/>
</linearGradient>
<linearGradient id="paint33_linear_117_165" x1="102.527" y1="148.868" x2="151.15" y2="148.868" gradientUnits="userSpaceOnUse">
<stop stop-color="#F57E53"/>
<stop offset="0.0045" stop-color="#F58152"/>
<stop offset="0.042" stop-color="#F99A4D"/>
<stop offset="0.084" stop-color="#FCAD49"/>
<stop offset="0.1333" stop-color="#FEBA46"/>
<stop offset="0.1962" stop-color="#FFC244"/>
<stop offset="0.3183" stop-color="#FFC444"/>
<stop offset="0.455" stop-color="#FDB946"/>
<stop offset="0.6941" stop-color="#F99C4C"/>
<stop offset="0.9964" stop-color="#F36F56"/>
</linearGradient>
<linearGradient id="paint34_linear_117_165" x1="127.062" y1="143.391" x2="129.625" y2="164.85" gradientUnits="userSpaceOnUse">
<stop stop-color="#FFDB44"/>
<stop offset="1" stop-color="#FEEF06"/>
</linearGradient>
<linearGradient id="paint35_linear_117_165" x1="126.951" y1="142.434" x2="127.738" y2="149.025" gradientUnits="userSpaceOnUse">
<stop stop-color="#FFDB44"/>
<stop offset="1" stop-color="#FEEF06"/>
</linearGradient>
<linearGradient id="paint36_linear_117_165" x1="127.691" y1="148.334" x2="126.906" y2="141.767" gradientUnits="userSpaceOnUse">
<stop offset="0.0036" stop-color="#F36F56"/>
<stop offset="0.3059" stop-color="#F99C4C"/>
<stop offset="0.545" stop-color="#FDB946"/>
<stop offset="0.6817" stop-color="#FFC444"/>
<stop offset="0.8038" stop-color="#FFC244"/>
<stop offset="0.8667" stop-color="#FEBA46"/>
<stop offset="0.916" stop-color="#FCAD49"/>
<stop offset="0.958" stop-color="#F99A4D"/>
<stop offset="0.9955" stop-color="#F58152"/>
<stop offset="1" stop-color="#F57E53"/>
</linearGradient>
<linearGradient id="paint37_linear_117_165" x1="107.596" y1="143.959" x2="156.219" y2="143.959" gradientUnits="userSpaceOnUse">
<stop stop-color="#F57E53"/>
<stop offset="0.0045" stop-color="#F58152"/>
<stop offset="0.042" stop-color="#F99A4D"/>
<stop offset="0.084" stop-color="#FCAD49"/>
<stop offset="0.1333" stop-color="#FEBA46"/>
<stop offset="0.1962" stop-color="#FFC244"/>
<stop offset="0.3183" stop-color="#FFC444"/>
<stop offset="0.455" stop-color="#FDB946"/>
<stop offset="0.6941" stop-color="#F99C4C"/>
<stop offset="0.9964" stop-color="#F36F56"/>
</linearGradient>
<linearGradient id="paint38_linear_117_165" x1="132.131" y1="138.482" x2="134.694" y2="159.941" gradientUnits="userSpaceOnUse">
<stop stop-color="#FFDB44"/>
<stop offset="1" stop-color="#FEEF06"/>
</linearGradient>
<linearGradient id="paint39_linear_117_165" x1="132.02" y1="137.525" x2="132.807" y2="144.116" gradientUnits="userSpaceOnUse">
<stop stop-color="#FFDB44"/>
<stop offset="1" stop-color="#FEEF06"/>
</linearGradient>
<linearGradient id="paint40_linear_117_165" x1="132.76" y1="143.425" x2="131.975" y2="136.858" gradientUnits="userSpaceOnUse">
<stop offset="0.0036" stop-color="#F36F56"/>
<stop offset="0.3059" stop-color="#F99C4C"/>
<stop offset="0.545" stop-color="#FDB946"/>
<stop offset="0.6817" stop-color="#FFC444"/>
<stop offset="0.8038" stop-color="#FFC244"/>
<stop offset="0.8667" stop-color="#FEBA46"/>
<stop offset="0.916" stop-color="#FCAD49"/>
<stop offset="0.958" stop-color="#F99A4D"/>
<stop offset="0.9955" stop-color="#F58152"/>
<stop offset="1" stop-color="#F57E53"/>
</linearGradient>
<linearGradient id="paint41_linear_117_165" x1="104.96" y1="139.036" x2="153.583" y2="139.036" gradientUnits="userSpaceOnUse">
<stop stop-color="#F57E53"/>
<stop offset="0.0045" stop-color="#F58152"/>
<stop offset="0.042" stop-color="#F99A4D"/>
<stop offset="0.084" stop-color="#FCAD49"/>
<stop offset="0.1333" stop-color="#FEBA46"/>
<stop offset="0.1962" stop-color="#FFC244"/>
<stop offset="0.3183" stop-color="#FFC444"/>
<stop offset="0.455" stop-color="#FDB946"/>
<stop offset="0.6941" stop-color="#F99C4C"/>
<stop offset="0.9964" stop-color="#F36F56"/>
</linearGradient>
<linearGradient id="paint42_linear_117_165" x1="129.494" y1="133.559" x2="132.058" y2="155.018" gradientUnits="userSpaceOnUse">
<stop stop-color="#FFDB44"/>
<stop offset="1" stop-color="#FEEF06"/>
</linearGradient>
<linearGradient id="paint43_linear_117_165" x1="129.383" y1="132.602" x2="130.17" y2="139.192" gradientUnits="userSpaceOnUse">
<stop stop-color="#FFDB44"/>
<stop offset="1" stop-color="#FEEF06"/>
</linearGradient>
<linearGradient id="paint44_linear_117_165" x1="130.123" y1="138.501" x2="129.339" y2="131.934" gradientUnits="userSpaceOnUse">
<stop offset="0.0036" stop-color="#F36F56"/>
<stop offset="0.3059" stop-color="#F99C4C"/>
<stop offset="0.545" stop-color="#FDB946"/>
<stop offset="0.6817" stop-color="#FFC444"/>
<stop offset="0.8038" stop-color="#FFC244"/>
<stop offset="0.8667" stop-color="#FEBA46"/>
<stop offset="0.916" stop-color="#FCAD49"/>
<stop offset="0.958" stop-color="#F99A4D"/>
<stop offset="0.9955" stop-color="#F58152"/>
<stop offset="1" stop-color="#F57E53"/>
</linearGradient>
<linearGradient id="paint45_linear_117_165" x1="151.728" y1="137.834" x2="179.91" y2="177.457" gradientUnits="userSpaceOnUse">
<stop stop-color="#F57E53"/>
<stop offset="0.0045" stop-color="#F58152"/>
<stop offset="0.042" stop-color="#F99A4D"/>
<stop offset="0.084" stop-color="#FCAD49"/>
<stop offset="0.1333" stop-color="#FEBA46"/>
<stop offset="0.1962" stop-color="#FFC244"/>
<stop offset="0.3183" stop-color="#FFC444"/>
<stop offset="0.455" stop-color="#FDB946"/>
<stop offset="0.6941" stop-color="#F99C4C"/>
<stop offset="0.9964" stop-color="#F36F56"/>
</linearGradient>
<linearGradient id="paint46_linear_117_165" x1="170.411" y1="154.653" x2="154.412" y2="169.178" gradientUnits="userSpaceOnUse">
<stop stop-color="#FFDB44"/>
<stop offset="1" stop-color="#FEEF06"/>
</linearGradient>
<linearGradient id="paint47_linear_117_165" x1="171.126" y1="154.008" x2="166.213" y2="158.468" gradientUnits="userSpaceOnUse">
<stop stop-color="#FFDB44"/>
<stop offset="1" stop-color="#FEEF06"/>
</linearGradient>
<linearGradient id="paint48_linear_117_165" x1="166.749" y1="158.029" x2="171.645" y2="153.584" gradientUnits="userSpaceOnUse">
<stop offset="0.0036" stop-color="#F36F56"/>
<stop offset="0.3059" stop-color="#F99C4C"/>
<stop offset="0.545" stop-color="#FDB946"/>
<stop offset="0.6817" stop-color="#FFC444"/>
<stop offset="0.8038" stop-color="#FFC244"/>
<stop offset="0.8667" stop-color="#FEBA46"/>
<stop offset="0.916" stop-color="#FCAD49"/>
<stop offset="0.958" stop-color="#F99A4D"/>
<stop offset="0.9955" stop-color="#F58152"/>
<stop offset="1" stop-color="#F57E53"/>
</linearGradient>
<linearGradient id="paint49_linear_117_165" x1="139.638" y1="124.818" x2="140.176" y2="116.804" gradientUnits="userSpaceOnUse">
<stop stop-color="#FFC444"/>
<stop offset="0.9964" stop-color="#F36F56"/>
</linearGradient>
<linearGradient id="paint50_linear_117_165" x1="136.347" y1="122.116" x2="136.732" y2="116.383" gradientUnits="userSpaceOnUse">
<stop offset="0.1" stop-color="#311944"/>
<stop offset="0.267" stop-color="#371B47"/>
<stop offset="0.4803" stop-color="#462150"/>
<stop offset="0.7186" stop-color="#612A5F"/>
<stop offset="0.9736" stop-color="#853774"/>
<stop offset="1" stop-color="#893976"/>
</linearGradient>
<linearGradient id="paint51_linear_117_165" x1="133.93" y1="117.994" x2="138.259" y2="120.315" gradientUnits="userSpaceOnUse">
<stop offset="0.1" stop-color="#311944"/>
<stop offset="0.267" stop-color="#371B47"/>
<stop offset="0.4803" stop-color="#462150"/>
<stop offset="0.7186" stop-color="#612A5F"/>
<stop offset="0.9736" stop-color="#853774"/>
<stop offset="1" stop-color="#893976"/>
</linearGradient>
<linearGradient id="paint52_linear_117_165" x1="132.62" y1="125.791" x2="133.233" y2="116.658" gradientUnits="userSpaceOnUse">
<stop stop-color="#FFC444"/>
<stop offset="0.9964" stop-color="#F36F56"/>
</linearGradient>
<linearGradient id="paint53_linear_117_165" x1="127.135" y1="125.085" x2="124.743" y2="103.218" gradientUnits="userSpaceOnUse">
<stop offset="0.1" stop-color="#311944"/>
<stop offset="0.6853" stop-color="#6D2F66"/>
<stop offset="1" stop-color="#893976"/>
</linearGradient>
<linearGradient id="paint54_linear_117_165" x1="137.824" y1="134.277" x2="121.63" y2="125.26" gradientUnits="userSpaceOnUse">
<stop stop-color="#311944"/>
<stop offset="1" stop-color="#893976"/>
</linearGradient>
<linearGradient id="paint55_linear_117_165" x1="123.245" y1="121.841" x2="128.059" y2="129.913" gradientUnits="userSpaceOnUse">
<stop stop-color="#311944"/>
<stop offset="1" stop-color="#893976"/>
</linearGradient>
<linearGradient id="paint56_linear_117_165" x1="136.994" y1="112.186" x2="138.742" y2="135.648" gradientUnits="userSpaceOnUse">
<stop offset="0.1" stop-color="#311944"/>
<stop offset="0.6853" stop-color="#6D2F66"/>
<stop offset="1" stop-color="#893976"/>
</linearGradient>
<linearGradient id="paint57_linear_117_165" x1="133.212" y1="125.031" x2="147.799" y2="136.27" gradientUnits="userSpaceOnUse">
<stop stop-color="#311944"/>
<stop offset="1" stop-color="#893976"/>
</linearGradient>
<linearGradient id="paint58_linear_117_165" x1="129.392" y1="124.208" x2="135.655" y2="123.964" gradientUnits="userSpaceOnUse">
<stop offset="0.1" stop-color="#311944"/>
<stop offset="0.6853" stop-color="#6D2F66"/>
<stop offset="1" stop-color="#893976"/>
</linearGradient>
<linearGradient id="paint59_linear_117_165" x1="138.934" y1="142.917" x2="137.002" y2="121.203" gradientUnits="userSpaceOnUse">
<stop offset="0.1" stop-color="#311944"/>
<stop offset="0.267" stop-color="#371B47"/>
<stop offset="0.4803" stop-color="#462150"/>
<stop offset="0.7186" stop-color="#612A5F"/>
<stop offset="0.9736" stop-color="#853774"/>
<stop offset="1" stop-color="#893976"/>
</linearGradient>
<linearGradient id="paint60_linear_117_165" x1="139.887" y1="148.057" x2="136.596" y2="117.971" gradientUnits="userSpaceOnUse">
<stop stop-color="#311944"/>
<stop offset="1" stop-color="#893976"/>
</linearGradient>
<linearGradient id="paint61_linear_117_165" x1="144.99" y1="132.323" x2="134.255" y2="126.711" gradientUnits="userSpaceOnUse">
<stop stop-color="#FFC444"/>
<stop offset="0.9964" stop-color="#F36F56"/>
</linearGradient>
<linearGradient id="paint62_linear_117_165" x1="135.336" y1="127.573" x2="146.397" y2="131.531" gradientUnits="userSpaceOnUse">
<stop stop-color="#FFC444"/>
<stop offset="0.9964" stop-color="#F36F56"/>
</linearGradient>
<linearGradient id="paint63_linear_117_165" x1="80.0865" y1="105.503" x2="47.7936" y2="122.239" gradientUnits="userSpaceOnUse">
<stop stop-color="#FFC444"/>
<stop offset="0.9964" stop-color="#F36F56"/>
</linearGradient>
<linearGradient id="paint64_linear_117_165" x1="89.6676" y1="32.6931" x2="90.0836" y2="161.698" gradientUnits="userSpaceOnUse">
<stop stop-color="#AA80F9"/>
<stop offset="0.9964" stop-color="#6165D7"/>
</linearGradient>
<linearGradient id="paint65_linear_117_165" x1="68.2986" y1="177.598" x2="62.8739" y2="178.087" gradientUnits="userSpaceOnUse">
<stop stop-color="#444B8C"/>
<stop offset="0.9964" stop-color="#26264F"/>
</linearGradient>
<linearGradient id="paint66_linear_117_165" x1="65.187" y1="177.819" x2="62.459" y2="173.052" gradientUnits="userSpaceOnUse">
<stop stop-color="#FFC444"/>
<stop offset="0.9964" stop-color="#F36F56"/>
</linearGradient>
<linearGradient id="paint67_linear_117_165" x1="87.0731" y1="176.665" x2="81.4199" y2="177.9" gradientUnits="userSpaceOnUse">
<stop stop-color="#444B8C"/>
<stop offset="0.9964" stop-color="#26264F"/>
</linearGradient>
<linearGradient id="paint68_linear_117_165" x1="83.5741" y1="177.371" x2="80.425" y2="172.729" gradientUnits="userSpaceOnUse">
<stop stop-color="#FFC444"/>
<stop offset="0.9964" stop-color="#F36F56"/>
</linearGradient>
<linearGradient id="paint69_linear_117_165" x1="85.6764" y1="167.158" x2="72.1114" y2="131.595" gradientUnits="userSpaceOnUse">
<stop stop-color="#40447E"/>
<stop offset="0.9964" stop-color="#3C3B6B"/>
</linearGradient>
<linearGradient id="paint70_linear_117_165" x1="83.2299" y1="168.091" x2="69.6649" y2="132.528" gradientUnits="userSpaceOnUse">
<stop stop-color="#40447E"/>
<stop offset="0.9964" stop-color="#3C3B6B"/>
</linearGradient>
<linearGradient id="paint71_linear_117_165" x1="76.989" y1="169.087" x2="59.1705" y2="135.453" gradientUnits="userSpaceOnUse">
<stop stop-color="#40447E"/>
<stop offset="0.9964" stop-color="#3C3B6B"/>
</linearGradient>
<linearGradient id="paint72_linear_117_165" x1="64.6927" y1="32.7737" x2="65.1088" y2="161.778" gradientUnits="userSpaceOnUse">
<stop stop-color="#AA80F9"/>
<stop offset="0.9964" stop-color="#6165D7"/>
</linearGradient>
<linearGradient id="paint73_linear_117_165" x1="70.0532" y1="86.1435" x2="37.7603" y2="102.879" gradientUnits="userSpaceOnUse">
<stop stop-color="#FFC444"/>
<stop offset="0.9964" stop-color="#F36F56"/>
</linearGradient>
<linearGradient id="paint74_linear_117_165" x1="65.1272" y1="90.3549" x2="69.758" y2="80.1097" gradientUnits="userSpaceOnUse">
<stop stop-color="#311944"/>
<stop offset="1" stop-color="#6B3976"/>
</linearGradient>
<linearGradient id="paint75_linear_117_165" x1="69.3165" y1="84.722" x2="37.0236" y2="101.458" gradientUnits="userSpaceOnUse">
<stop stop-color="#FFC444"/>
<stop offset="0.9964" stop-color="#F36F56"/>
</linearGradient>
<linearGradient id="paint76_linear_117_165" x1="66.3591" y1="90.9175" x2="70.9947" y2="80.6616" gradientUnits="userSpaceOnUse">
<stop stop-color="#311944"/>
<stop offset="1" stop-color="#6B3976"/>
</linearGradient>
<linearGradient id="paint77_linear_117_165" x1="66.8403" y1="86.3011" x2="68.526" y2="94.5857" gradientUnits="userSpaceOnUse">
<stop stop-color="#FF9085"/>
<stop offset="1" stop-color="#FB6FBB"/>
</linearGradient>
<linearGradient id="paint78_linear_117_165" x1="67.4832" y1="103.169" x2="64.979" y2="84.3924" gradientUnits="userSpaceOnUse">
<stop stop-color="#FF9085"/>
<stop offset="1" stop-color="#FB6FBB"/>
</linearGradient>
<linearGradient id="paint79_linear_117_165" x1="51.2812" y1="120.074" x2="80.6119" y2="120.074" gradientUnits="userSpaceOnUse">
<stop stop-color="#AA80F9"/>
<stop offset="0.9964" stop-color="#6165D7"/>
</linearGradient>
<linearGradient id="paint80_linear_117_165" x1="69.16" y1="120.196" x2="59.6227" y2="112.963" gradientUnits="userSpaceOnUse">
<stop offset="0.0036" stop-color="#26264F"/>
<stop offset="1" stop-color="#444B8C"/>
</linearGradient>
<linearGradient id="paint81_linear_117_165" x1="53.7803" y1="111.611" x2="76.1176" y2="120.718" gradientUnits="userSpaceOnUse">
<stop offset="0.0036" stop-color="#26264F"/>
<stop offset="1" stop-color="#444B8C"/>
</linearGradient>
<linearGradient id="paint82_linear_117_165" x1="80.4073" y1="106.122" x2="48.1144" y2="122.858" gradientUnits="userSpaceOnUse">
<stop stop-color="#FFC444"/>
<stop offset="0.9964" stop-color="#F36F56"/>
</linearGradient>
<linearGradient id="paint83_linear_117_165" x1="42.794" y1="32.8444" x2="43.2101" y2="161.849" gradientUnits="userSpaceOnUse">
<stop stop-color="#AA80F9"/>
<stop offset="0.9964" stop-color="#6165D7"/>
</linearGradient>
</defs>
</svg>
