<svg width="154" height="154" viewBox="0 0 154 154" fill="none" xmlns="http://www.w3.org/2000/svg">
<path d="M77 154C119.526 154 154 119.526 154 77C154 34.4741 119.526 0 77 0C34.4741 0 0 34.4741 0 77C0 119.526 34.4741 154 77 154Z" fill="#ADECF7"/>
<path fill-rule="evenodd" clip-rule="evenodd" d="M76.9819 127.119C104.596 127.119 127.119 104.597 127.119 76.9837C127.119 49.4033 104.596 26.8809 76.9819 26.8809C49.4037 26.8809 26.8811 49.4035 26.8811 76.9837C26.8811 104.597 49.4037 127.119 76.9819 127.119Z" fill="#FF313A"/>
<path fill-rule="evenodd" clip-rule="evenodd" d="M76.9818 117.644C99.3986 117.644 117.643 99.3991 117.643 76.9836C117.643 54.6008 99.3986 36.3562 76.9818 36.3562C54.601 36.3562 36.3557 54.6008 36.3557 76.9836C36.3557 99.3992 54.601 117.644 76.9818 117.644Z" fill="#FDFDFD"/>
<path fill-rule="evenodd" clip-rule="evenodd" d="M76.9818 108.662C94.4487 108.662 108.663 94.4497 108.663 76.9837C108.663 59.5505 94.4487 45.3373 76.9818 45.3373C59.5511 45.3373 45.337 59.5505 45.337 76.9837C45.337 94.4497 59.5511 108.662 76.9818 108.662Z" fill="#FF313A"/>
<path fill-rule="evenodd" clip-rule="evenodd" d="M76.9819 98.7629C89.0037 98.7629 98.7619 89.0034 98.7619 76.9837C98.7619 64.9959 89.0037 55.2376 76.9819 55.2376C64.9961 55.2376 55.2371 64.9958 55.2371 76.9837C55.2371 89.0034 64.9961 98.7629 76.9819 98.7629Z" fill="#FDFDFD"/>
<path fill-rule="evenodd" clip-rule="evenodd" d="M49.8867 75.6573L95.4276 56.5636C95.8513 56.387 96.3472 56.5993 96.5233 57.0239L105.186 77.7081C105.362 78.1327 105.186 78.6273 104.762 78.8039L59.2212 97.8974C58.7614 98.0744 58.2664 97.8613 58.0902 97.4367L49.4269 76.7876C49.2499 76.3641 49.4621 75.8695 49.8867 75.6573Z" fill="#6BC06F"/>
<path fill-rule="evenodd" clip-rule="evenodd" d="M52.2551 76.5411L94.4014 58.8972C94.7545 58.7211 95.18 58.8972 95.3562 59.2869L102.782 76.9655C102.924 77.3539 102.746 77.7794 102.393 77.9208L60.2464 95.5991C59.8571 95.7405 59.4325 95.5635 59.2916 95.211L51.8666 77.4959C51.7258 77.1423 51.9019 76.7172 52.2551 76.5411Z" fill="#A8DAAA"/>
<path fill-rule="evenodd" clip-rule="evenodd" d="M58.6558 75.4084L73.8598 69.0094L89.0982 62.6453C89.1334 62.7519 89.1687 62.8575 89.2391 62.9989C90.5471 66.1459 93.7654 67.8075 96.3822 66.7115C96.5232 66.6409 96.7002 66.5705 96.842 66.5001L98.5737 70.6715C98.4328 70.7067 98.2558 70.7777 98.1148 70.8129C95.498 71.9447 94.4376 75.3745 95.7447 78.5211C95.816 78.6629 95.8513 78.7686 95.9217 78.8751L80.6833 85.2745L65.4441 91.6743C65.4089 91.5329 65.3737 91.4272 65.3383 91.2859C63.9943 88.1389 60.8121 86.4769 58.1608 87.573C58.0189 87.6439 57.878 87.7144 57.701 87.7848L55.9677 83.613C56.1447 83.5778 56.2865 83.5427 56.4635 83.4712C59.0795 82.3755 60.1408 78.91 58.7958 75.7639C58.7614 75.6207 58.691 75.5159 58.6558 75.4084Z" fill="#6BC06F"/>
<path fill-rule="evenodd" clip-rule="evenodd" d="M78.7504 84.1422L81.2263 83.0817L80.8371 82.0921C82.0041 81.032 82.463 79.3692 81.8631 77.9194C81.5091 77.1065 80.9066 76.5066 80.165 76.1169C79.1398 75.6219 77.8679 75.552 76.7009 76.0112C76.2059 76.2238 75.674 76.0455 75.4633 75.5867C75.2863 75.1274 75.5339 74.5611 76.0289 74.3491C76.523 74.136 77.0886 74.3491 77.2656 74.8085L80.0594 73.6415C79.4578 72.1917 77.9376 71.3787 76.3822 71.4844L75.8863 70.3183L73.3761 71.3435L73.8368 72.4749C72.564 73.5366 72.0682 75.2687 72.6698 76.7524C73.4828 78.6625 75.7455 79.4757 77.7968 78.5919C78.2909 78.4153 78.8574 78.5919 79.0696 79.0526C79.2466 79.5115 78.9992 80.0769 78.5033 80.2902C78.0083 80.4654 77.442 80.2902 77.2305 79.7938L74.4367 80.9965C75.1096 82.5516 76.7011 83.3658 78.327 83.1887L78.7504 84.1422Z" fill="#FDFDFD"/>
<path fill-rule="evenodd" clip-rule="evenodd" d="M21.9347 1.1666L41.3239 19.1894L36.428 35.3512L20.8467 41.598L1.45752 23.5743L17.0379 17.3284L21.9347 1.1666Z" fill="#1B7D9A"/>
<path fill-rule="evenodd" clip-rule="evenodd" d="M17.6412 15.4038L79.0101 78.8756L76.768 78.913L15.2247 18.0331L17.6412 15.4038Z" fill="#145C71"/>
<path fill-rule="evenodd" clip-rule="evenodd" d="M118.72 137.825C121.174 137.825 136.799 137.784 136.799 135.207V131.583C136.799 131.22 136.678 130.899 136.475 130.658C136.194 130.295 134.06 130.617 133.577 130.577L104.666 130.295C104.183 130.295 101.164 130.336 100.882 130.738C100.72 130.979 100.64 131.261 100.64 131.583V135.207C100.64 138.267 116.102 137.825 118.72 137.825Z" fill="#FFB438"/>
<path fill-rule="evenodd" clip-rule="evenodd" d="M118.72 132.549C128.544 132.549 136.555 131.744 136.555 130.778C136.555 129.811 128.543 129.046 118.72 129.046C108.934 129.046 100.922 129.811 100.922 130.778C100.922 131.744 108.934 132.549 118.72 132.549Z" fill="#FCD471"/>
<path fill-rule="evenodd" clip-rule="evenodd" d="M118.72 131.422C121.174 131.422 136.799 131.422 136.799 128.846V125.221C136.799 124.859 136.678 124.538 136.475 124.256C136.194 123.933 134.06 124.214 133.577 124.214L104.666 123.933C104.183 123.933 101.164 123.973 100.882 124.336C100.72 124.578 100.64 124.899 100.64 125.221V128.846C100.64 131.906 116.102 131.422 118.72 131.422Z" fill="#FFB438"/>
<path fill-rule="evenodd" clip-rule="evenodd" d="M118.72 126.148C128.544 126.148 136.555 125.382 136.555 124.417C136.555 123.45 128.543 122.684 118.72 122.684C108.934 122.684 100.922 123.45 100.922 124.417C100.922 125.382 108.934 126.148 118.72 126.148Z" fill="#FCD471"/>
<path fill-rule="evenodd" clip-rule="evenodd" d="M118.72 125.06C121.174 125.06 136.799 125.06 136.799 122.443V118.82C136.799 118.498 136.678 118.174 136.475 117.893C136.194 117.531 134.06 117.853 133.577 117.853L104.666 117.571C104.183 117.531 101.164 117.571 100.882 117.973C100.72 118.215 100.64 118.498 100.64 118.82V122.443C100.64 125.503 116.102 125.06 118.72 125.06Z" fill="#FFB438"/>
<path fill-rule="evenodd" clip-rule="evenodd" d="M118.72 119.787C128.544 119.787 136.555 118.981 136.555 118.054C136.555 117.088 128.543 116.283 118.72 116.283C108.934 116.283 100.922 117.088 100.922 118.054C100.922 118.981 108.934 119.787 118.72 119.787Z" fill="#FCD471"/>
<path fill-rule="evenodd" clip-rule="evenodd" d="M118.72 118.699C121.174 118.699 136.799 118.659 136.799 116.081V112.457C136.799 112.095 136.678 111.773 136.475 111.531C136.194 111.169 134.06 111.491 133.577 111.451L104.666 111.169C104.183 111.169 101.164 111.21 100.882 111.612C100.72 111.854 100.64 112.136 100.64 112.458V116.082C100.64 119.141 116.102 118.699 118.72 118.699Z" fill="#FFB438"/>
<path fill-rule="evenodd" clip-rule="evenodd" d="M118.72 113.425C128.544 113.425 136.555 112.619 136.555 111.652C136.555 110.686 128.543 109.921 118.72 109.921C108.934 109.921 100.922 110.686 100.922 111.652C100.922 112.619 108.934 113.425 118.72 113.425Z" fill="#FCD471"/>
<path fill-rule="evenodd" clip-rule="evenodd" d="M122.665 111.773C125.161 111.773 140.784 111.733 140.784 109.156V105.532C140.784 105.17 140.623 104.847 140.421 104.607C140.18 104.244 138.045 104.566 137.562 104.566L108.653 104.244C108.13 104.244 105.15 104.284 104.868 104.687C104.706 104.928 104.586 105.21 104.586 105.532V109.156C104.586 112.216 120.088 111.773 122.665 111.773Z" fill="#FFB438"/>
<path fill-rule="evenodd" clip-rule="evenodd" d="M122.704 106.498C132.53 106.498 140.502 105.693 140.502 104.726C140.502 103.761 132.53 102.995 122.704 102.995C112.88 102.995 104.908 103.761 104.908 104.726C104.908 105.693 112.881 106.498 122.704 106.498Z" fill="#FCD471"/>
<path fill-rule="evenodd" clip-rule="evenodd" d="M118.196 104.847C120.692 104.847 136.274 104.807 136.274 102.231V98.6063C136.274 98.2441 136.153 97.9223 135.952 97.6809C135.67 97.3182 133.577 97.6408 133.093 97.6001L104.183 97.3182C103.661 97.3182 100.681 97.3582 100.397 97.7616C100.238 98.0027 100.118 98.2841 100.118 98.6063V102.231C100.118 105.291 115.619 104.847 118.196 104.847Z" fill="#FFB438"/>
<path fill-rule="evenodd" clip-rule="evenodd" d="M118.235 99.5727C128.06 99.5727 136.033 98.768 136.033 97.8016C136.033 96.8348 128.061 96.0708 118.235 96.0708C108.412 96.0708 100.44 96.8348 100.44 97.8016C100.44 98.768 108.412 99.5727 118.235 99.5727Z" fill="#FCD471"/>
<path fill-rule="evenodd" clip-rule="evenodd" d="M110.828 97.2778C113.242 96.8348 128.623 94.2176 128.181 91.6816L127.578 88.0975C127.538 87.7348 127.375 87.4534 127.134 87.2124C126.772 86.9301 124.719 87.5742 124.274 87.6546L95.7291 92.2049C95.2049 92.2844 92.265 92.8077 92.0648 93.2521C91.9445 93.5331 91.9032 93.8554 91.9445 94.1373L92.547 97.7209C93.0702 100.741 108.25 97.6809 110.828 97.2778Z" fill="#FFB438"/>
<path fill-rule="evenodd" clip-rule="evenodd" d="M109.377 88.6213C99.6746 90.2726 91.9444 92.366 92.1042 93.3324C92.265 94.258 100.237 93.6946 109.941 92.0433C119.645 90.3929 127.375 88.2991 127.214 87.3726C127.053 86.4068 119.041 86.9697 109.377 88.6213Z" fill="#FCD471"/>
<path fill-rule="evenodd" clip-rule="evenodd" d="M90.0376 138.429C100.305 138.429 108.68 130.054 108.68 119.787C108.68 109.519 100.304 101.144 90.0376 101.144C79.7697 101.144 71.3934 109.519 71.3934 119.787C71.3933 130.054 79.7697 138.429 90.0376 138.429Z" fill="#FFB438"/>
<path fill-rule="evenodd" clip-rule="evenodd" d="M90.0375 135.167C98.4929 135.167 105.418 128.243 105.418 119.787C105.418 111.331 98.4929 104.446 90.0375 104.446C81.5804 104.446 74.6968 111.331 74.6968 119.787C74.6968 128.243 81.5803 135.167 90.0375 135.167Z" fill="#FCD471"/>
<path fill-rule="evenodd" clip-rule="evenodd" d="M90.0376 134.283C98.01 134.283 104.533 127.759 104.533 119.787C104.533 111.815 98.01 105.332 90.0376 105.332C82.0652 105.332 75.5837 111.815 75.5837 119.787C75.5837 127.759 82.0651 134.283 90.0376 134.283Z" fill="#FFB438"/>
<path fill-rule="evenodd" clip-rule="evenodd" d="M88.4666 128.123H91.8095V126.793C93.6597 126.148 94.9893 124.497 94.9893 122.565C94.9893 121.478 94.5862 120.511 93.9013 119.706C93.017 118.659 91.6068 117.935 90.0375 117.935C89.3517 117.935 88.8301 117.451 88.8301 116.848C88.8301 116.244 89.3518 115.72 90.0375 115.72C90.6803 115.72 91.2449 116.244 91.2449 116.848H94.9891C94.9891 114.915 93.6596 113.264 91.8094 112.62V111.049H88.4664V112.539C86.4942 113.144 85.0847 114.875 85.0847 116.888C85.0847 119.384 87.2985 121.397 90.0374 121.397C90.6802 121.397 91.2447 121.92 91.2447 122.525C91.2447 123.128 90.6801 123.613 90.0374 123.613C89.3515 123.613 88.83 123.128 88.83 122.485H85.0849C85.0849 124.578 86.4942 126.269 88.4666 126.874V128.123Z" fill="#FCD471"/>
<path opacity="0.1" fill-rule="evenodd" clip-rule="evenodd" d="M102.828 106.252L76.9991 132.549L76.957 133.046C80.3267 136.37 84.9492 138.429 90.0376 138.429C100.305 138.429 108.68 130.054 108.68 119.787C108.68 114.464 106.426 109.654 102.828 106.252Z" fill="black"/>
</svg>
