<svg width="169" height="169" viewBox="0 0 169 169" fill="none" xmlns="http://www.w3.org/2000/svg">
<path d="M27.3486 126.141C9.36569 104.965 15.667 73.5785 26.3701 64.0682C37.0732 54.5579 54.0584 49.3331 63.1591 38.22C72.2597 27.1069 82.7391 19.1504 101.898 24.8846C121.056 30.6187 120.769 45.5141 126.517 54.7296C132.265 63.9455 157.888 69.0929 156.428 92.7438C154.969 116.395 138.706 116.354 131.289 122.181C123.871 128.008 112.173 155.525 88.7599 155.811C60.067 156.163 42.5678 144.061 27.3486 126.141Z" fill="#EEEEFF"/>
<g opacity="0.3">
<path d="M92.1486 12.148L91.136 15.6727C90.2078 15.9251 89.324 16.2844 88.505 16.7444L85.2582 14.9615L82.3558 17.8267L84.162 21.032C83.6963 21.8405 83.3319 22.7129 83.0764 23.6292L79.5057 24.629V28.6897L83.0764 29.6895C83.3322 30.6058 83.6963 31.4782 84.162 32.2867L82.3558 35.492L85.2582 38.3572L88.505 36.5742C89.324 37.0342 90.2078 37.3935 91.136 37.646L92.1486 41.1707H96.2621L97.2747 37.646C98.2029 37.3935 99.0868 37.0342 99.9057 36.5742L103.153 38.3572L106.055 35.492L104.249 32.2867C104.715 31.4782 105.079 30.6058 105.334 29.6895L108.905 28.6897V24.629L105.334 23.6292C105.078 22.7129 104.714 21.8405 104.249 21.032L106.055 17.8267L103.153 14.9615L99.9057 16.7444C99.0868 16.2844 98.2029 15.9251 97.2747 15.6727L96.2621 12.148H92.1486ZM94.2054 19.076C98.4354 19.076 101.887 22.4833 101.887 26.6593C101.887 30.835 98.4354 34.2427 94.2054 34.2427C89.9753 34.2427 86.5236 30.8353 86.5236 26.6593C86.5236 22.4833 89.9753 19.076 94.2054 19.076Z" stroke="#7371FC" stroke-miterlimit="10"/>
</g>
<g opacity="0.3">
<path d="M152.183 78.95L151.509 81.2954C150.891 81.4633 150.303 81.7026 149.758 82.0085L147.597 80.8221L145.666 82.7288L146.868 84.8616C146.558 85.3997 146.315 85.9801 146.145 86.5898L143.769 87.255V89.9569L146.145 90.6221C146.315 91.2319 146.558 91.8126 146.868 92.3503L145.666 94.4831L147.597 96.3897L149.758 95.2034C150.303 95.5096 150.891 95.7486 151.509 95.9166L152.183 98.2619H154.92L155.594 95.9166C156.211 95.7486 156.799 95.5093 157.344 95.2034L159.505 96.3897L161.436 94.4831L160.234 92.3503C160.544 91.8122 160.786 91.2319 160.957 90.6221L163.332 89.9569V87.255L160.957 86.5898C160.787 85.9801 160.544 85.3994 160.234 84.8616L161.436 82.7288L159.505 80.8221L157.344 82.0085C156.799 81.7023 156.211 81.4633 155.594 81.2954L154.92 78.95H152.183ZM153.551 83.5603C156.366 83.5603 158.663 85.8276 158.663 88.6063C158.663 91.385 156.366 93.6523 153.551 93.6523C150.736 93.6523 148.439 91.385 148.439 88.6063C148.44 85.8276 150.737 83.5603 153.551 83.5603Z" stroke="#7371FC" stroke-miterlimit="10"/>
</g>
<g opacity="0.3">
<path d="M29.475 85.1266L28.0108 90.2229C26.6686 90.588 25.3909 91.1078 24.2066 91.7727L19.5118 89.1947L15.3151 93.3376L17.9265 97.9722C17.2529 99.1411 16.7263 100.403 16.3565 101.727L11.1939 103.173V109.044L16.3565 110.49C16.7263 111.815 17.2529 113.076 17.9265 114.245L15.3151 118.88L19.5118 123.023L24.2066 120.445C25.3906 121.11 26.6686 121.63 28.0108 121.995L29.475 127.091H35.4228L36.887 121.995C38.2292 121.63 39.5068 121.11 40.6912 120.445L45.386 123.023L49.5826 118.88L46.9709 114.245C47.6445 113.076 48.1711 111.815 48.5409 110.49L53.7035 109.045V103.173L48.5409 101.728C48.1711 100.403 47.6448 99.1414 46.9709 97.9726L49.5826 93.338L45.386 89.1951L40.6912 91.773C39.5072 91.1078 38.2292 90.5883 36.887 90.2233L35.4228 85.1269H29.475V85.1266ZM32.4487 95.1439C38.5651 95.1439 43.5557 100.071 43.5557 106.109C43.5557 112.147 38.5648 117.073 32.4487 117.073C26.3323 117.073 21.3417 112.147 21.3417 106.109C21.3417 100.071 26.3326 95.1439 32.4487 95.1439Z" stroke="#7371FC" stroke-miterlimit="10"/>
</g>
<path d="M82.3733 150.555C83.1359 148.797 84.5737 147.394 86.384 146.642L86.4402 146.618L86.1965 146.509C84.4997 145.752 83.1504 144.417 82.4068 142.757L82.373 142.682L82.1851 143.053C81.4631 144.477 80.2842 145.638 78.8247 146.361L78.3058 146.618L78.3373 146.631C80.0743 147.347 81.4743 148.663 82.2632 150.323L82.3733 150.555Z" fill="#32338C"/>
<path d="M87.4896 152.968C87.8709 152.089 88.5898 151.387 89.495 151.012L89.5231 151L89.4014 150.946C88.553 150.567 87.8783 149.899 87.5065 149.069L87.4896 149.032L87.3957 149.217C87.0347 149.93 86.4452 150.51 85.7155 150.871L85.4562 151L85.4718 151.006C86.3404 151.364 87.0401 152.023 87.4349 152.853L87.4896 152.968Z" fill="#7371FC"/>
<path d="M153.126 51.3942C152.556 50.0798 151.48 49.0309 150.127 48.4688L150.085 48.4516L150.267 48.3701C151.536 47.804 152.544 46.8052 153.101 45.5647L153.126 45.5083L153.266 45.7855C153.806 46.8505 154.688 47.7185 155.779 48.2589L156.167 48.4513L156.143 48.4607C154.845 48.9961 153.798 49.9804 153.208 51.2215L153.126 51.3942Z" fill="#7371FC"/>
<path d="M149.3 53.1985C149.015 52.5414 148.478 52.0168 147.801 51.736L147.78 51.7272L147.871 51.6866C148.506 51.4034 149.01 50.9041 149.288 50.2839L149.3 50.2559L149.371 50.3944C149.641 50.9271 150.082 51.3608 150.627 51.6312L150.821 51.7272L150.809 51.7319C150.16 51.9996 149.637 52.4917 149.342 53.1123L149.3 53.1985Z" fill="#32338C"/>
<path d="M18.1483 80.9909C17.5784 79.6764 16.5032 78.6276 15.1495 78.0655L15.1073 78.0479L15.2895 77.9668C16.558 77.4006 17.5669 76.4018 18.1229 75.1614L18.1483 75.1049L18.2889 75.3821C18.8287 76.4471 19.7102 77.3151 20.8012 77.8556L21.1889 78.0476L21.1656 78.057C19.8667 78.5924 18.8202 79.5767 18.2304 80.8178L18.1483 80.9909Z" fill="#7371FC"/>
<path d="M14.3231 82.7951C14.0382 82.138 13.5008 81.6135 12.8238 81.3326L12.8028 81.3238L12.8937 81.2832C13.5281 81 14.0324 80.5008 14.3103 79.8805L14.3228 79.8525L14.3931 79.9911C14.6631 80.5237 15.1039 80.9574 15.6494 81.2278L15.8434 81.3238L15.8316 81.3285C15.182 81.5962 14.6591 82.0883 14.364 82.7089L14.3231 82.7951Z" fill="#32338C"/>
<path d="M120.935 39.1042C123.424 39.4216 125.815 40.2362 128.043 41.3918C134.518 44.7505 140.342 49.3588 145.1 54.8881C147.021 57.1206 148.834 59.66 149.135 62.5898C149.479 65.9445 147.793 69.1362 146.16 72.0866C144.8 74.5432 143.159 77.2272 140.443 77.9401C138.218 78.5241 135.886 77.5906 133.875 76.4715C126.016 72.0971 120.122 64.63 116.74 56.2946C115.097 52.2457 114.487 48.3999 114.767 44.0634C114.845 42.8496 111.665 42.7374 112.519 41.7761C113.733 40.4079 117.52 38.6689 120.935 39.1042Z" fill="#32338C"/>
<path d="M140.836 46.403C140.576 46.7542 140.289 47.0861 139.976 47.3886C138.903 48.4246 137.576 49.1665 136.194 49.7279C135.169 50.1443 134.085 50.4705 132.979 50.4488C132.856 50.4465 132.732 50.4374 132.609 50.4252C132.663 50.6381 132.742 50.8423 132.872 51.0184C133.28 51.5727 134.041 51.715 134.728 51.7549C136.576 51.863 138.448 51.5379 140.152 50.8135C140.337 50.7348 140.532 50.6418 140.636 50.4698C140.743 50.294 140.733 50.0743 140.722 49.8692C140.657 48.6889 140.722 47.5404 140.836 46.403Z" fill="#F8AB73"/>
<path d="M136.194 49.7279C137.575 49.1668 138.903 48.4246 139.976 47.3886C140.289 47.0861 140.576 46.7542 140.835 46.403C141.023 44.5274 141.344 42.6826 141.442 40.776C139.52 40.3244 136.416 42.3189 135.077 43.5783C133.351 45.2011 132.267 47.5853 132.522 49.9405C132.54 50.1031 132.568 50.2663 132.608 50.4252C132.732 50.4374 132.855 50.4462 132.978 50.4489C134.084 50.4705 135.169 50.1443 136.194 49.7279Z" fill="#FE814B"/>
<path d="M149.142 32.2672C150.314 30.6208 151.497 28.9521 152.219 27.065C152.942 25.1783 153.164 23.0181 152.39 21.1517C151.617 19.2853 149.694 17.8298 147.681 18.0036C148.313 16.7083 147.544 15.2712 146.488 14.2906C145.432 13.3101 143.98 12.8774 142.556 12.6577C138.525 12.0362 134.414 12.8818 130.339 12.7027C128.836 12.6368 127.296 12.4168 125.989 11.6708C124.682 10.9248 123.646 9.56032 123.647 8.05588C123.119 9.20136 122.529 10.5861 122.617 11.8442C122.704 13.1022 123.392 14.3805 124.554 14.8716C123.383 15.2022 122.161 14.4799 121.401 13.5298C120.642 12.5797 120.341 11.3372 120.261 10.1234C118.974 10.935 118.083 12.2799 117.604 13.7231C117.167 15.0376 116.938 16.4484 117.168 17.8143C117.399 19.1805 118.129 20.498 119.297 21.2423C118.74 21.3366 118.139 21.3957 117.619 21.176C117.584 21.9467 118.024 22.6815 118.621 23.1695C119.219 23.6576 119.96 23.9338 120.699 24.1548C123.234 24.914 125.898 25.1195 128.496 25.6251C134.63 26.8189 140.296 29.6588 146.127 31.9072C146.944 32.2225 148.293 32.4771 149.142 32.2672Z" fill="#FE642F"/>
<path d="M142.744 31.3491C141.866 28.2348 142.33 24.8815 143.303 21.7952C140.238 24.6821 135.726 25.3929 131.553 24.8267C132.943 24.1507 134.201 23.2043 135.236 22.0558C131.089 21.7861 126.811 22.795 122.673 22.4094C122.199 23.8425 121.894 25.3327 121.725 26.7128C121.363 29.6858 121.596 32.7052 122.089 35.6596C122.627 38.8828 123.523 42.158 125.564 44.7103C127.604 47.2625 131.017 48.9366 134.183 48.1295C135.364 47.8287 136.441 47.2108 137.435 46.5064C141.098 43.9119 143.758 40.1108 145.544 35.975C144.217 34.7474 143.236 33.0966 142.744 31.3491Z" fill="#F8AB74"/>
<path d="M135.236 22.0562C134.201 23.2044 132.943 24.1511 131.553 24.8271C135.725 25.3932 140.237 24.6824 143.302 21.7956C142.33 24.8819 141.866 28.2351 142.743 31.3495C143.236 33.0966 144.217 34.7477 145.543 35.9753C145.775 35.4383 145.994 34.8961 146.197 34.3496C147.069 31.9974 147.7 29.527 147.722 27.0183C147.744 24.5097 147.124 21.9511 145.676 19.9024C143.636 17.0166 140.173 15.4243 136.7 14.7713C135.003 14.4522 133.247 14.3281 131.554 14.6628C129.299 15.1086 126.228 16.3761 124.767 18.2743C123.856 19.4573 123.171 20.9016 122.673 22.4097C126.811 22.795 131.089 21.7861 135.236 22.0562Z" fill="#FE642F"/>
<path d="M143.818 31.3677C143.334 32.6582 143.333 34.0896 143.58 35.4457C143.77 36.4921 144.197 37.6244 145.16 38.075C145.872 38.4079 146.738 38.2764 147.421 37.8874C148.105 37.4987 148.63 36.8829 149.076 36.2359C149.749 35.2595 150.284 34.1579 150.421 32.9796C150.558 31.8014 150.258 30.5379 149.447 29.6723C148.655 28.8273 147.261 28.2118 146.167 28.7175C145.066 29.2268 144.24 30.2452 143.818 31.3677Z" fill="#F8AB73"/>
<path d="M148.901 30.9351C148.554 30.4886 147.975 30.3128 147.453 30.3747C146.923 30.4196 146.455 30.7326 146.122 31.1365C145.782 31.5425 145.561 32.0349 145.426 32.5551C145.283 33.075 145.226 33.6215 145.154 34.1724L144.825 34.0328C145.157 33.6364 145.648 33.3068 146.224 33.3437C146.504 33.3612 146.781 33.4968 146.97 33.6952C147.163 33.8949 147.277 34.1471 147.333 34.404C147.385 34.6615 147.382 34.9323 147.3 35.1831C147.219 35.4325 147.081 35.6536 146.907 35.8361C146.551 36.1957 146.094 36.4222 145.623 36.5253C146.07 36.3481 146.491 36.0903 146.776 35.7225C146.915 35.5393 147.03 35.3369 147.081 35.1209C147.136 34.9079 147.122 34.6791 147.066 34.4689C146.951 34.0447 146.61 33.6986 146.202 33.6891C145.796 33.6756 145.385 33.9298 145.114 34.2678L144.715 34.7639L144.784 34.1278C144.844 33.5749 144.921 33.0117 145.075 32.4574C145.232 31.9065 145.492 31.3623 145.895 30.9344C146.292 30.5102 146.847 30.1918 147.441 30.1813C148.019 30.1732 148.628 30.4321 148.901 30.9351Z" fill="#32338C"/>
<path d="M131.382 27.8488C131.69 29.3887 131.675 30.9976 131.394 32.5534C131.114 34.1099 130.566 35.6232 129.761 36.9792L129.719 36.8376C129.949 36.9762 130.189 37.1043 130.442 37.206C130.694 37.3077 130.957 37.3882 131.225 37.4524C130.949 37.4379 130.674 37.3902 130.404 37.3169C130.135 37.2435 129.869 37.1496 129.617 37.0218L129.529 36.9772L129.575 36.8802C130.242 35.4765 130.734 34.0018 131.034 32.4852C131.334 30.9682 131.44 29.4154 131.382 27.8488Z" fill="#32338C"/>
<path d="M130.325 41.7761C130.685 42.0073 131.065 42.1685 131.453 42.2051C132.511 42.3048 133.509 41.3377 134.209 40.4177C132.803 40.3214 131.365 40.8253 130.325 41.7761Z" fill="#FE632E"/>
<path d="M131.058 40.0182C129.709 39.8786 127.708 38.6689 127.708 38.6689C127.708 38.6689 128.85 40.8297 130.325 41.7761C131.364 40.8257 132.803 40.3217 134.209 40.4177C134.816 39.6187 135.198 38.8551 135.198 38.8551C135.198 38.8551 132.407 40.1578 131.058 40.0182Z" fill="#32338C"/>
<path d="M127.474 30.9986C127.51 31.7179 127.164 32.3195 126.702 32.3425C126.24 32.3655 125.837 31.8007 125.802 31.0814C125.766 30.3622 126.112 29.7605 126.574 29.7376C127.035 29.7146 127.439 30.279 127.474 30.9986Z" fill="#32328C"/>
<path d="M136.873 31.1754C136.909 31.8947 136.563 32.4963 136.101 32.5193C135.639 32.5423 135.236 31.9775 135.201 31.2582C135.165 30.539 135.511 29.9373 135.973 29.9143C136.434 29.8914 136.838 30.4562 136.873 31.1754Z" fill="#32328C"/>
<path d="M123.895 28.2054C124.015 27.768 124.219 27.3499 124.485 26.9572C124.622 26.7642 124.774 26.5776 124.943 26.4015C125.117 26.2315 125.307 26.0723 125.513 25.9283C125.72 25.7853 125.931 25.6332 126.163 25.5068C126.395 25.3831 126.656 25.3213 126.921 25.3331C127.445 25.3615 127.997 25.569 128.318 26.0936L128.277 26.2393C127.767 26.5347 127.442 26.6949 127.112 26.8321C126.949 26.8984 126.788 26.9298 126.609 26.9345C126.43 26.9369 126.241 26.9487 126.066 27.0028C125.888 27.0559 125.712 27.1255 125.538 27.2107C125.361 27.2898 125.185 27.3851 125.015 27.4946C124.668 27.7075 124.343 27.9783 124.025 28.2821L123.895 28.2054Z" fill="#FE642E"/>
<path d="M138.435 28.2821C138.116 27.9779 137.791 27.7072 137.444 27.4946C137.274 27.3851 137.099 27.2898 136.921 27.2107C136.748 27.1255 136.572 27.0559 136.394 27.0028C136.218 26.9487 136.03 26.9369 135.85 26.9345C135.671 26.9298 135.51 26.8984 135.348 26.8321C135.017 26.6949 134.692 26.5347 134.182 26.2393L134.142 26.0936C134.462 25.569 135.015 25.3615 135.538 25.3331C135.803 25.3213 136.065 25.3831 136.296 25.5068C136.528 25.6329 136.74 25.7853 136.947 25.9283C137.152 26.0723 137.342 26.2315 137.516 26.4015C137.685 26.5776 137.838 26.7642 137.974 26.9572C138.24 27.3499 138.444 27.768 138.564 28.2054L138.435 28.2821Z" fill="#FE642E"/>
<path opacity="0.4" d="M127.005 37.0671C127.005 37.6417 126.227 38.1078 125.267 38.1078C124.307 38.1078 123.529 37.642 123.529 37.0671C123.529 36.4925 124.307 36.0264 125.267 36.0264C126.227 36.0267 127.005 36.4925 127.005 37.0671Z" fill="#F8AB74"/>
<path opacity="0.4" d="M139.058 37.0671C139.058 37.6417 138.28 38.1078 137.32 38.1078C136.36 38.1078 135.582 37.642 135.582 37.0671C135.582 36.4925 136.36 36.0264 137.32 36.0264C138.28 36.0267 139.058 36.4925 139.058 37.0671Z" fill="#F8AB74"/>
<path d="M123.703 8.112C123.459 9.29737 123.642 10.5392 124.157 11.6086C124.659 12.6824 125.487 13.6086 126.524 14.1625C127.567 14.7074 128.769 14.8777 129.957 14.899C131.152 14.9166 132.353 14.8355 133.551 14.7263C135.947 14.537 138.364 14.2119 140.8 14.4005C142.007 14.5093 143.248 14.7983 144.263 15.5142C144.758 15.8782 145.188 16.3328 145.495 16.8628C145.802 17.3904 145.976 17.9988 145.952 18.6039C145.935 17.9985 145.729 17.4158 145.409 16.9149C145.086 16.4133 144.649 15.9935 144.158 15.6666C143.164 15.0109 141.961 14.7622 140.778 14.6902C138.386 14.5641 135.989 14.8815 133.584 15.1022C132.378 15.2002 131.167 15.2712 129.949 15.2418C128.739 15.2032 127.475 15.0373 126.385 14.4157C125.304 13.7968 124.473 12.8068 123.99 11.684C123.516 10.5591 123.375 9.28047 123.703 8.112Z" fill="#F8AB74"/>
<path d="M144.578 20.6754C144.373 19.2876 143.315 18.1621 142.072 17.6426C140.814 17.1021 139.392 17.0869 138.053 17.3188C136.703 17.5554 135.394 17.9998 134.058 18.3845C132.722 18.7674 131.366 19.1014 129.981 19.2957C128.598 19.4857 127.183 19.5242 125.79 19.3322C124.412 19.1332 123.002 18.7424 121.865 17.8687C120.738 17.0061 119.916 15.7626 119.586 14.3924C119.273 13.0221 119.43 11.5522 120.049 10.3097C119.509 11.5849 119.402 13.0299 119.766 14.3467C120.12 15.6643 120.944 16.8415 122.038 17.6355C123.139 18.4267 124.487 18.8144 125.836 18.9915C127.192 19.1673 128.572 19.1179 129.93 18.9219C131.291 18.7424 132.635 18.4237 133.964 18.0543C135.293 17.6899 136.616 17.2309 138.008 17.0328C139.386 16.83 140.857 16.8777 142.148 17.4742C142.787 17.7744 143.356 18.2189 143.791 18.7685C144.227 19.3157 144.522 19.9822 144.578 20.6754Z" fill="#F8AB74"/>
<path d="M143.164 20.0241C142.72 19.2941 141.945 18.8662 141.157 18.7306C140.358 18.6015 139.531 18.7495 138.782 19.0635C138.028 19.3701 137.355 19.8643 136.724 20.4061C136.095 20.953 135.499 21.5543 134.87 22.1221C135.391 21.4552 135.912 20.788 136.524 20.1894C137.129 19.5901 137.828 19.0517 138.638 18.7144C139.043 18.5518 139.467 18.4318 139.903 18.3771C140.339 18.3304 140.786 18.3399 141.216 18.4426C141.644 18.5434 142.053 18.734 142.396 19.0037C142.731 19.2795 143.015 19.625 143.164 20.0241Z" fill="#F8AB74"/>
<path d="M147.908 19.9525C148.388 19.7838 148.934 19.8274 149.42 20.0089C149.908 20.1958 150.332 20.5389 150.657 20.9482C151.308 21.7814 151.573 22.8431 151.606 23.8706C151.627 24.9066 151.41 25.9361 151.018 26.8784C150.821 27.3496 150.593 27.8052 150.336 28.2426C150.071 28.6749 149.792 29.0967 149.481 29.4946C149.72 29.0501 149.966 28.6117 150.173 28.1554C150.393 27.7062 150.587 27.2462 150.746 26.776C151.063 25.8381 151.257 24.8589 151.228 23.88C151.206 22.908 150.968 21.9213 150.425 21.1203C150.151 20.7231 149.787 20.3861 149.346 20.1773C148.913 19.9538 148.406 19.868 147.908 19.9525Z" fill="#F8AB74"/>
<path d="M145.258 21.559C145.611 21.4819 145.992 21.5685 146.321 21.7364C146.651 21.9098 146.93 22.1799 147.14 22.4858C147.562 23.1057 147.773 23.8128 147.92 24.5229C148.055 25.2381 148.081 25.9736 147.986 26.6922C147.941 27.0515 147.867 27.4064 147.762 27.7511C147.706 27.9225 147.648 28.0925 147.58 28.2588C147.547 28.3396 147.518 28.4312 147.458 28.5062C147.405 28.5772 147.301 28.6499 147.216 28.5985C147.309 28.6272 147.375 28.5465 147.41 28.4751C147.451 28.4021 147.464 28.3173 147.484 28.2294C147.524 28.0574 147.554 27.883 147.582 27.7096C147.641 27.3635 147.674 27.0143 147.692 26.6665C147.725 25.9706 147.684 25.2736 147.549 24.5942C147.417 23.9182 147.226 23.2338 146.892 22.6453C146.721 22.3536 146.504 22.0893 146.225 21.8943C145.952 21.6895 145.615 21.5681 145.258 21.559Z" fill="#F8AB74"/>
<path d="M65.7581 31.8735L23.3802 37.3427L29.3251 83.4058L71.703 77.9366L65.7581 31.8735Z" fill="#EEEEFF"/>
<path d="M64.4624 21.8357L22.0845 27.3049L23.38 37.343L65.7579 31.8737L64.4624 21.8357Z" fill="#7371FC"/>
<path d="M23.38 37.3427L17.6097 38.0874L23.5545 84.1505L29.3248 83.4058L23.38 37.3427Z" fill="#91C4FB"/>
<path d="M22.085 27.3045L16.3148 28.0492L17.6103 38.0872L23.3805 37.3425L22.085 27.3045Z" fill="#443DC3"/>
<path d="M33.132 39.3816L26.6558 40.2174L27.7906 49.0108L34.2669 48.1749L33.132 39.3816Z" fill="#FEFFFD"/>
<path d="M40.8182 38.3897L34.3419 39.2255L35.4768 48.0189L41.9531 47.1831L40.8182 38.3897Z" fill="#FEFFFD"/>
<path d="M48.5045 37.398L42.0283 38.2339L43.1631 47.0272L49.6394 46.1914L48.5045 37.398Z" fill="#FEFFFD"/>
<path d="M56.191 36.4057L49.7147 37.2415L50.8496 46.0349L57.3259 45.1991L56.191 36.4057Z" fill="#FEFFFD"/>
<path d="M63.8775 35.4132L57.4012 36.2491L58.5361 45.0424L65.0124 44.2066L63.8775 35.4132Z" fill="#FEFFFD"/>
<path d="M34.4149 49.3235L27.9387 50.1593L29.0735 58.9526L35.5498 58.1168L34.4149 49.3235Z" fill="#FEFFFD"/>
<path d="M42.1018 48.331L35.6255 49.1668L36.7603 57.9602L43.2366 57.1244L42.1018 48.331Z" fill="#FEFFFD"/>
<path d="M49.7879 47.3394L43.3116 48.1753L44.4464 56.9686L50.9227 56.1328L49.7879 47.3394Z" fill="#FEFFFD"/>
<path d="M57.4743 46.3472L50.998 47.183L52.1329 55.9764L58.6092 55.1405L57.4743 46.3472Z" fill="#FEFFFD"/>
<path d="M65.1604 45.3555L58.6841 46.1913L59.8189 54.9847L66.2952 54.1489L65.1604 45.3555Z" fill="#FEFFFD"/>
<path d="M35.6981 59.2652L29.2218 60.101L30.3567 68.8944L36.8329 68.0585L35.6981 59.2652Z" fill="#FEFFFD"/>
<path d="M43.3842 58.2733L36.908 59.1091L38.0428 67.9025L44.5191 67.0667L43.3842 58.2733Z" fill="#FEFFFD"/>
<path d="M51.0715 57.2806L44.5952 58.1165L45.7301 66.9098L52.2064 66.074L51.0715 57.2806Z" fill="#FEFFFD"/>
<path d="M58.7571 56.2894L52.2808 57.1252L53.4157 65.9186L59.892 65.0828L58.7571 56.2894Z" fill="#FEFFFD"/>
<path d="M66.4434 55.2973L59.9672 56.1331L61.102 64.9265L67.5783 64.0907L66.4434 55.2973Z" fill="#FEFFFD"/>
<path d="M36.9812 69.2069L30.5049 70.0427L31.6397 78.8361L38.116 78.0003L36.9812 69.2069Z" fill="#FEFFFD"/>
<path d="M44.6677 68.2148L38.1915 69.0506L39.3263 77.8439L45.8026 77.0081L44.6677 68.2148Z" fill="#FEFFFD"/>
<path d="M52.354 67.223L45.8777 68.0588L47.0125 76.8522L53.4888 76.0164L52.354 67.223Z" fill="#FEFFFD"/>
<path d="M60.0409 66.2303L53.5646 67.0661L54.6995 75.8595L61.1758 75.0237L60.0409 66.2303Z" fill="#FEFFFD"/>
<path d="M67.7265 65.239L61.2502 66.0749L62.3851 74.8682L68.8614 74.0324L67.7265 65.239Z" fill="#FEFFFD"/>
<path d="M19.7193 27.6102L19.3512 24.7585C19.1203 22.9701 20.3831 21.3332 22.1715 21.1027L24.1542 20.8468C25.9425 20.616 27.5795 21.8787 27.81 23.6671L28.4441 28.5819C28.6749 30.3703 27.4122 32.0072 25.6238 32.2377" stroke="#32338C" stroke-width="4.0278" stroke-miterlimit="10" stroke-linecap="round" stroke-linejoin="round"/>
<path d="M25.3737 26.8804L25.0056 24.0287C24.7748 22.2404 26.0375 20.6035 27.8259 20.3729L29.8086 20.1171C31.597 19.8862 33.2339 21.149 33.4644 22.9373L34.0985 27.8522C34.3293 29.6406 33.0666 31.2772 31.2782 31.508" stroke="#32338C" stroke-width="4.0278" stroke-miterlimit="10" stroke-linecap="round" stroke-linejoin="round"/>
<path d="M31.0281 26.151L30.66 23.2993C30.4291 21.511 31.6919 19.8741 33.4802 19.6435L35.463 19.3877C37.2513 19.1568 38.8882 20.4196 39.1188 22.2079L39.7529 27.1228C39.9837 28.9112 38.7209 30.5481 36.9326 30.7786" stroke="#32338C" stroke-width="4.0278" stroke-miterlimit="10" stroke-linecap="round" stroke-linejoin="round"/>
<path d="M36.6822 25.4213L36.3141 22.5696C36.0832 20.7812 37.346 19.1446 39.1344 18.9138L41.1171 18.6579C42.9054 18.427 44.542 19.6898 44.7729 21.4782L45.407 26.393C45.6378 28.1814 44.3751 29.8183 42.5867 30.0488" stroke="#32338C" stroke-width="4.0278" stroke-miterlimit="10" stroke-linecap="round" stroke-linejoin="round"/>
<path d="M42.3365 24.6919L41.9684 21.8402C41.7376 20.0518 43.0004 18.4149 44.7887 18.1844L46.7714 17.9285C48.5598 17.6976 50.1964 18.9604 50.4272 20.7488L51.0613 25.6636C51.2922 27.452 50.0294 29.0886 48.2411 29.3194" stroke="#32338C" stroke-width="4.0278" stroke-miterlimit="10" stroke-linecap="round" stroke-linejoin="round"/>
<path d="M47.991 23.9621L47.6229 21.1104C47.392 19.3221 48.6548 17.6851 50.4431 17.4546L52.4258 17.1988C54.2142 16.9679 55.8508 18.2307 56.0817 20.019L56.7157 24.9339C56.9466 26.7223 55.6838 28.3592 53.8955 28.5897" stroke="#32338C" stroke-width="4.0278" stroke-miterlimit="10" stroke-linecap="round" stroke-linejoin="round"/>
<path d="M53.6454 23.2327L53.2773 20.381C53.0464 18.5927 54.3092 16.9561 56.0976 16.7252L58.0803 16.4694C59.8686 16.2385 61.5052 17.5013 61.7361 19.2896L62.3702 24.2045C62.601 25.9929 61.3382 27.6298 59.5499 27.8603" stroke="#32338C" stroke-width="4.0278" stroke-miterlimit="10" stroke-linecap="round" stroke-linejoin="round"/>
<path d="M83.9149 138.279C112.521 138.279 135.71 115.09 135.71 86.4841C135.71 57.8784 112.521 34.6889 83.9149 34.6889C55.3093 34.6889 32.1198 57.8784 32.1198 86.4841C32.1198 115.09 55.3093 138.279 83.9149 138.279Z" fill="#32338C"/>
<path d="M86.3516 138.279C114.957 138.279 138.147 115.09 138.147 86.4841C138.147 57.8784 114.957 34.6889 86.3516 34.6889C57.7459 34.6889 34.5565 57.8784 34.5565 86.4841C34.5565 115.09 57.7459 138.279 86.3516 138.279Z" fill="#7371FC"/>
<path d="M94.4281 112.057C103.775 108.287 112.258 102.014 117.761 93.5702C124.153 83.7632 126.082 71.87 125.522 60.0396C117.028 47.4819 102.654 39.2266 86.3512 39.2266C60.2519 39.2266 39.0938 60.3844 39.0938 86.4841C39.0938 95.1352 41.4202 103.242 45.4789 110.217C60.6467 117.388 78.826 118.352 94.4281 112.057Z" fill="white"/>
<path d="M125.522 60.0399C126.082 71.8703 124.152 83.7635 117.761 93.5706C112.258 102.014 103.775 108.287 94.428 112.058C78.826 118.352 60.6466 117.388 45.4796 110.217C53.6656 124.285 68.9033 133.742 86.3515 133.742C112.451 133.742 133.609 112.584 133.609 86.4844C133.609 76.6871 130.627 67.5865 125.522 60.0399Z" fill="#EEEEFF"/>
<path d="M85.8358 87.0952L63.6028 67.2755L86.8674 85.8733L85.8358 87.0952Z" fill="#32338C"/>
<path d="M87.2371 85.924L97.4975 123.59L85.466 87.0445L87.2371 85.924Z" fill="#32338C"/>
<path d="M86.3516 89.9854C88.2853 89.9854 89.8529 88.4178 89.8529 86.4841C89.8529 84.5503 88.2853 82.9827 86.3516 82.9827C84.4178 82.9827 82.8502 84.5503 82.8502 86.4841C82.8502 88.4178 84.4178 89.9854 86.3516 89.9854Z" fill="#FE814B"/>
<path d="M86.3516 39.2269V49.2726" stroke="#32338C" stroke-width="3.8829" stroke-miterlimit="10" stroke-linecap="round" stroke-linejoin="round"/>
<path d="M86.3516 123.696V133.742" stroke="#32338C" stroke-width="3.8829" stroke-miterlimit="10" stroke-linecap="round" stroke-linejoin="round"/>
<path d="M133.609 86.4841H123.563" stroke="#32338C" stroke-width="3.8829" stroke-miterlimit="10" stroke-linecap="round" stroke-linejoin="round"/>
<path d="M49.1401 86.4841H39.0941" stroke="#32338C" stroke-width="3.8829" stroke-miterlimit="10" stroke-linecap="round" stroke-linejoin="round"/>
<path d="M46.4625 61.1439L54.9423 66.5306" stroke="#32338C" stroke-width="3.8829" stroke-miterlimit="10" stroke-linecap="round" stroke-linejoin="round"/>
<path d="M117.761 106.438L126.24 111.825" stroke="#32338C" stroke-width="3.8829" stroke-miterlimit="10" stroke-linecap="round" stroke-linejoin="round"/>
<path d="M111.692 46.5953L106.305 55.0747" stroke="#32338C" stroke-width="3.8829" stroke-miterlimit="10" stroke-linecap="round" stroke-linejoin="round"/>
<path d="M66.3981 117.894L61.0114 126.373" stroke="#32338C" stroke-width="3.8829" stroke-miterlimit="10" stroke-linecap="round" stroke-linejoin="round"/>
<path d="M126.24 61.1439L117.761 66.5306" stroke="#32338C" stroke-width="3.8829" stroke-miterlimit="10" stroke-linecap="round" stroke-linejoin="round"/>
<path d="M54.9423 106.438L46.4625 111.825" stroke="#32338C" stroke-width="3.8829" stroke-miterlimit="10" stroke-linecap="round" stroke-linejoin="round"/>
<path d="M61.0114 46.5953L66.3981 55.0747" stroke="#32338C" stroke-width="3.8829" stroke-miterlimit="10" stroke-linecap="round" stroke-linejoin="round"/>
<path d="M106.305 117.894L111.692 126.373" stroke="#32338C" stroke-width="3.8829" stroke-miterlimit="10" stroke-linecap="round" stroke-linejoin="round"/>
<path d="M60.2385 112.555L14.6299 129.841L24.1303 154.908L69.739 137.622L60.2385 112.555Z" fill="#F8AB74"/>
<path d="M42.18 133.734L14.6256 129.842L43.3022 136.695L60.235 112.558L42.18 133.734Z" fill="#FE814B"/>
<path d="M152.563 106.977L110.042 96.9418L97.0971 151.791L139.618 161.826L152.563 106.977Z" fill="#32338C"/>
<path d="M153.351 107.163L110.83 97.1283L97.8859 151.977L140.407 162.012L153.351 107.163Z" fill="#91C4FB"/>
<path d="M148.619 111.644L113.061 103.252L102.123 149.601L137.681 157.993L148.619 111.644Z" fill="white"/>
<path d="M139.821 97.8246L127.091 94.8198C125.047 94.3371 122.998 95.6033 122.516 97.6475L122.015 99.7698L142.147 104.522L142.648 102.4C143.131 100.356 141.865 98.3073 139.821 97.8246Z" fill="#32338C"/>
<path d="M121.5 112.451C121.054 114.338 119.163 115.507 117.275 115.062C115.387 114.616 114.218 112.725 114.664 110.837C115.11 108.949 117.001 107.78 118.889 108.225C120.777 108.671 121.946 110.563 121.5 112.451Z" fill="#EEEEFE"/>
<path d="M116.442 110.156L117.91 112.53L122.132 109.921" stroke="#FE814B" stroke-width="3.1984" stroke-miterlimit="10" stroke-linecap="round" stroke-linejoin="round"/>
<path d="M124.926 111.003L144.278 115.571" stroke="#91C4FB" stroke-width="3.1984" stroke-miterlimit="10" stroke-linecap="round" stroke-linejoin="round"/>
<path d="M124.421 113.14L143.773 117.708" stroke="#91C4FB" stroke-width="3.1984" stroke-miterlimit="10" stroke-linecap="round" stroke-linejoin="round"/>
<path d="M123.917 115.277L143.269 119.845" stroke="#91C4FB" stroke-width="3.1984" stroke-miterlimit="10" stroke-linecap="round" stroke-linejoin="round"/>
<path d="M118.931 123.334C118.486 125.222 116.594 126.391 114.706 125.945C112.819 125.5 111.65 123.608 112.095 121.72C112.54 119.832 114.432 118.663 116.32 119.109C118.208 119.554 119.377 121.446 118.931 123.334Z" fill="#EEEEFE"/>
<path d="M113.873 121.039L115.341 123.413L119.562 120.804" stroke="#FE814B" stroke-width="3.1984" stroke-miterlimit="10" stroke-linecap="round" stroke-linejoin="round"/>
<path d="M122.357 121.886L141.709 126.454" stroke="#91C4FB" stroke-width="3.1984" stroke-miterlimit="10" stroke-linecap="round" stroke-linejoin="round"/>
<path d="M121.852 124.023L141.205 128.591" stroke="#91C4FB" stroke-width="3.1984" stroke-miterlimit="10" stroke-linecap="round" stroke-linejoin="round"/>
<path d="M121.348 126.161L140.7 130.729" stroke="#91C4FB" stroke-width="3.1984" stroke-miterlimit="10" stroke-linecap="round" stroke-linejoin="round"/>
<path d="M116.362 134.217C115.917 136.104 114.025 137.274 112.137 136.828C110.249 136.383 109.08 134.491 109.526 132.603C109.971 130.715 111.863 129.546 113.751 129.992C115.639 130.437 116.808 132.329 116.362 134.217Z" fill="#EEEEFE"/>
<path d="M111.304 131.922L112.772 134.297L116.993 131.688" stroke="#FE814B" stroke-width="3.1984" stroke-miterlimit="10" stroke-linecap="round" stroke-linejoin="round"/>
<path d="M119.788 132.769L139.14 137.338" stroke="#91C4FB" stroke-width="3.1984" stroke-miterlimit="10" stroke-linecap="round" stroke-linejoin="round"/>
<path d="M119.284 134.907L138.635 139.475" stroke="#91C4FB" stroke-width="3.1984" stroke-miterlimit="10" stroke-linecap="round" stroke-linejoin="round"/>
<path d="M118.779 137.043L138.131 141.612" stroke="#91C4FB" stroke-width="3.1984" stroke-miterlimit="10" stroke-linecap="round" stroke-linejoin="round"/>
<path d="M144.436 108.438L118.217 102.249C117.39 102.054 116.878 101.226 117.073 100.399L117.475 98.6977L146.688 105.594L146.286 107.295C146.091 108.121 145.263 108.634 144.436 108.438Z" fill="#91C4FB"/>
<path d="M113.873 145.119C113.427 147.007 111.535 148.176 109.647 147.73C107.759 147.285 106.59 145.393 107.036 143.505C107.481 141.617 109.373 140.448 111.261 140.894C113.149 141.339 114.318 143.231 113.873 145.119Z" fill="#EEEEFE"/>
<path d="M108.814 142.824L110.282 145.199L114.504 142.589" stroke="#FE814B" stroke-width="3.1984" stroke-miterlimit="10" stroke-linecap="round" stroke-linejoin="round"/>
<path d="M117.299 143.671L136.65 148.239" stroke="#91C4FB" stroke-width="3.1984" stroke-miterlimit="10" stroke-linecap="round" stroke-linejoin="round"/>
<path d="M116.794 145.808L136.146 150.377" stroke="#91C4FB" stroke-width="3.1984" stroke-miterlimit="10" stroke-linecap="round" stroke-linejoin="round"/>
<path d="M116.29 147.946L135.641 152.514" stroke="#91C4FB" stroke-width="3.1984" stroke-miterlimit="10" stroke-linecap="round" stroke-linejoin="round"/>
<path d="M140.836 57.2085C140.372 58.3249 139.809 59.3849 139.222 60.4307C138.625 61.471 138.002 62.4972 137.28 63.4666C137.742 62.3498 138.306 61.2898 138.894 60.2444C139.492 59.2044 140.114 58.1782 140.836 57.2085Z" fill="white"/>
<path d="M145.815 72.7007C145.815 72.7007 142.404 78.0537 139.028 82.0407C135.652 86.0277 130.891 90.4988 130.891 90.4988L105.428 79.8322L109.166 71.1105L127.809 76.871L138.55 61.6688L145.815 72.7007Z" fill="#32338C"/>
<path d="M105.151 69.4231L109.166 71.1104L106.533 77.2536L103.923 76.3643L98.1623 76.6006L96.471 75.7549C95.8494 75.4439 95.6135 74.6767 95.9535 74.0703L96.4149 73.2479L96.0062 72.9289C95.4235 72.4739 95.3779 71.6086 95.9092 71.0945L96.3675 70.6507L95.7463 69.8091C95.3032 69.2088 95.4992 68.3551 96.16 68.0083L96.7927 67.676L96.5879 66.5582C96.4716 65.9238 96.8701 65.3087 97.4968 65.1559C98.3087 64.9578 99.1669 65.1245 99.8459 65.6122L105.151 69.4231Z" fill="#F8AB72"/>
<path d="M105.222 69.8345C104 67.219 102.758 64.5313 102.537 61.6532C102.526 61.5126 102.507 61.3527 102.392 61.2713C102.325 61.2239 102.239 61.2148 102.157 61.2141C101.482 61.2081 100.864 61.7096 100.622 62.3404C100.38 62.9711 100.475 63.6961 100.762 64.3075C100.825 64.442 100.899 64.5803 100.893 64.729C100.887 64.8574 100.822 64.9744 100.758 65.0863C100.546 65.4601 100.333 65.8339 100.121 66.2077C101.451 67.8261 103.242 69.146 105.222 69.8345Z" fill="#F8AB72"/>
<path d="M102.89 68.0938C102.648 67.943 102.419 67.7764 102.192 67.6071C101.963 67.4397 101.744 67.2606 101.525 67.0818C101.309 66.8993 101.094 66.7168 100.887 66.5228C100.68 66.3304 100.474 66.1357 100.282 65.9248C100.524 66.0752 100.753 66.2422 100.98 66.4112C101.209 66.5789 101.427 66.7577 101.646 66.9368C101.862 67.1193 102.078 67.3018 102.285 67.4959C102.492 67.6885 102.697 67.8832 102.89 68.0938Z" fill="#32338C"/>
<path d="M101.567 33.7385L107.729 36.1173C108.529 36.4259 109.024 37.2307 108.939 38.0838L108.628 41.2194L106.496 44.715C106.496 44.715 105.622 44.4703 105.936 43.4915C106.251 42.5126 107.3 39.8907 107.3 39.8907V38.0382C107.3 38.0382 106.29 42.3135 105.325 43.1068C104.36 43.9001 100.871 42.3504 99.9274 41.5814C99.467 41.2062 100.285 39.9962 100.397 38.192C100.513 36.2964 99.9727 33.8105 101.567 33.7385Z" fill="#F8AB74"/>
<path d="M105.508 35.1716C105.613 35.88 105.631 36.6016 105.581 37.3189C105.532 38.0365 105.403 38.7479 105.221 39.4442C105.025 40.1368 104.775 40.8155 104.454 41.459C104.132 42.1023 103.751 42.7151 103.301 43.2724C103.687 42.6698 104.032 42.0455 104.322 41.3969C104.613 40.7486 104.859 40.081 105.039 39.3949C105.233 38.7125 105.358 38.0118 105.437 37.306C105.516 36.5996 105.535 35.8864 105.508 35.1716Z" fill="#32338C"/>
<path d="M103.163 34.3584C103.229 35.0557 103.225 35.7597 103.17 36.4597C103.115 37.1604 102.995 37.855 102.837 38.5401C102.664 39.2215 102.453 39.8945 102.18 40.5421C102.041 40.8645 101.895 41.1836 101.734 41.4956C101.648 41.6494 101.572 41.8055 101.478 41.9563C101.386 42.1043 101.261 42.252 101.09 42.3031C101.253 42.2321 101.355 42.0813 101.434 41.9313C101.514 41.7778 101.578 41.6139 101.65 41.4557C101.793 41.1376 101.923 40.8145 102.045 40.4887C102.287 39.8367 102.496 39.1728 102.653 38.4958C102.825 37.8222 102.941 37.1361 103.026 36.4459C103.111 35.755 103.151 35.0584 103.163 34.3584Z" fill="#32338C"/>
</svg>
